<?xml version="1.0" encoding="utf-8" standalone="no"?>
<!DOCTYPE svg PUBLIC "-//W3C//DTD SVG 1.1//EN"
  "http://www.w3.org/Graphics/SVG/1.1/DTD/svg11.dtd">
<svg xmlns:xlink="http://www.w3.org/1999/xlink" width="1382.4pt" height="702pt" viewBox="0 0 1382.4 702" xmlns="http://www.w3.org/2000/svg" version="1.1">
 <metadata>
  <rdf:RDF xmlns:dc="http://purl.org/dc/elements/1.1/" xmlns:cc="http://creativecommons.org/ns#" xmlns:rdf="http://www.w3.org/1999/02/22-rdf-syntax-ns#">
   <cc:Work>
    <dc:type rdf:resource="http://purl.org/dc/dcmitype/StillImage"/>
    <dc:date>2023-02-02T20:18:44.534717</dc:date>
    <dc:format>image/svg+xml</dc:format>
    <dc:creator>
     <cc:Agent>
      <dc:title>Matplotlib v3.6.3, https://matplotlib.org/</dc:title>
     </cc:Agent>
    </dc:creator>
   </cc:Work>
  </rdf:RDF>
 </metadata>
 <defs>
  <style type="text/css">*{stroke-linejoin: round; stroke-linecap: butt}</style>
 </defs>
 <g id="figure_1">
  <g id="patch_1">
   <path d="M 0 702 
L 1382.4 702 
L 1382.4 0 
L 0 0 
z
" style="fill: #ffffff"/>
  </g>
  <g id="axes_1">
   <g id="patch_2">
    <path d="M 172.8 329.94 
L 1244.16 329.94 
L 1244.16 84.24 
L 172.8 84.24 
z
" style="fill: #ffffff"/>
   </g>
   <g id="matplotlib.axis_1">
    <g id="xtick_1">
     <g id="line2d_1">
      <path d="M 172.8 329.94 
L 172.8 84.24 
" clip-path="url(#p3115ac3370)" style="fill: none; stroke: #b0b0b0; stroke-width: 0.8; stroke-linecap: square"/>
     </g>
     <g id="line2d_2">
      <defs>
       <path id="maddc1f8f4f" d="M 0 0 
L 0 3.5 
" style="stroke: #000000; stroke-width: 0.8"/>
      </defs>
      <g>
       <use xlink:href="#maddc1f8f4f" x="172.8" y="329.94" style="stroke: #000000; stroke-width: 0.8"/>
      </g>
     </g>
     <g id="text_1">
      <!-- $\mathdefault{0}$ -->
      <g transform="translate(169.873505 345.24218) scale(0.12 -0.12)">
       <defs>
        <path id="CMR17-30" d="M 2688 2025 
C 2688 2416 2682 3080 2413 3591 
C 2176 4039 1798 4198 1466 4198 
C 1158 4198 768 4058 525 3597 
C 269 3118 243 2524 243 2025 
C 243 1661 250 1106 448 619 
C 723 -39 1216 -128 1466 -128 
C 1760 -128 2208 -7 2470 600 
C 2662 1042 2688 1559 2688 2025 
z
M 1466 -26 
C 1056 -26 813 325 723 812 
C 653 1188 653 1738 653 2096 
C 653 2588 653 2997 736 3387 
C 858 3929 1216 4096 1466 4096 
C 1728 4096 2067 3923 2189 3400 
C 2272 3036 2278 2607 2278 2096 
C 2278 1680 2278 1169 2202 792 
C 2067 95 1690 -26 1466 -26 
z
" transform="scale(0.015625)"/>
       </defs>
       <use xlink:href="#CMR17-30" transform="scale(0.996264)"/>
      </g>
     </g>
    </g>
    <g id="xtick_2">
     <g id="line2d_3">
      <path d="M 301.3632 329.94 
L 301.3632 84.24 
" clip-path="url(#p3115ac3370)" style="fill: none; stroke: #b0b0b0; stroke-width: 0.8; stroke-linecap: square"/>
     </g>
     <g id="line2d_4">
      <g>
       <use xlink:href="#maddc1f8f4f" x="301.3632" y="329.94" style="stroke: #000000; stroke-width: 0.8"/>
      </g>
     </g>
     <g id="text_2">
      <!-- $\mathdefault{6}$ -->
      <g transform="translate(298.436705 345.24218) scale(0.12 -0.12)">
       <defs>
        <path id="CMR17-36" d="M 678 2176 
C 678 3690 1395 4032 1811 4032 
C 1946 4032 2272 4009 2400 3776 
C 2298 3776 2106 3776 2106 3553 
C 2106 3381 2246 3323 2336 3323 
C 2394 3323 2566 3348 2566 3560 
C 2566 3954 2246 4179 1805 4179 
C 1043 4179 243 3390 243 1984 
C 243 253 966 -128 1478 -128 
C 2099 -128 2688 427 2688 1283 
C 2688 2081 2170 2662 1517 2662 
C 1126 2662 838 2407 678 1960 
L 678 2176 
z
M 1478 25 
C 691 25 691 1200 691 1436 
C 691 1896 909 2560 1504 2560 
C 1613 2560 1926 2560 2138 2120 
C 2253 1870 2253 1609 2253 1289 
C 2253 944 2253 690 2118 434 
C 1978 171 1773 25 1478 25 
z
" transform="scale(0.015625)"/>
       </defs>
       <use xlink:href="#CMR17-36" transform="scale(0.996264)"/>
      </g>
     </g>
    </g>
    <g id="xtick_3">
     <g id="line2d_5">
      <path d="M 429.9264 329.94 
L 429.9264 84.24 
" clip-path="url(#p3115ac3370)" style="fill: none; stroke: #b0b0b0; stroke-width: 0.8; stroke-linecap: square"/>
     </g>
     <g id="line2d_6">
      <g>
       <use xlink:href="#maddc1f8f4f" x="429.9264" y="329.94" style="stroke: #000000; stroke-width: 0.8"/>
      </g>
     </g>
     <g id="text_3">
      <!-- $\mathdefault{12}$ -->
      <g transform="translate(424.07341 345.24218) scale(0.12 -0.12)">
       <defs>
        <path id="CMR17-31" d="M 1702 4058 
C 1702 4192 1696 4192 1606 4192 
C 1357 3916 979 3827 621 3827 
C 602 3827 570 3827 563 3808 
C 557 3795 557 3782 557 3648 
C 755 3648 1088 3686 1344 3839 
L 1344 461 
C 1344 236 1331 160 781 160 
L 589 160 
L 589 0 
C 896 0 1216 0 1523 0 
C 1830 0 2150 0 2458 0 
L 2458 160 
L 2266 160 
C 1715 160 1702 230 1702 458 
L 1702 4058 
z
" transform="scale(0.015625)"/>
        <path id="CMR17-32" d="M 2669 989 
L 2554 989 
C 2490 536 2438 459 2413 420 
C 2381 369 1920 369 1830 369 
L 602 369 
C 832 619 1280 1072 1824 1597 
C 2214 1967 2669 2402 2669 3035 
C 2669 3790 2067 4224 1395 4224 
C 691 4224 262 3604 262 3030 
C 262 2780 448 2748 525 2748 
C 589 2748 781 2787 781 3010 
C 781 3207 614 3264 525 3264 
C 486 3264 448 3258 422 3245 
C 544 3790 915 4058 1306 4058 
C 1862 4058 2227 3617 2227 3035 
C 2227 2479 1901 2000 1536 1584 
L 262 146 
L 262 0 
L 2515 0 
L 2669 989 
z
" transform="scale(0.015625)"/>
       </defs>
       <use xlink:href="#CMR17-31" transform="scale(0.996264)"/>
       <use xlink:href="#CMR17-32" transform="translate(45.690477 0) scale(0.996264)"/>
      </g>
     </g>
    </g>
    <g id="xtick_4">
     <g id="line2d_7">
      <path d="M 558.4896 329.94 
L 558.4896 84.24 
" clip-path="url(#p3115ac3370)" style="fill: none; stroke: #b0b0b0; stroke-width: 0.8; stroke-linecap: square"/>
     </g>
     <g id="line2d_8">
      <g>
       <use xlink:href="#maddc1f8f4f" x="558.4896" y="329.94" style="stroke: #000000; stroke-width: 0.8"/>
      </g>
     </g>
     <g id="text_4">
      <!-- $\mathdefault{18}$ -->
      <g transform="translate(552.63661 345.24218) scale(0.12 -0.12)">
       <defs>
        <path id="CMR17-38" d="M 1741 2264 
C 2144 2467 2554 2773 2554 3263 
C 2554 3841 1990 4179 1472 4179 
C 890 4179 378 3759 378 3180 
C 378 3021 416 2747 666 2505 
C 730 2442 998 2251 1171 2130 
C 883 1983 211 1634 211 934 
C 211 279 838 -128 1459 -128 
C 2144 -128 2720 362 2720 1010 
C 2720 1590 2330 1857 2074 2029 
L 1741 2264 
z
M 902 2822 
C 851 2854 595 3051 595 3351 
C 595 3739 998 4032 1459 4032 
C 1965 4032 2336 3676 2336 3262 
C 2336 2669 1670 2331 1638 2331 
C 1632 2331 1626 2331 1574 2370 
L 902 2822 
z
M 2080 1519 
C 2176 1449 2483 1240 2483 851 
C 2483 381 2010 25 1472 25 
C 890 25 448 438 448 940 
C 448 1443 838 1862 1280 2060 
L 2080 1519 
z
" transform="scale(0.015625)"/>
       </defs>
       <use xlink:href="#CMR17-31" transform="scale(0.996264)"/>
       <use xlink:href="#CMR17-38" transform="translate(45.690477 0) scale(0.996264)"/>
      </g>
     </g>
    </g>
    <g id="xtick_5">
     <g id="line2d_9">
      <path d="M 687.0528 329.94 
L 687.0528 84.24 
" clip-path="url(#p3115ac3370)" style="fill: none; stroke: #b0b0b0; stroke-width: 0.8; stroke-linecap: square"/>
     </g>
     <g id="line2d_10">
      <g>
       <use xlink:href="#maddc1f8f4f" x="687.0528" y="329.94" style="stroke: #000000; stroke-width: 0.8"/>
      </g>
     </g>
     <g id="text_5">
      <!-- $\mathdefault{24}$ -->
      <g transform="translate(681.19981 345.24218) scale(0.12 -0.12)">
       <defs>
        <path id="CMR17-34" d="M 2150 4122 
C 2150 4256 2144 4256 2029 4256 
L 128 1254 
L 128 1088 
L 1779 1088 
L 1779 457 
C 1779 224 1766 160 1318 160 
L 1197 160 
L 1197 0 
C 1402 0 1747 0 1965 0 
C 2182 0 2528 0 2733 0 
L 2733 160 
L 2611 160 
C 2163 160 2150 224 2150 457 
L 2150 1088 
L 2803 1088 
L 2803 1254 
L 2150 1254 
L 2150 4122 
z
M 1798 3703 
L 1798 1254 
L 256 1254 
L 1798 3703 
z
" transform="scale(0.015625)"/>
       </defs>
       <use xlink:href="#CMR17-32" transform="scale(0.996264)"/>
       <use xlink:href="#CMR17-34" transform="translate(45.690477 0) scale(0.996264)"/>
      </g>
     </g>
    </g>
    <g id="xtick_6">
     <g id="line2d_11">
      <path d="M 815.616 329.94 
L 815.616 84.24 
" clip-path="url(#p3115ac3370)" style="fill: none; stroke: #b0b0b0; stroke-width: 0.8; stroke-linecap: square"/>
     </g>
     <g id="line2d_12">
      <g>
       <use xlink:href="#maddc1f8f4f" x="815.616" y="329.94" style="stroke: #000000; stroke-width: 0.8"/>
      </g>
     </g>
     <g id="text_6">
      <!-- $\mathdefault{30}$ -->
      <g transform="translate(809.76301 345.24218) scale(0.12 -0.12)">
       <defs>
        <path id="CMR17-33" d="M 1414 2157 
C 1984 2157 2234 1662 2234 1090 
C 2234 320 1824 25 1453 25 
C 1114 25 563 194 390 693 
C 422 680 454 680 486 680 
C 640 680 755 782 755 948 
C 755 1133 614 1216 486 1216 
C 378 1216 211 1165 211 926 
C 211 335 787 -128 1466 -128 
C 2176 -128 2720 430 2720 1085 
C 2720 1707 2208 2157 1600 2227 
C 2086 2328 2554 2756 2554 3329 
C 2554 3820 2048 4179 1472 4179 
C 890 4179 378 3829 378 3329 
C 378 3110 544 3072 627 3072 
C 762 3072 877 3155 877 3321 
C 877 3486 762 3569 627 3569 
C 602 3569 570 3569 544 3557 
C 730 3959 1235 4032 1459 4032 
C 1683 4032 2106 3925 2106 3320 
C 2106 3143 2080 2828 1862 2550 
C 1670 2304 1453 2304 1242 2284 
C 1210 2284 1062 2269 1037 2269 
C 992 2263 966 2257 966 2208 
C 966 2163 973 2157 1101 2157 
L 1414 2157 
z
" transform="scale(0.015625)"/>
       </defs>
       <use xlink:href="#CMR17-33" transform="scale(0.996264)"/>
       <use xlink:href="#CMR17-30" transform="translate(45.690477 0) scale(0.996264)"/>
      </g>
     </g>
    </g>
    <g id="xtick_7">
     <g id="line2d_13">
      <path d="M 944.1792 329.94 
L 944.1792 84.24 
" clip-path="url(#p3115ac3370)" style="fill: none; stroke: #b0b0b0; stroke-width: 0.8; stroke-linecap: square"/>
     </g>
     <g id="line2d_14">
      <g>
       <use xlink:href="#maddc1f8f4f" x="944.1792" y="329.94" style="stroke: #000000; stroke-width: 0.8"/>
      </g>
     </g>
     <g id="text_7">
      <!-- $\mathdefault{36}$ -->
      <g transform="translate(938.32621 345.24218) scale(0.12 -0.12)">
       <use xlink:href="#CMR17-33" transform="scale(0.996264)"/>
       <use xlink:href="#CMR17-36" transform="translate(45.690477 0) scale(0.996264)"/>
      </g>
     </g>
    </g>
    <g id="xtick_8">
     <g id="line2d_15">
      <path d="M 1072.7424 329.94 
L 1072.7424 84.24 
" clip-path="url(#p3115ac3370)" style="fill: none; stroke: #b0b0b0; stroke-width: 0.8; stroke-linecap: square"/>
     </g>
     <g id="line2d_16">
      <g>
       <use xlink:href="#maddc1f8f4f" x="1072.7424" y="329.94" style="stroke: #000000; stroke-width: 0.8"/>
      </g>
     </g>
     <g id="text_8">
      <!-- $\mathdefault{42}$ -->
      <g transform="translate(1066.88941 345.24218) scale(0.12 -0.12)">
       <use xlink:href="#CMR17-34" transform="scale(0.996264)"/>
       <use xlink:href="#CMR17-32" transform="translate(45.690477 0) scale(0.996264)"/>
      </g>
     </g>
    </g>
    <g id="xtick_9">
     <g id="line2d_17">
      <path d="M 1201.3056 329.94 
L 1201.3056 84.24 
" clip-path="url(#p3115ac3370)" style="fill: none; stroke: #b0b0b0; stroke-width: 0.8; stroke-linecap: square"/>
     </g>
     <g id="line2d_18">
      <g>
       <use xlink:href="#maddc1f8f4f" x="1201.3056" y="329.94" style="stroke: #000000; stroke-width: 0.8"/>
      </g>
     </g>
     <g id="text_9">
      <!-- $\mathdefault{48}$ -->
      <g transform="translate(1195.45261 345.24218) scale(0.12 -0.12)">
       <use xlink:href="#CMR17-34" transform="scale(0.996264)"/>
       <use xlink:href="#CMR17-38" transform="translate(45.690477 0) scale(0.996264)"/>
      </g>
     </g>
    </g>
   </g>
   <g id="matplotlib.axis_2">
    <g id="ytick_1">
     <g id="line2d_19">
      <path d="M 172.8 329.94 
L 1244.16 329.94 
" clip-path="url(#p3115ac3370)" style="fill: none; stroke: #b0b0b0; stroke-width: 0.8; stroke-linecap: square"/>
     </g>
     <g id="line2d_20">
      <defs>
       <path id="mc70c495b61" d="M 0 0 
L -3.5 0 
" style="stroke: #000000; stroke-width: 0.8"/>
      </defs>
      <g>
       <use xlink:href="#mc70c495b61" x="172.8" y="329.94" style="stroke: #000000; stroke-width: 0.8"/>
      </g>
     </g>
     <g id="text_10">
      <!-- $\mathdefault{0}$ -->
      <g transform="translate(159.94701 334.09109) scale(0.12 -0.12)">
       <use xlink:href="#CMR17-30" transform="scale(0.996264)"/>
      </g>
     </g>
    </g>
    <g id="ytick_2">
     <g id="line2d_21">
      <path d="M 172.8 268.515 
L 1244.16 268.515 
" clip-path="url(#p3115ac3370)" style="fill: none; stroke: #b0b0b0; stroke-width: 0.8; stroke-linecap: square"/>
     </g>
     <g id="line2d_22">
      <g>
       <use xlink:href="#mc70c495b61" x="172.8" y="268.515" style="stroke: #000000; stroke-width: 0.8"/>
      </g>
     </g>
     <g id="text_11">
      <!-- $\mathdefault{6}$ -->
      <g transform="translate(159.94701 272.66609) scale(0.12 -0.12)">
       <use xlink:href="#CMR17-36" transform="scale(0.996264)"/>
      </g>
     </g>
    </g>
    <g id="ytick_3">
     <g id="line2d_23">
      <path d="M 172.8 207.09 
L 1244.16 207.09 
" clip-path="url(#p3115ac3370)" style="fill: none; stroke: #b0b0b0; stroke-width: 0.8; stroke-linecap: square"/>
     </g>
     <g id="line2d_24">
      <g>
       <use xlink:href="#mc70c495b61" x="172.8" y="207.09" style="stroke: #000000; stroke-width: 0.8"/>
      </g>
     </g>
     <g id="text_12">
      <!-- $\mathdefault{12}$ -->
      <g transform="translate(154.094019 211.24109) scale(0.12 -0.12)">
       <use xlink:href="#CMR17-31" transform="scale(0.996264)"/>
       <use xlink:href="#CMR17-32" transform="translate(45.690477 0) scale(0.996264)"/>
      </g>
     </g>
    </g>
    <g id="ytick_4">
     <g id="line2d_25">
      <path d="M 172.8 145.665 
L 1244.16 145.665 
" clip-path="url(#p3115ac3370)" style="fill: none; stroke: #b0b0b0; stroke-width: 0.8; stroke-linecap: square"/>
     </g>
     <g id="line2d_26">
      <g>
       <use xlink:href="#mc70c495b61" x="172.8" y="145.665" style="stroke: #000000; stroke-width: 0.8"/>
      </g>
     </g>
     <g id="text_13">
      <!-- $\mathdefault{18}$ -->
      <g transform="translate(154.094019 149.81609) scale(0.12 -0.12)">
       <use xlink:href="#CMR17-31" transform="scale(0.996264)"/>
       <use xlink:href="#CMR17-38" transform="translate(45.690477 0) scale(0.996264)"/>
      </g>
     </g>
    </g>
    <g id="ytick_5">
     <g id="line2d_27">
      <path d="M 172.8 84.24 
L 1244.16 84.24 
" clip-path="url(#p3115ac3370)" style="fill: none; stroke: #b0b0b0; stroke-width: 0.8; stroke-linecap: square"/>
     </g>
     <g id="line2d_28">
      <g>
       <use xlink:href="#mc70c495b61" x="172.8" y="84.24" style="stroke: #000000; stroke-width: 0.8"/>
      </g>
     </g>
     <g id="text_14">
      <!-- $\mathdefault{24}$ -->
      <g transform="translate(154.094019 88.39109) scale(0.12 -0.12)">
       <use xlink:href="#CMR17-32" transform="scale(0.996264)"/>
       <use xlink:href="#CMR17-34" transform="translate(45.690477 0) scale(0.996264)"/>
      </g>
     </g>
    </g>
    <g id="text_15">
     <!-- Leistung $[ W ]$ -->
     <g transform="translate(147.105227 239.06001) rotate(-90) scale(0.12 -0.12)">
      <defs>
       <path id="CMSS17-4c" d="M 1670 414 
C 1594 414 1517 414 1440 414 
L 1101 414 
L 1101 4416 
L 563 4416 
L 563 0 
L 3002 0 
L 3002 414 
L 1670 414 
z
" transform="scale(0.015625)"/>
       <path id="CMSS17-65" d="M 2502 1377 
C 2502 1590 2490 2003 2285 2345 
C 2061 2713 1696 2816 1421 2816 
C 755 2816 192 2188 192 1375 
C 192 582 774 -64 1510 -64 
C 1798 -64 2150 19 2470 248 
C 2470 274 2458 414 2451 420 
C 2451 433 2432 630 2432 656 
C 2125 407 1773 325 1517 325 
C 1107 325 666 667 646 1377 
L 2502 1377 
z
M 698 1728 
C 781 2084 1062 2421 1421 2421 
C 1517 2421 1965 2421 2080 1728 
L 698 1728 
z
" transform="scale(0.015625)"/>
       <path id="CMSS17-69" d="M 979 4183 
L 442 4183 
L 442 3648 
L 979 3648 
L 979 4183 
z
M 947 2739 
L 474 2739 
L 474 0 
L 947 0 
L 947 2739 
z
" transform="scale(0.015625)"/>
       <path id="CMSS17-73" d="M 2061 2627 
C 1683 2807 1389 2807 1197 2807 
C 742 2807 198 2648 198 2003 
C 198 1359 902 1218 1094 1179 
C 1389 1122 1715 1058 1715 740 
C 1715 337 1254 337 1171 337 
C 915 337 563 407 243 638 
L 166 210 
C 531 0 883 -64 1178 -64 
C 1965 -64 2163 416 2163 781 
C 2163 1094 1984 1305 1862 1401 
C 1651 1568 1574 1587 1050 1696 
C 960 1709 646 1779 646 2066 
C 646 2432 1050 2432 1139 2432 
C 1555 2432 1811 2303 1984 2208 
L 2061 2627 
z
" transform="scale(0.015625)"/>
       <path id="CMSS17-74" d="M 1069 2368 
L 1901 2368 
L 1901 2737 
L 1069 2737 
L 1069 3520 
L 614 3520 
L 614 2737 
L 109 2737 
L 109 2368 
L 602 2368 
L 602 749 
C 602 384 685 -64 1107 -64 
C 1427 -64 1722 25 2003 172 
L 1901 548 
C 1747 414 1562 337 1363 337 
C 1082 337 1069 696 1069 856 
L 1069 2368 
z
" transform="scale(0.015625)"/>
       <path id="CMSS17-75" d="M 2618 2739 
L 2131 2739 
L 2131 972 
C 2131 498 1786 306 1421 306 
C 998 306 960 447 960 709 
L 960 2739 
L 474 2739 
L 474 678 
C 474 179 646 -64 1088 -64 
C 1306 -64 1798 -13 2144 306 
L 2144 0 
L 2618 0 
L 2618 2739 
z
" transform="scale(0.015625)"/>
       <path id="CMSS17-6e" d="M 2618 1877 
C 2618 2283 2522 2816 1798 2816 
C 1389 2816 1120 2606 941 2389 
L 941 2758 
L 474 2758 
L 474 0 
L 960 0 
L 960 1559 
C 960 1964 1114 2428 1549 2428 
C 2112 2428 2131 2048 2131 1829 
L 2131 0 
L 2618 0 
L 2618 1877 
z
" transform="scale(0.015625)"/>
       <path id="CMSS17-67" d="M 2848 2808 
C 2483 2808 2170 2738 1914 2617 
C 1702 2777 1485 2808 1338 2808 
C 781 2808 358 2349 358 1814 
C 358 1468 550 1207 563 1195 
C 448 1035 384 863 384 672 
C 384 448 474 289 544 200 
C 211 -3 166 -314 166 -435 
C 166 -898 749 -1280 1498 -1280 
C 2253 -1280 2835 -898 2835 -428 
C 2835 448 1856 448 1587 448 
L 1069 448 
C 973 448 717 448 717 791 
C 717 921 774 1004 781 1010 
C 877 940 1075 832 1338 832 
C 1869 832 2310 1278 2310 1827 
C 2310 2132 2170 2355 2112 2432 
L 2131 2432 
C 2150 2432 2419 2432 2515 2432 
C 2720 2432 2739 2429 2918 2419 
L 2848 2808 
z
M 1338 1182 
C 1120 1182 813 1315 813 1823 
C 813 2375 1165 2464 1331 2464 
C 1549 2464 1856 2331 1856 1823 
C 1856 1271 1504 1182 1338 1182 
z
M 1581 -10 
C 1734 -10 2381 -10 2381 -442 
C 2381 -714 1984 -929 1504 -929 
C 1018 -929 621 -720 621 -435 
C 621 -403 621 -10 1062 -10 
L 1581 -10 
z
" transform="scale(0.015625)"/>
       <path id="CMR17-5b" d="M 1504 -1600 
L 1504 -1377 
L 902 -1377 
L 902 4544 
L 1504 4544 
L 1504 4767 
L 678 4767 
L 678 -1600 
L 1504 -1600 
z
" transform="scale(0.015625)"/>
       <path id="CMMI12-57" d="M 5779 3646 
C 5926 3894 6067 4129 6451 4168 
C 6509 4174 6566 4180 6566 4282 
C 6566 4352 6509 4352 6490 4352 
C 6477 4352 6432 4352 6010 4352 
C 5818 4352 5619 4352 5434 4352 
C 5395 4352 5318 4352 5318 4226 
C 5318 4166 5370 4160 5408 4160 
C 5536 4160 5741 4122 5741 3925 
C 5741 3842 5715 3797 5651 3690 
L 3904 648 
L 3674 3963 
C 3674 4039 3744 4160 4102 4160 
C 4186 4160 4250 4160 4250 4286 
C 4250 4352 4186 4352 4154 4352 
C 3930 4352 3693 4352 3462 4352 
L 3130 4352 
C 3034 4352 2918 4352 2822 4352 
C 2784 4352 2707 4352 2707 4226 
C 2707 4160 2752 4160 2861 4160 
C 3155 4160 3155 4153 3181 3772 
L 3200 3543 
L 1542 648 
L 1306 3931 
C 1306 4002 1306 4160 1741 4160 
C 1811 4160 1882 4160 1882 4279 
C 1882 4352 1824 4352 1786 4352 
C 1562 4352 1325 4352 1094 4352 
L 762 4352 
C 666 4352 550 4352 454 4352 
C 416 4352 339 4352 339 4226 
C 339 4160 390 4160 480 4160 
C 781 4160 787 4121 800 3918 
L 1082 18 
C 1088 -90 1094 -128 1171 -128 
C 1235 -128 1248 -103 1306 -7 
L 3213 3307 
L 3450 18 
C 3456 -90 3462 -128 3539 -128 
C 3603 -128 3622 -96 3674 -7 
L 5779 3646 
z
" transform="scale(0.015625)"/>
       <path id="CMR17-5d" d="M 915 4767 
L 90 4767 
L 90 4544 
L 691 4544 
L 691 -1377 
L 90 -1377 
L 90 -1600 
L 915 -1600 
L 915 4767 
z
" transform="scale(0.015625)"/>
      </defs>
      <use xlink:href="#CMSS17-4c" transform="scale(0.996264)"/>
      <use xlink:href="#CMSS17-65" transform="translate(50.687105 0) scale(0.996264)"/>
      <use xlink:href="#CMSS17-69" transform="translate(92.325927 0) scale(0.996264)"/>
      <use xlink:href="#CMSS17-73" transform="translate(114.50665 0) scale(0.996264)"/>
      <use xlink:href="#CMSS17-74" transform="translate(150.420192 0) scale(0.996264)"/>
      <use xlink:href="#CMSS17-75" transform="translate(184.251759 0) scale(0.996264)"/>
      <use xlink:href="#CMSS17-6e" transform="translate(232.456702 0) scale(0.996264)"/>
      <use xlink:href="#CMSS17-67" transform="translate(280.661645 0) scale(0.996264)"/>
      <use xlink:href="#CMR17-5b" transform="translate(358.734382 0) scale(0.996264)"/>
      <use xlink:href="#CMMI12-57" transform="translate(383.60544 0) scale(0.996264)"/>
      <use xlink:href="#CMR17-5d" transform="translate(489.249938 0) scale(0.996264)"/>
     </g>
    </g>
   </g>
   <g id="line2d_29">
    <path d="M 172.8 84.24 
L 177.08544 99.835938 
L 181.37088 113.992734 
L 185.656321 126.882145 
L 189.94176 138.651088 
L 194.2272 149.425722 
L 198.512641 159.315007 
L 202.798079 168.413341 
L 207.083521 176.802875 
L 211.368959 184.555386 
L 215.6544 191.73375 
L 219.939841 198.393296 
L 224.225282 204.582858 
L 228.510718 210.345631 
L 232.796159 215.719963 
L 237.0816 220.739997 
L 241.367041 225.436213 
L 245.652482 229.835881 
L 249.937918 233.963437 
L 254.223359 237.840879 
L 258.5088 241.487996 
L 262.794236 244.922695 
L 269.2224 249.711423 
L 275.650564 254.106663 
L 282.078718 258.150378 
L 288.506882 261.879052 
L 294.935036 265.324612 
L 301.3632 268.515 
L 307.791364 271.4748 
L 314.219518 274.225715 
L 322.7904 277.601536 
L 331.361282 280.679588 
L 339.932164 283.493876 
L 348.503036 286.0737 
L 357.073928 288.444411 
L 367.787528 291.146966 
L 378.501128 293.593846 
L 389.214728 295.816316 
L 402.071036 298.224271 
L 414.927364 300.386057 
L 427.783672 302.334119 
L 442.782728 304.372884 
L 457.781764 306.193858 
L 474.923528 308.046482 
L 494.208 309.882856 
L 513.492472 311.497515 
L 534.919672 313.073046 
L 558.4896 314.58375 
L 584.202256 316.011429 
L 614.200328 317.439011 
L 646.341128 318.738014 
L 682.767344 319.979638 
L 723.479056 321.137843 
L 770.618872 322.243235 
L 824.186872 323.264175 
L 886.325744 324.213061 
L 957.035487 325.065967 
L 1040.6016 325.849261 
L 1141.309456 326.565824 
L 1246.302687 327.129511 
L 1246.302687 327.129511 
" clip-path="url(#p3115ac3370)" style="fill: none; stroke: #0000ff; stroke-width: 1.5; stroke-linecap: square"/>
   </g>
   <g id="line2d_30">
    <path d="M 172.8 329.94 
L 174.94272 325.978167 
L 177.08544 322.269872 
L 179.22816 318.797149 
L 181.37088 315.543516 
L 185.656321 309.634216 
L 189.94176 304.434803 
L 194.2272 299.854283 
L 198.512641 295.815001 
L 202.798079 292.250444 
L 207.083521 289.103434 
L 211.368959 286.324616 
L 215.6544 283.87125 
L 219.939841 281.706212 
L 224.225282 279.797137 
L 228.510718 278.115776 
L 232.796159 276.637313 
L 237.0816 275.339998 
L 243.509759 273.692339 
L 249.937918 272.354062 
L 256.366082 271.278842 
L 262.794236 270.427887 
L 269.2224 269.768571 
L 277.793282 269.14057 
L 286.364164 268.750714 
L 297.077764 268.532647 
L 307.791364 268.551539 
L 320.647682 268.813985 
L 335.646718 269.365168 
L 352.788472 270.221253 
L 376.3584 271.646974 
L 410.641928 273.978783 
L 507.064328 280.648331 
L 552.061456 283.484943 
L 594.915856 285.97001 
L 639.912944 288.356283 
L 687.0528 290.627998 
L 736.335344 292.777312 
L 789.903344 294.881738 
L 845.614072 296.846487 
L 905.610256 298.74174 
L 972.034544 300.611527 
L 1042.744287 302.378008 
L 1119.882256 304.083411 
L 1205.591056 305.751727 
L 1246.302687 306.472415 
L 1246.302687 306.472415 
" clip-path="url(#p3115ac3370)" style="fill: none; stroke: #ffa500; stroke-width: 1.5; stroke-linecap: square"/>
   </g>
   <g id="patch_3">
    <path d="M 172.8 329.94 
L 172.8 84.24 
" style="fill: none; stroke: #000000; stroke-width: 0.8; stroke-linejoin: miter; stroke-linecap: square"/>
   </g>
   <g id="patch_4">
    <path d="M 1244.16 329.94 
L 1244.16 84.24 
" style="fill: none; stroke: #000000; stroke-width: 0.8; stroke-linejoin: miter; stroke-linecap: square"/>
   </g>
   <g id="patch_5">
    <path d="M 172.8 329.94 
L 1244.16 329.94 
" style="fill: none; stroke: #000000; stroke-width: 0.8; stroke-linejoin: miter; stroke-linecap: square"/>
   </g>
   <g id="patch_6">
    <path d="M 172.8 84.24 
L 1244.16 84.24 
" style="fill: none; stroke: #000000; stroke-width: 0.8; stroke-linejoin: miter; stroke-linecap: square"/>
   </g>
   <g id="legend_1">
    <g id="patch_7">
     <path d="M 1126.009005 127.289192 
L 1235.76 127.289192 
Q 1238.16 127.289192 1238.16 124.889192 
L 1238.16 92.64 
Q 1238.16 90.24 1235.76 90.24 
L 1126.009005 90.24 
Q 1123.609005 90.24 1123.609005 92.64 
L 1123.609005 124.889192 
Q 1123.609005 127.289192 1126.009005 127.289192 
z
" style="fill: #ffffff; opacity: 0.8; stroke: #cccccc; stroke-linejoin: miter"/>
    </g>
    <g id="line2d_31">
     <path d="M 1128.409005 99.24 
L 1140.409005 99.24 
L 1152.409005 99.24 
" style="fill: none; stroke: #0000ff; stroke-width: 1.5; stroke-linecap: square"/>
    </g>
    <g id="text_16">
     <!-- Heizleistung -->
     <g transform="translate(1162.009005 103.44) scale(0.12 -0.12)">
      <defs>
       <path id="CMSS17-48" d="M 3674 4416 
L 3136 4416 
L 3136 2501 
L 1101 2501 
L 1101 4416 
L 563 4416 
L 563 0 
L 1101 0 
L 1101 2112 
L 3136 2112 
L 3136 0 
L 3674 0 
L 3674 4416 
z
" transform="scale(0.015625)"/>
       <path id="CMSS17-7a" d="M 2400 2502 
L 2400 2750 
L 250 2750 
L 250 2368 
L 1069 2368 
C 1146 2368 1222 2368 1299 2368 
L 1747 2368 
L 166 261 
L 166 0 
L 2419 0 
L 2419 395 
L 1549 395 
C 1472 395 1395 395 1318 395 
L 826 395 
L 2400 2502 
z
" transform="scale(0.015625)"/>
       <path id="CMSS17-6c" d="M 947 4416 
L 474 4416 
L 474 0 
L 947 0 
L 947 4416 
z
" transform="scale(0.015625)"/>
      </defs>
      <use xlink:href="#CMSS17-48" transform="scale(0.996264)"/>
      <use xlink:href="#CMSS17-65" transform="translate(66.061519 0) scale(0.996264)"/>
      <use xlink:href="#CMSS17-69" transform="translate(107.700341 0) scale(0.996264)"/>
      <use xlink:href="#CMSS17-7a" transform="translate(129.881064 0) scale(0.996264)"/>
      <use xlink:href="#CMSS17-6c" transform="translate(170.558936 0) scale(0.996264)"/>
      <use xlink:href="#CMSS17-65" transform="translate(192.739659 0) scale(0.996264)"/>
      <use xlink:href="#CMSS17-69" transform="translate(234.378481 0) scale(0.996264)"/>
      <use xlink:href="#CMSS17-73" transform="translate(256.559204 0) scale(0.996264)"/>
      <use xlink:href="#CMSS17-74" transform="translate(292.472746 0) scale(0.996264)"/>
      <use xlink:href="#CMSS17-75" transform="translate(326.304313 0) scale(0.996264)"/>
      <use xlink:href="#CMSS17-6e" transform="translate(374.509256 0) scale(0.996264)"/>
      <use xlink:href="#CMSS17-67" transform="translate(422.714199 0) scale(0.996264)"/>
     </g>
    </g>
    <g id="line2d_32">
     <path d="M 1128.409005 115.964596 
L 1140.409005 115.964596 
L 1152.409005 115.964596 
" style="fill: none; stroke: #ffa500; stroke-width: 1.5; stroke-linecap: square"/>
    </g>
    <g id="text_17">
     <!-- Verlustleistung -->
     <g transform="translate(1162.009005 120.164596) scale(0.12 -0.12)">
      <defs>
       <path id="CMSS17-56" d="M 3910 4416 
L 3411 4416 
L 2304 1362 
C 2272 1273 2074 688 2035 484 
L 2029 484 
C 1978 726 1773 1292 1664 1604 
L 922 3672 
L 646 4416 
L 83 4416 
L 1715 0 
L 2278 0 
L 3910 4416 
z
" transform="scale(0.015625)"/>
       <path id="CMSS17-72" d="M 954 1363 
C 954 1965 1395 2368 1958 2368 
L 1958 2789 
C 1549 2789 1165 2585 934 2253 
L 934 2758 
L 480 2758 
L 480 0 
L 954 0 
L 954 1363 
z
" transform="scale(0.015625)"/>
      </defs>
      <use xlink:href="#CMSS17-56" transform="scale(0.996264)"/>
      <use xlink:href="#CMSS17-65" transform="translate(59.615401 0) scale(0.996264)"/>
      <use xlink:href="#CMSS17-72" transform="translate(101.254223 0) scale(0.996264)"/>
      <use xlink:href="#CMSS17-6c" transform="translate(133.163996 0) scale(0.996264)"/>
      <use xlink:href="#CMSS17-75" transform="translate(155.344719 0) scale(0.996264)"/>
      <use xlink:href="#CMSS17-73" transform="translate(203.549662 0) scale(0.996264)"/>
      <use xlink:href="#CMSS17-74" transform="translate(239.463204 0) scale(0.996264)"/>
      <use xlink:href="#CMSS17-6c" transform="translate(273.29477 0) scale(0.996264)"/>
      <use xlink:href="#CMSS17-65" transform="translate(295.475494 0) scale(0.996264)"/>
      <use xlink:href="#CMSS17-69" transform="translate(337.114316 0) scale(0.996264)"/>
      <use xlink:href="#CMSS17-73" transform="translate(359.295039 0) scale(0.996264)"/>
      <use xlink:href="#CMSS17-74" transform="translate(395.208581 0) scale(0.996264)"/>
      <use xlink:href="#CMSS17-75" transform="translate(429.040147 0) scale(0.996264)"/>
      <use xlink:href="#CMSS17-6e" transform="translate(477.24509 0) scale(0.996264)"/>
      <use xlink:href="#CMSS17-67" transform="translate(525.450034 0) scale(0.996264)"/>
     </g>
    </g>
   </g>
  </g>
  <g id="axes_2">
   <g id="patch_8">
    <path d="M 172.8 624.78 
L 1244.16 624.78 
L 1244.16 379.08 
L 172.8 379.08 
z
" style="fill: #ffffff"/>
   </g>
   <g id="matplotlib.axis_3">
    <g id="xtick_10">
     <g id="line2d_33">
      <path d="M 172.8 624.78 
L 172.8 379.08 
" clip-path="url(#p474a3a6e6b)" style="fill: none; stroke: #b0b0b0; stroke-width: 0.8; stroke-linecap: square"/>
     </g>
     <g id="line2d_34">
      <g>
       <use xlink:href="#maddc1f8f4f" x="172.8" y="624.78" style="stroke: #000000; stroke-width: 0.8"/>
      </g>
     </g>
     <g id="text_18">
      <!-- $\mathdefault{0}$ -->
      <g transform="translate(169.873505 640.08218) scale(0.12 -0.12)">
       <use xlink:href="#CMR17-30" transform="scale(0.996264)"/>
      </g>
     </g>
    </g>
    <g id="xtick_11">
     <g id="line2d_35">
      <path d="M 301.3632 624.78 
L 301.3632 379.08 
" clip-path="url(#p474a3a6e6b)" style="fill: none; stroke: #b0b0b0; stroke-width: 0.8; stroke-linecap: square"/>
     </g>
     <g id="line2d_36">
      <g>
       <use xlink:href="#maddc1f8f4f" x="301.3632" y="624.78" style="stroke: #000000; stroke-width: 0.8"/>
      </g>
     </g>
     <g id="text_19">
      <!-- $\mathdefault{6}$ -->
      <g transform="translate(298.436705 640.08218) scale(0.12 -0.12)">
       <use xlink:href="#CMR17-36" transform="scale(0.996264)"/>
      </g>
     </g>
    </g>
    <g id="xtick_12">
     <g id="line2d_37">
      <path d="M 429.9264 624.78 
L 429.9264 379.08 
" clip-path="url(#p474a3a6e6b)" style="fill: none; stroke: #b0b0b0; stroke-width: 0.8; stroke-linecap: square"/>
     </g>
     <g id="line2d_38">
      <g>
       <use xlink:href="#maddc1f8f4f" x="429.9264" y="624.78" style="stroke: #000000; stroke-width: 0.8"/>
      </g>
     </g>
     <g id="text_20">
      <!-- $\mathdefault{12}$ -->
      <g transform="translate(424.07341 640.08218) scale(0.12 -0.12)">
       <use xlink:href="#CMR17-31" transform="scale(0.996264)"/>
       <use xlink:href="#CMR17-32" transform="translate(45.690477 0) scale(0.996264)"/>
      </g>
     </g>
    </g>
    <g id="xtick_13">
     <g id="line2d_39">
      <path d="M 558.4896 624.78 
L 558.4896 379.08 
" clip-path="url(#p474a3a6e6b)" style="fill: none; stroke: #b0b0b0; stroke-width: 0.8; stroke-linecap: square"/>
     </g>
     <g id="line2d_40">
      <g>
       <use xlink:href="#maddc1f8f4f" x="558.4896" y="624.78" style="stroke: #000000; stroke-width: 0.8"/>
      </g>
     </g>
     <g id="text_21">
      <!-- $\mathdefault{18}$ -->
      <g transform="translate(552.63661 640.08218) scale(0.12 -0.12)">
       <use xlink:href="#CMR17-31" transform="scale(0.996264)"/>
       <use xlink:href="#CMR17-38" transform="translate(45.690477 0) scale(0.996264)"/>
      </g>
     </g>
    </g>
    <g id="xtick_14">
     <g id="line2d_41">
      <path d="M 687.0528 624.78 
L 687.0528 379.08 
" clip-path="url(#p474a3a6e6b)" style="fill: none; stroke: #b0b0b0; stroke-width: 0.8; stroke-linecap: square"/>
     </g>
     <g id="line2d_42">
      <g>
       <use xlink:href="#maddc1f8f4f" x="687.0528" y="624.78" style="stroke: #000000; stroke-width: 0.8"/>
      </g>
     </g>
     <g id="text_22">
      <!-- $\mathdefault{24}$ -->
      <g transform="translate(681.19981 640.08218) scale(0.12 -0.12)">
       <use xlink:href="#CMR17-32" transform="scale(0.996264)"/>
       <use xlink:href="#CMR17-34" transform="translate(45.690477 0) scale(0.996264)"/>
      </g>
     </g>
    </g>
    <g id="xtick_15">
     <g id="line2d_43">
      <path d="M 815.616 624.78 
L 815.616 379.08 
" clip-path="url(#p474a3a6e6b)" style="fill: none; stroke: #b0b0b0; stroke-width: 0.8; stroke-linecap: square"/>
     </g>
     <g id="line2d_44">
      <g>
       <use xlink:href="#maddc1f8f4f" x="815.616" y="624.78" style="stroke: #000000; stroke-width: 0.8"/>
      </g>
     </g>
     <g id="text_23">
      <!-- $\mathdefault{30}$ -->
      <g transform="translate(809.76301 640.08218) scale(0.12 -0.12)">
       <use xlink:href="#CMR17-33" transform="scale(0.996264)"/>
       <use xlink:href="#CMR17-30" transform="translate(45.690477 0) scale(0.996264)"/>
      </g>
     </g>
    </g>
    <g id="xtick_16">
     <g id="line2d_45">
      <path d="M 944.1792 624.78 
L 944.1792 379.08 
" clip-path="url(#p474a3a6e6b)" style="fill: none; stroke: #b0b0b0; stroke-width: 0.8; stroke-linecap: square"/>
     </g>
     <g id="line2d_46">
      <g>
       <use xlink:href="#maddc1f8f4f" x="944.1792" y="624.78" style="stroke: #000000; stroke-width: 0.8"/>
      </g>
     </g>
     <g id="text_24">
      <!-- $\mathdefault{36}$ -->
      <g transform="translate(938.32621 640.08218) scale(0.12 -0.12)">
       <use xlink:href="#CMR17-33" transform="scale(0.996264)"/>
       <use xlink:href="#CMR17-36" transform="translate(45.690477 0) scale(0.996264)"/>
      </g>
     </g>
    </g>
    <g id="xtick_17">
     <g id="line2d_47">
      <path d="M 1072.7424 624.78 
L 1072.7424 379.08 
" clip-path="url(#p474a3a6e6b)" style="fill: none; stroke: #b0b0b0; stroke-width: 0.8; stroke-linecap: square"/>
     </g>
     <g id="line2d_48">
      <g>
       <use xlink:href="#maddc1f8f4f" x="1072.7424" y="624.78" style="stroke: #000000; stroke-width: 0.8"/>
      </g>
     </g>
     <g id="text_25">
      <!-- $\mathdefault{42}$ -->
      <g transform="translate(1066.88941 640.08218) scale(0.12 -0.12)">
       <use xlink:href="#CMR17-34" transform="scale(0.996264)"/>
       <use xlink:href="#CMR17-32" transform="translate(45.690477 0) scale(0.996264)"/>
      </g>
     </g>
    </g>
    <g id="xtick_18">
     <g id="line2d_49">
      <path d="M 1201.3056 624.78 
L 1201.3056 379.08 
" clip-path="url(#p474a3a6e6b)" style="fill: none; stroke: #b0b0b0; stroke-width: 0.8; stroke-linecap: square"/>
     </g>
     <g id="line2d_50">
      <g>
       <use xlink:href="#maddc1f8f4f" x="1201.3056" y="624.78" style="stroke: #000000; stroke-width: 0.8"/>
      </g>
     </g>
     <g id="text_26">
      <!-- $\mathdefault{48}$ -->
      <g transform="translate(1195.45261 640.08218) scale(0.12 -0.12)">
       <use xlink:href="#CMR17-34" transform="scale(0.996264)"/>
       <use xlink:href="#CMR17-38" transform="translate(45.690477 0) scale(0.996264)"/>
      </g>
     </g>
    </g>
    <g id="text_27">
     <!-- Widerstand R1 $[ \Omega ]$ -->
     <g transform="translate(662.778312 655.373152) scale(0.12 -0.12)">
      <defs>
       <path id="CMSS17-57" d="M 5581 4416 
L 5094 4416 
L 4557 2437 
C 4474 2118 4397 1801 4320 1482 
C 4205 1011 4122 681 4109 515 
L 4102 515 
C 4090 687 4006 1049 3904 1457 
C 3827 1795 3744 2131 3654 2462 
L 3123 4416 
L 2586 4416 
L 2080 2562 
L 1824 1549 
C 1632 747 1626 632 1613 505 
L 1606 505 
C 1606 543 1581 753 1402 1498 
C 1312 1868 1222 2244 1126 2601 
L 634 4416 
L 83 4416 
L 1299 0 
L 1830 0 
L 2336 1839 
L 2592 2851 
C 2765 3564 2803 3742 2816 3901 
L 2822 3901 
C 2822 3876 2880 3474 3130 2545 
L 3808 0 
L 4365 0 
L 5581 4416 
z
" transform="scale(0.015625)"/>
       <path id="CMSS17-64" d="M 2611 4416 
L 2138 4416 
L 2138 2438 
C 1939 2603 1613 2756 1254 2756 
C 672 2756 211 2131 211 1347 
C 211 562 666 -64 1235 -64 
C 1677 -64 1971 172 2125 306 
L 2125 -13 
L 2611 -13 
L 2611 4416 
z
M 2125 836 
C 2125 747 2125 653 1926 482 
C 1798 375 1645 325 1498 325 
C 1152 325 698 576 698 1340 
C 698 2134 1210 2368 1562 2368 
C 1798 2368 1990 2254 2125 2065 
L 2125 836 
z
" transform="scale(0.015625)"/>
       <path id="CMSS17-61" d="M 2406 1791 
C 2406 2392 1978 2808 1402 2808 
C 1120 2808 813 2757 461 2553 
L 499 2135 
C 659 2248 934 2432 1395 2432 
C 1722 2432 1920 2180 1920 1782 
L 1920 1536 
C 896 1536 256 1238 256 726 
C 256 461 416 -64 947 -64 
C 1043 -64 1562 -64 1933 217 
L 1933 -19 
L 2406 -19 
L 2406 1791 
z
M 1920 816 
C 1920 701 1920 548 1728 434 
C 1562 325 1350 325 1261 325 
C 941 325 723 511 723 744 
C 723 1211 1722 1211 1920 1211 
L 1920 816 
z
" transform="scale(0.015625)"/>
       <path id="CMSS17-52" d="M 2522 2109 
L 2534 2115 
C 3533 2459 3539 3147 3539 3268 
C 3539 3873 2925 4453 2003 4453 
L 570 4453 
L 570 32 
L 1094 32 
L 1094 2048 
L 2035 2048 
L 3168 32 
L 3706 32 
L 2522 2109 
z
M 1094 2437 
L 1094 4096 
L 1933 4096 
C 2746 4096 3034 3637 3034 3267 
C 3034 2922 2778 2437 1933 2437 
L 1094 2437 
z
" transform="scale(0.015625)"/>
       <path id="CMSS17-31" d="M 1818 4288 
L 1696 4288 
C 1350 3940 947 3890 538 3890 
L 538 3520 
C 723 3520 1024 3520 1325 3667 
L 1325 369 
L 570 369 
L 570 0 
L 2573 0 
L 2573 369 
L 1818 369 
L 1818 4288 
z
" transform="scale(0.015625)"/>
       <path id="CMR17-a" d="M 4038 935 
L 3923 935 
C 3866 641 3846 563 3814 461 
C 3782 365 3763 314 3392 314 
L 2874 314 
C 2944 686 3098 961 3366 1391 
C 3699 1935 3974 2377 3974 2910 
C 3974 3775 3155 4480 2138 4480 
C 1094 4480 294 3768 294 2910 
C 294 2377 576 1922 890 1416 
C 1171 961 1325 686 1395 314 
L 877 314 
C 512 314 493 365 461 454 
C 422 557 410 641 346 935 
L 230 935 
L 416 0 
L 1382 0 
C 1517 0 1523 6 1523 102 
C 1523 558 1286 1154 1178 1429 
C 973 1929 781 2416 781 2916 
C 781 3871 1466 4377 2131 4377 
C 2829 4377 3488 3851 3488 2916 
C 3488 2422 3315 1981 3078 1397 
C 2976 1135 2746 551 2746 102 
C 2746 0 2752 0 2886 0 
L 3853 0 
L 4038 935 
z
" transform="scale(0.015625)"/>
      </defs>
      <use xlink:href="#CMSS17-57" transform="scale(0.996264)"/>
      <use xlink:href="#CMSS17-69" transform="translate(88.242166 0) scale(0.996264)"/>
      <use xlink:href="#CMSS17-64" transform="translate(110.422889 0) scale(0.996264)"/>
      <use xlink:href="#CMSS17-65" transform="translate(158.627832 0) scale(0.996264)"/>
      <use xlink:href="#CMSS17-72" transform="translate(200.266654 0) scale(0.996264)"/>
      <use xlink:href="#CMSS17-73" transform="translate(232.176427 0) scale(0.996264)"/>
      <use xlink:href="#CMSS17-74" transform="translate(268.089969 0) scale(0.996264)"/>
      <use xlink:href="#CMSS17-61" transform="translate(301.921536 0) scale(0.996264)"/>
      <use xlink:href="#CMSS17-6e" transform="translate(346.843456 0) scale(0.996264)"/>
      <use xlink:href="#CMSS17-64" transform="translate(395.048399 0) scale(0.996264)"/>
      <use xlink:href="#CMSS17-52" transform="translate(474.482455 0) scale(0.996264)"/>
      <use xlink:href="#CMSS17-31" transform="translate(534.89861 0) scale(0.996264)"/>
      <use xlink:href="#CMR17-5b" transform="translate(612.971346 0) scale(0.996264)"/>
      <use xlink:href="#CMR17-a" transform="translate(637.842405 0) scale(0.996264)"/>
      <use xlink:href="#CMR17-5d" transform="translate(704.352285 0) scale(0.996264)"/>
     </g>
    </g>
   </g>
   <g id="matplotlib.axis_4">
    <g id="ytick_6">
     <g id="line2d_51">
      <path d="M 172.8 624.78 
L 1244.16 624.78 
" clip-path="url(#p474a3a6e6b)" style="fill: none; stroke: #b0b0b0; stroke-width: 0.8; stroke-linecap: square"/>
     </g>
     <g id="line2d_52">
      <g>
       <use xlink:href="#mc70c495b61" x="172.8" y="624.78" style="stroke: #000000; stroke-width: 0.8"/>
      </g>
     </g>
     <g id="text_28">
      <!-- $\mathdefault{0}$ -->
      <g transform="translate(159.94701 628.93109) scale(0.12 -0.12)">
       <use xlink:href="#CMR17-30" transform="scale(0.996264)"/>
      </g>
     </g>
    </g>
    <g id="ytick_7">
     <g id="line2d_53">
      <path d="M 172.8 563.355 
L 1244.16 563.355 
" clip-path="url(#p474a3a6e6b)" style="fill: none; stroke: #b0b0b0; stroke-width: 0.8; stroke-linecap: square"/>
     </g>
     <g id="line2d_54">
      <g>
       <use xlink:href="#mc70c495b61" x="172.8" y="563.355" style="stroke: #000000; stroke-width: 0.8"/>
      </g>
     </g>
     <g id="text_29">
      <!-- $\mathdefault{25}$ -->
      <g transform="translate(154.094019 567.50609) scale(0.12 -0.12)">
       <defs>
        <path id="CMR17-35" d="M 730 3692 
C 794 3666 1056 3584 1325 3584 
C 1920 3584 2246 3911 2432 4100 
C 2432 4157 2432 4192 2394 4192 
C 2387 4192 2374 4192 2323 4163 
C 2099 4058 1837 3973 1517 3973 
C 1325 3973 1037 3999 723 4139 
C 653 4171 640 4171 634 4171 
C 602 4171 595 4164 595 4037 
L 595 2203 
C 595 2089 595 2057 659 2057 
C 691 2057 704 2070 736 2114 
C 941 2401 1222 2522 1542 2522 
C 1766 2522 2246 2382 2246 1289 
C 2246 1085 2246 715 2054 421 
C 1894 159 1645 25 1370 25 
C 947 25 518 320 403 814 
C 429 807 480 795 506 795 
C 589 795 749 840 749 1038 
C 749 1210 627 1280 506 1280 
C 358 1280 262 1190 262 1011 
C 262 454 704 -128 1382 -128 
C 2042 -128 2669 440 2669 1264 
C 2669 2030 2170 2624 1549 2624 
C 1222 2624 947 2503 730 2274 
L 730 3692 
z
" transform="scale(0.015625)"/>
       </defs>
       <use xlink:href="#CMR17-32" transform="scale(0.996264)"/>
       <use xlink:href="#CMR17-35" transform="translate(45.690477 0) scale(0.996264)"/>
      </g>
     </g>
    </g>
    <g id="ytick_8">
     <g id="line2d_55">
      <path d="M 172.8 501.93 
L 1244.16 501.93 
" clip-path="url(#p474a3a6e6b)" style="fill: none; stroke: #b0b0b0; stroke-width: 0.8; stroke-linecap: square"/>
     </g>
     <g id="line2d_56">
      <g>
       <use xlink:href="#mc70c495b61" x="172.8" y="501.93" style="stroke: #000000; stroke-width: 0.8"/>
      </g>
     </g>
     <g id="text_30">
      <!-- $\mathdefault{50}$ -->
      <g transform="translate(154.094019 506.08109) scale(0.12 -0.12)">
       <use xlink:href="#CMR17-35" transform="scale(0.996264)"/>
       <use xlink:href="#CMR17-30" transform="translate(45.690477 0) scale(0.996264)"/>
      </g>
     </g>
    </g>
    <g id="ytick_9">
     <g id="line2d_57">
      <path d="M 172.8 440.505 
L 1244.16 440.505 
" clip-path="url(#p474a3a6e6b)" style="fill: none; stroke: #b0b0b0; stroke-width: 0.8; stroke-linecap: square"/>
     </g>
     <g id="line2d_58">
      <g>
       <use xlink:href="#mc70c495b61" x="172.8" y="440.505" style="stroke: #000000; stroke-width: 0.8"/>
      </g>
     </g>
     <g id="text_31">
      <!-- $\mathdefault{75}$ -->
      <g transform="translate(154.094019 444.65609) scale(0.12 -0.12)">
       <defs>
        <path id="CMR17-37" d="M 2886 3941 
L 2886 4081 
L 1382 4081 
C 634 4081 621 4165 595 4288 
L 480 4288 
L 294 3094 
L 410 3094 
C 429 3215 474 3540 550 3661 
C 589 3712 1062 3712 1171 3712 
L 2579 3712 
L 1869 2661 
C 1395 1954 1069 999 1069 165 
C 1069 89 1069 -128 1299 -128 
C 1530 -128 1530 89 1530 171 
L 1530 465 
C 1530 1508 1709 2196 2003 2636 
L 2886 3941 
z
" transform="scale(0.015625)"/>
       </defs>
       <use xlink:href="#CMR17-37" transform="scale(0.996264)"/>
       <use xlink:href="#CMR17-35" transform="translate(45.690477 0) scale(0.996264)"/>
      </g>
     </g>
    </g>
    <g id="ytick_10">
     <g id="line2d_59">
      <path d="M 172.8 379.08 
L 1244.16 379.08 
" clip-path="url(#p474a3a6e6b)" style="fill: none; stroke: #b0b0b0; stroke-width: 0.8; stroke-linecap: square"/>
     </g>
     <g id="line2d_60">
      <g>
       <use xlink:href="#mc70c495b61" x="172.8" y="379.08" style="stroke: #000000; stroke-width: 0.8"/>
      </g>
     </g>
     <g id="text_32">
      <!-- $\mathdefault{100}$ -->
      <g transform="translate(148.241029 383.23109) scale(0.12 -0.12)">
       <use xlink:href="#CMR17-31" transform="scale(0.996264)"/>
       <use xlink:href="#CMR17-30" transform="translate(45.690477 0) scale(0.996264)"/>
       <use xlink:href="#CMR17-30" transform="translate(91.380954 0) scale(0.996264)"/>
      </g>
     </g>
    </g>
    <g id="text_33">
     <!-- Wirkungsgrad $[ \% ]$ -->
     <g transform="translate(141.252237 545.604592) rotate(-90) scale(0.12 -0.12)">
      <defs>
       <path id="CMSS17-6b" d="M 1696 1688 
L 2688 2739 
L 2074 2739 
L 954 1554 
L 954 4416 
L 480 4416 
L 480 0 
L 947 0 
L 947 892 
L 1376 1344 
L 2278 0 
L 2822 0 
L 1696 1688 
z
" transform="scale(0.015625)"/>
       <path id="CMR17-25" d="M 4640 959 
C 4640 1698 4275 2240 3846 2240 
C 3411 2240 2970 1736 2970 959 
C 2970 183 3405 -320 3846 -320 
C 4275 -320 4640 215 4640 959 
z
M 3853 -218 
C 3686 -218 3270 -66 3270 959 
C 3270 1991 3686 2138 3853 2138 
C 4205 2138 4525 1634 4525 959 
C 4525 285 4205 -218 3853 -218 
z
M 4083 4577 
C 4128 4647 4134 4653 4134 4685 
C 4134 4761 4077 4800 4026 4800 
C 3962 4800 3936 4756 3891 4706 
C 3520 4190 3008 4134 2746 4134 
C 2106 4134 1715 4494 1594 4607 
C 1510 4682 1389 4800 1171 4800 
C 736 4800 294 4296 294 3519 
C 294 2743 730 2240 1171 2240 
C 1600 2240 1965 2778 1965 3527 
C 1965 3969 1830 4270 1811 4308 
C 2202 4064 2586 4032 2752 4032 
C 3162 4032 3456 4183 3616 4289 
L 3622 4283 
L 858 -84 
C 800 -174 800 -187 800 -206 
C 800 -276 858 -320 915 -320 
C 973 -320 992 -289 1037 -218 
L 4083 4577 
z
M 1178 2342 
C 1011 2342 595 2494 595 3519 
C 595 4551 1011 4698 1178 4698 
C 1530 4698 1850 4194 1850 3519 
C 1850 2845 1530 2342 1178 2342 
z
" transform="scale(0.015625)"/>
      </defs>
      <use xlink:href="#CMSS17-57" transform="scale(0.996264)"/>
      <use xlink:href="#CMSS17-69" transform="translate(88.242166 0) scale(0.996264)"/>
      <use xlink:href="#CMSS17-72" transform="translate(110.422889 0) scale(0.996264)"/>
      <use xlink:href="#CMSS17-6b" transform="translate(142.332662 0) scale(0.996264)"/>
      <use xlink:href="#CMSS17-75" transform="translate(187.935151 0) scale(0.996264)"/>
      <use xlink:href="#CMSS17-6e" transform="translate(236.140094 0) scale(0.996264)"/>
      <use xlink:href="#CMSS17-67" transform="translate(284.345037 0) scale(0.996264)"/>
      <use xlink:href="#CMSS17-73" transform="translate(331.188661 0) scale(0.996264)"/>
      <use xlink:href="#CMSS17-67" transform="translate(367.102203 0) scale(0.996264)"/>
      <use xlink:href="#CMSS17-72" transform="translate(413.945826 0) scale(0.996264)"/>
      <use xlink:href="#CMSS17-61" transform="translate(445.855599 0) scale(0.996264)"/>
      <use xlink:href="#CMSS17-64" transform="translate(490.777519 0) scale(0.996264)"/>
      <use xlink:href="#CMR17-5b" transform="translate(570.211575 0) scale(0.996264)"/>
      <use xlink:href="#CMR17-25" transform="translate(595.082634 0) scale(0.996264)"/>
      <use xlink:href="#CMR17-5d" transform="translate(672.002224 0) scale(0.996264)"/>
     </g>
    </g>
   </g>
   <g id="line2d_61">
    <path d="M 172.8 379.08 
L 177.08544 387.005784 
L 181.37088 394.43625 
L 185.656321 401.416357 
L 189.94176 407.985895 
L 194.2272 414.180013 
L 198.512641 420.030005 
L 202.798079 425.563785 
L 207.083521 430.806309 
L 211.368959 435.779997 
L 215.6544 440.505 
L 219.939841 444.999508 
L 226.368 451.344702 
L 232.796159 457.257271 
L 239.224318 462.779995 
L 245.652482 467.950217 
L 252.080641 472.800624 
L 258.5088 477.359994 
L 264.936964 481.653794 
L 271.365118 485.704534 
L 277.793282 489.532305 
L 284.221436 493.155004 
L 292.792318 497.693784 
L 301.3632 501.93 
L 309.934082 505.892907 
L 318.504964 509.608125 
L 327.075836 513.098178 
L 335.646718 516.382955 
L 346.360328 520.226821 
L 357.073928 523.807402 
L 367.787528 527.15086 
L 378.501128 530.279998 
L 391.357436 533.779996 
L 404.213764 537.029998 
L 417.070072 540.055861 
L 432.069128 543.332487 
L 447.068164 546.365108 
L 462.0672 549.180005 
L 479.208964 552.159311 
L 496.350728 554.912699 
L 515.6352 557.770907 
L 534.919672 560.404456 
L 556.346872 563.09799 
L 577.774072 565.575183 
L 601.344 568.08 
L 627.056656 570.581477 
L 654.912 573.053684 
L 684.910072 575.475655 
L 717.050872 577.830962 
L 751.3344 580.107271 
L 787.760656 582.295847 
L 826.3296 584.390959 
L 869.184 586.489092 
L 914.181087 588.469652 
L 963.463713 590.416364 
L 1017.031713 592.308634 
L 1074.885087 594.131353 
L 1139.166687 595.930685 
L 1209.876513 597.680739 
L 1246.302687 598.501926 
L 1246.302687 598.501926 
" clip-path="url(#p474a3a6e6b)" style="fill: none; stroke: #008000; stroke-width: 1.5; stroke-linecap: square"/>
   </g>
   <g id="patch_9">
    <path d="M 172.8 624.78 
L 172.8 379.08 
" style="fill: none; stroke: #000000; stroke-width: 0.8; stroke-linejoin: miter; stroke-linecap: square"/>
   </g>
   <g id="patch_10">
    <path d="M 1244.16 624.78 
L 1244.16 379.08 
" style="fill: none; stroke: #000000; stroke-width: 0.8; stroke-linejoin: miter; stroke-linecap: square"/>
   </g>
   <g id="patch_11">
    <path d="M 172.8 624.78 
L 1244.16 624.78 
" style="fill: none; stroke: #000000; stroke-width: 0.8; stroke-linejoin: miter; stroke-linecap: square"/>
   </g>
   <g id="patch_12">
    <path d="M 172.8 379.08 
L 1244.16 379.08 
" style="fill: none; stroke: #000000; stroke-width: 0.8; stroke-linejoin: miter; stroke-linecap: square"/>
   </g>
   <g id="legend_2">
    <g id="patch_13">
     <path d="M 1130.171117 405.404596 
L 1235.76 405.404596 
Q 1238.16 405.404596 1238.16 403.004596 
L 1238.16 387.48 
Q 1238.16 385.08 1235.76 385.08 
L 1130.171117 385.08 
Q 1127.771117 385.08 1127.771117 387.48 
L 1127.771117 403.004596 
Q 1127.771117 405.404596 1130.171117 405.404596 
z
" style="fill: #ffffff; opacity: 0.8; stroke: #cccccc; stroke-linejoin: miter"/>
    </g>
    <g id="line2d_62">
     <path d="M 1132.571117 394.08 
L 1144.571117 394.08 
L 1156.571117 394.08 
" style="fill: none; stroke: #008000; stroke-width: 1.5; stroke-linecap: square"/>
    </g>
    <g id="text_34">
     <!-- Wirkungsgrad -->
     <g transform="translate(1166.171117 398.28) scale(0.12 -0.12)">
      <use xlink:href="#CMSS17-57" transform="scale(0.996264)"/>
      <use xlink:href="#CMSS17-69" transform="translate(88.242166 0) scale(0.996264)"/>
      <use xlink:href="#CMSS17-72" transform="translate(110.422889 0) scale(0.996264)"/>
      <use xlink:href="#CMSS17-6b" transform="translate(142.332662 0) scale(0.996264)"/>
      <use xlink:href="#CMSS17-75" transform="translate(187.935151 0) scale(0.996264)"/>
      <use xlink:href="#CMSS17-6e" transform="translate(236.140094 0) scale(0.996264)"/>
      <use xlink:href="#CMSS17-67" transform="translate(284.345037 0) scale(0.996264)"/>
      <use xlink:href="#CMSS17-73" transform="translate(331.188661 0) scale(0.996264)"/>
      <use xlink:href="#CMSS17-67" transform="translate(367.102203 0) scale(0.996264)"/>
      <use xlink:href="#CMSS17-72" transform="translate(413.945826 0) scale(0.996264)"/>
      <use xlink:href="#CMSS17-61" transform="translate(445.855599 0) scale(0.996264)"/>
      <use xlink:href="#CMSS17-64" transform="translate(490.777519 0) scale(0.996264)"/>
     </g>
    </g>
   </g>
  </g>
  <g id="text_35">
   <!-- Leistungsregelung durch Widerstand -->
   <g transform="translate(585.328426 24.002625) scale(0.144 -0.144)">
    <defs>
     <path id="CMSS17-63" d="M 2464 2541 
C 2464 2585 2170 2714 2093 2739 
C 1882 2816 1613 2816 1542 2816 
C 710 2816 211 2093 211 1363 
C 211 595 768 -64 1517 -64 
C 1946 -64 2253 76 2502 242 
L 2464 664 
C 2189 453 1869 337 1523 337 
C 1024 337 698 774 698 1369 
C 698 1831 909 2414 1549 2414 
C 1901 2414 2099 2343 2394 2145 
L 2464 2541 
z
" transform="scale(0.015625)"/>
     <path id="CMSS17-68" d="M 2618 1891 
C 2618 2292 2522 2820 1798 2820 
C 1395 2820 1133 2623 947 2407 
L 947 4448 
L 474 4448 
L 474 32 
L 960 32 
L 960 1573 
C 960 1973 1114 2432 1549 2432 
C 2112 2432 2131 2056 2131 1839 
L 2131 32 
L 2618 32 
L 2618 1891 
z
" transform="scale(0.015625)"/>
    </defs>
    <use xlink:href="#CMSS17-4c" transform="scale(0.996264)"/>
    <use xlink:href="#CMSS17-65" transform="translate(50.687105 0) scale(0.996264)"/>
    <use xlink:href="#CMSS17-69" transform="translate(92.325927 0) scale(0.996264)"/>
    <use xlink:href="#CMSS17-73" transform="translate(114.50665 0) scale(0.996264)"/>
    <use xlink:href="#CMSS17-74" transform="translate(150.420192 0) scale(0.996264)"/>
    <use xlink:href="#CMSS17-75" transform="translate(184.251759 0) scale(0.996264)"/>
    <use xlink:href="#CMSS17-6e" transform="translate(232.456702 0) scale(0.996264)"/>
    <use xlink:href="#CMSS17-67" transform="translate(280.661645 0) scale(0.996264)"/>
    <use xlink:href="#CMSS17-73" transform="translate(327.505269 0) scale(0.996264)"/>
    <use xlink:href="#CMSS17-72" transform="translate(363.418811 0) scale(0.996264)"/>
    <use xlink:href="#CMSS17-65" transform="translate(395.328583 0) scale(0.996264)"/>
    <use xlink:href="#CMSS17-67" transform="translate(436.967406 0) scale(0.996264)"/>
    <use xlink:href="#CMSS17-65" transform="translate(483.811029 0) scale(0.996264)"/>
    <use xlink:href="#CMSS17-6c" transform="translate(525.449851 0) scale(0.996264)"/>
    <use xlink:href="#CMSS17-75" transform="translate(547.630574 0) scale(0.996264)"/>
    <use xlink:href="#CMSS17-6e" transform="translate(595.835517 0) scale(0.996264)"/>
    <use xlink:href="#CMSS17-67" transform="translate(644.04046 0) scale(0.996264)"/>
    <use xlink:href="#CMSS17-64" transform="translate(722.113197 0) scale(0.996264)"/>
    <use xlink:href="#CMSS17-75" transform="translate(770.31814 0) scale(0.996264)"/>
    <use xlink:href="#CMSS17-72" transform="translate(818.523083 0) scale(0.996264)"/>
    <use xlink:href="#CMSS17-63" transform="translate(850.432856 0) scale(0.996264)"/>
    <use xlink:href="#CMSS17-68" transform="translate(892.071678 0) scale(0.996264)"/>
    <use xlink:href="#CMSS17-57" transform="translate(971.505734 0) scale(0.996264)"/>
    <use xlink:href="#CMSS17-69" transform="translate(1059.7479 0) scale(0.996264)"/>
    <use xlink:href="#CMSS17-64" transform="translate(1081.928623 0) scale(0.996264)"/>
    <use xlink:href="#CMSS17-65" transform="translate(1130.133566 0) scale(0.996264)"/>
    <use xlink:href="#CMSS17-72" transform="translate(1171.772388 0) scale(0.996264)"/>
    <use xlink:href="#CMSS17-73" transform="translate(1203.682161 0) scale(0.996264)"/>
    <use xlink:href="#CMSS17-74" transform="translate(1239.595703 0) scale(0.996264)"/>
    <use xlink:href="#CMSS17-61" transform="translate(1273.427269 0) scale(0.996264)"/>
    <use xlink:href="#CMSS17-6e" transform="translate(1318.34919 0) scale(0.996264)"/>
    <use xlink:href="#CMSS17-64" transform="translate(1366.554133 0) scale(0.996264)"/>
   </g>
  </g>
 </g>
 <defs>
  <clipPath id="p3115ac3370">
   <rect x="172.8" y="84.24" width="1071.36" height="245.7"/>
  </clipPath>
  <clipPath id="p474a3a6e6b">
   <rect x="172.8" y="379.08" width="1071.36" height="245.7"/>
  </clipPath>
 </defs>
</svg>
