<?xml version="1.0" encoding="utf-8" standalone="no"?>
<!DOCTYPE svg PUBLIC "-//W3C//DTD SVG 1.1//EN"
  "http://www.w3.org/Graphics/SVG/1.1/DTD/svg11.dtd">
<svg xmlns:xlink="http://www.w3.org/1999/xlink" width="1382.4pt" height="702pt" viewBox="0 0 1382.4 702" xmlns="http://www.w3.org/2000/svg" version="1.1">
 <metadata>
  <rdf:RDF xmlns:dc="http://purl.org/dc/elements/1.1/" xmlns:cc="http://creativecommons.org/ns#" xmlns:rdf="http://www.w3.org/1999/02/22-rdf-syntax-ns#">
   <cc:Work>
    <dc:type rdf:resource="http://purl.org/dc/dcmitype/StillImage"/>
    <dc:date>2023-02-02T20:18:24.586617</dc:date>
    <dc:format>image/svg+xml</dc:format>
    <dc:creator>
     <cc:Agent>
      <dc:title>Matplotlib v3.6.3, https://matplotlib.org/</dc:title>
     </cc:Agent>
    </dc:creator>
   </cc:Work>
  </rdf:RDF>
 </metadata>
 <defs>
  <style type="text/css">*{stroke-linejoin: round; stroke-linecap: butt}</style>
 </defs>
 <g id="figure_1">
  <g id="patch_1">
   <path d="M 0 702 
L 1382.4 702 
L 1382.4 0 
L 0 0 
z
" style="fill: #ffffff"/>
  </g>
  <g id="axes_1">
   <g id="patch_2">
    <path d="M 172.8 329.94 
L 659.781818 329.94 
L 659.781818 84.24 
L 172.8 84.24 
z
" style="fill: #ffffff"/>
   </g>
   <g id="matplotlib.axis_1">
    <g id="xtick_1">
     <g id="line2d_1">
      <path d="M 172.8 329.94 
L 172.8 84.24 
" clip-path="url(#p8cd911a1e4)" style="fill: none; stroke: #b0b0b0; stroke-width: 0.8; stroke-linecap: square"/>
     </g>
     <g id="line2d_2">
      <defs>
       <path id="m63f2068790" d="M 0 0 
L 0 3.5 
" style="stroke: #000000; stroke-width: 0.8"/>
      </defs>
      <g>
       <use xlink:href="#m63f2068790" x="172.8" y="329.94" style="stroke: #000000; stroke-width: 0.8"/>
      </g>
     </g>
     <g id="text_1">
      <!-- $\mathdefault{0}$ -->
      <g transform="translate(169.873505 345.24218) scale(0.12 -0.12)">
       <defs>
        <path id="CMR17-30" d="M 2688 2025 
C 2688 2416 2682 3080 2413 3591 
C 2176 4039 1798 4198 1466 4198 
C 1158 4198 768 4058 525 3597 
C 269 3118 243 2524 243 2025 
C 243 1661 250 1106 448 619 
C 723 -39 1216 -128 1466 -128 
C 1760 -128 2208 -7 2470 600 
C 2662 1042 2688 1559 2688 2025 
z
M 1466 -26 
C 1056 -26 813 325 723 812 
C 653 1188 653 1738 653 2096 
C 653 2588 653 2997 736 3387 
C 858 3929 1216 4096 1466 4096 
C 1728 4096 2067 3923 2189 3400 
C 2272 3036 2278 2607 2278 2096 
C 2278 1680 2278 1169 2202 792 
C 2067 95 1690 -26 1466 -26 
z
" transform="scale(0.015625)"/>
       </defs>
       <use xlink:href="#CMR17-30" transform="scale(0.996264)"/>
      </g>
     </g>
    </g>
   </g>
   <g id="matplotlib.axis_2">
    <g id="ytick_1">
     <g id="line2d_3">
      <path d="M 172.8 318.771818 
L 659.781818 318.771818 
" clip-path="url(#p8cd911a1e4)" style="fill: none; stroke: #b0b0b0; stroke-width: 0.8; stroke-linecap: square"/>
     </g>
     <g id="line2d_4">
      <defs>
       <path id="m020bc8556d" d="M 0 0 
L -3.5 0 
" style="stroke: #000000; stroke-width: 0.8"/>
      </defs>
      <g>
       <use xlink:href="#m020bc8556d" x="172.8" y="318.771818" style="stroke: #000000; stroke-width: 0.8"/>
      </g>
     </g>
     <g id="text_2">
      <!-- $\mathdefault{−8}$ -->
      <g transform="translate(150.64852 322.922908) scale(0.12 -0.12)">
       <defs>
        <path id="CMSY10-0" d="M 4218 1472 
C 4326 1472 4442 1472 4442 1600 
C 4442 1728 4326 1728 4218 1728 
L 755 1728 
C 646 1728 531 1728 531 1600 
C 531 1472 646 1472 755 1472 
L 4218 1472 
z
" transform="scale(0.015625)"/>
        <path id="CMR17-38" d="M 1741 2264 
C 2144 2467 2554 2773 2554 3263 
C 2554 3841 1990 4179 1472 4179 
C 890 4179 378 3759 378 3180 
C 378 3021 416 2747 666 2505 
C 730 2442 998 2251 1171 2130 
C 883 1983 211 1634 211 934 
C 211 279 838 -128 1459 -128 
C 2144 -128 2720 362 2720 1010 
C 2720 1590 2330 1857 2074 2029 
L 1741 2264 
z
M 902 2822 
C 851 2854 595 3051 595 3351 
C 595 3739 998 4032 1459 4032 
C 1965 4032 2336 3676 2336 3262 
C 2336 2669 1670 2331 1638 2331 
C 1632 2331 1626 2331 1574 2370 
L 902 2822 
z
M 2080 1519 
C 2176 1449 2483 1240 2483 851 
C 2483 381 2010 25 1472 25 
C 890 25 448 438 448 940 
C 448 1443 838 1862 1280 2060 
L 2080 1519 
z
" transform="scale(0.015625)"/>
       </defs>
       <use xlink:href="#CMSY10-0" transform="scale(0.996264)"/>
       <use xlink:href="#CMR17-38" transform="translate(77.487468 0) scale(0.996264)"/>
      </g>
     </g>
    </g>
    <g id="ytick_2">
     <g id="line2d_5">
      <path d="M 172.8 262.930909 
L 659.781818 262.930909 
" clip-path="url(#p8cd911a1e4)" style="fill: none; stroke: #b0b0b0; stroke-width: 0.8; stroke-linecap: square"/>
     </g>
     <g id="line2d_6">
      <g>
       <use xlink:href="#m020bc8556d" x="172.8" y="262.930909" style="stroke: #000000; stroke-width: 0.8"/>
      </g>
     </g>
     <g id="text_3">
      <!-- $\mathdefault{−4}$ -->
      <g transform="translate(150.64852 267.081999) scale(0.12 -0.12)">
       <defs>
        <path id="CMR17-34" d="M 2150 4122 
C 2150 4256 2144 4256 2029 4256 
L 128 1254 
L 128 1088 
L 1779 1088 
L 1779 457 
C 1779 224 1766 160 1318 160 
L 1197 160 
L 1197 0 
C 1402 0 1747 0 1965 0 
C 2182 0 2528 0 2733 0 
L 2733 160 
L 2611 160 
C 2163 160 2150 224 2150 457 
L 2150 1088 
L 2803 1088 
L 2803 1254 
L 2150 1254 
L 2150 4122 
z
M 1798 3703 
L 1798 1254 
L 256 1254 
L 1798 3703 
z
" transform="scale(0.015625)"/>
       </defs>
       <use xlink:href="#CMSY10-0" transform="scale(0.996264)"/>
       <use xlink:href="#CMR17-34" transform="translate(77.487468 0) scale(0.996264)"/>
      </g>
     </g>
    </g>
    <g id="ytick_3">
     <g id="line2d_7">
      <path d="M 172.8 207.09 
L 659.781818 207.09 
" clip-path="url(#p8cd911a1e4)" style="fill: none; stroke: #b0b0b0; stroke-width: 0.8; stroke-linecap: square"/>
     </g>
     <g id="line2d_8">
      <g>
       <use xlink:href="#m020bc8556d" x="172.8" y="207.09" style="stroke: #000000; stroke-width: 0.8"/>
      </g>
     </g>
     <g id="text_4">
      <!-- $\mathdefault{0}$ -->
      <g transform="translate(159.94701 211.24109) scale(0.12 -0.12)">
       <use xlink:href="#CMR17-30" transform="scale(0.996264)"/>
      </g>
     </g>
    </g>
    <g id="ytick_4">
     <g id="line2d_9">
      <path d="M 172.8 151.249091 
L 659.781818 151.249091 
" clip-path="url(#p8cd911a1e4)" style="fill: none; stroke: #b0b0b0; stroke-width: 0.8; stroke-linecap: square"/>
     </g>
     <g id="line2d_10">
      <g>
       <use xlink:href="#m020bc8556d" x="172.8" y="151.249091" style="stroke: #000000; stroke-width: 0.8"/>
      </g>
     </g>
     <g id="text_5">
      <!-- $\mathdefault{4}$ -->
      <g transform="translate(159.94701 155.400181) scale(0.12 -0.12)">
       <use xlink:href="#CMR17-34" transform="scale(0.996264)"/>
      </g>
     </g>
    </g>
    <g id="ytick_5">
     <g id="line2d_11">
      <path d="M 172.8 95.408182 
L 659.781818 95.408182 
" clip-path="url(#p8cd911a1e4)" style="fill: none; stroke: #b0b0b0; stroke-width: 0.8; stroke-linecap: square"/>
     </g>
     <g id="line2d_12">
      <g>
       <use xlink:href="#m020bc8556d" x="172.8" y="95.408182" style="stroke: #000000; stroke-width: 0.8"/>
      </g>
     </g>
     <g id="text_6">
      <!-- $\mathdefault{8}$ -->
      <g transform="translate(159.94701 99.559272) scale(0.12 -0.12)">
       <use xlink:href="#CMR17-38" transform="scale(0.996264)"/>
      </g>
     </g>
    </g>
    <g id="text_7">
     <!-- Spannung $[ V ]$ -->
     <g transform="translate(143.659728 240.998549) rotate(-90) scale(0.12 -0.12)">
      <defs>
       <path id="CMSS17-53" d="M 2797 4169 
C 2515 4334 2208 4480 1690 4480 
C 864 4480 333 3879 333 3266 
C 333 3025 403 2753 653 2475 
C 902 2196 1184 2121 1542 2033 
C 1690 1994 1939 1924 1984 1906 
C 2342 1767 2515 1444 2515 1140 
C 2515 742 2202 318 1645 318 
C 1453 318 890 318 358 819 
L 269 318 
C 794 -64 1363 -128 1651 -128 
C 2438 -128 3002 488 3002 1186 
C 3002 1440 2925 1763 2656 2061 
C 2394 2347 2163 2410 1638 2549 
C 1338 2626 1146 2677 986 2873 
C 877 3013 819 3146 819 3317 
C 819 3673 1126 4060 1690 4060 
C 1971 4060 2336 4002 2707 3660 
L 2797 4169 
z
" transform="scale(0.015625)"/>
       <path id="CMSS17-70" d="M 966 333 
C 1178 129 1466 -5 1773 -5 
C 2368 -5 2880 603 2880 1412 
C 2880 2159 2496 2816 1946 2816 
C 1626 2816 1242 2702 954 2472 
L 954 2765 
L 480 2765 
L 480 -1216 
L 966 -1216 
L 966 333 
z
M 966 2100 
C 1018 2176 1235 2415 1587 2415 
C 2035 2415 2394 1960 2394 1412 
C 2394 787 1958 384 1530 384 
C 1402 384 1267 415 1139 523 
C 966 674 966 768 966 857 
L 966 2100 
z
" transform="scale(0.015625)"/>
       <path id="CMSS17-61" d="M 2406 1791 
C 2406 2392 1978 2808 1402 2808 
C 1120 2808 813 2757 461 2553 
L 499 2135 
C 659 2248 934 2432 1395 2432 
C 1722 2432 1920 2180 1920 1782 
L 1920 1536 
C 896 1536 256 1238 256 726 
C 256 461 416 -64 947 -64 
C 1043 -64 1562 -64 1933 217 
L 1933 -19 
L 2406 -19 
L 2406 1791 
z
M 1920 816 
C 1920 701 1920 548 1728 434 
C 1562 325 1350 325 1261 325 
C 941 325 723 511 723 744 
C 723 1211 1722 1211 1920 1211 
L 1920 816 
z
" transform="scale(0.015625)"/>
       <path id="CMSS17-6e" d="M 2618 1877 
C 2618 2283 2522 2816 1798 2816 
C 1389 2816 1120 2606 941 2389 
L 941 2758 
L 474 2758 
L 474 0 
L 960 0 
L 960 1559 
C 960 1964 1114 2428 1549 2428 
C 2112 2428 2131 2048 2131 1829 
L 2131 0 
L 2618 0 
L 2618 1877 
z
" transform="scale(0.015625)"/>
       <path id="CMSS17-75" d="M 2618 2739 
L 2131 2739 
L 2131 972 
C 2131 498 1786 306 1421 306 
C 998 306 960 447 960 709 
L 960 2739 
L 474 2739 
L 474 678 
C 474 179 646 -64 1088 -64 
C 1306 -64 1798 -13 2144 306 
L 2144 0 
L 2618 0 
L 2618 2739 
z
" transform="scale(0.015625)"/>
       <path id="CMSS17-67" d="M 2848 2808 
C 2483 2808 2170 2738 1914 2617 
C 1702 2777 1485 2808 1338 2808 
C 781 2808 358 2349 358 1814 
C 358 1468 550 1207 563 1195 
C 448 1035 384 863 384 672 
C 384 448 474 289 544 200 
C 211 -3 166 -314 166 -435 
C 166 -898 749 -1280 1498 -1280 
C 2253 -1280 2835 -898 2835 -428 
C 2835 448 1856 448 1587 448 
L 1069 448 
C 973 448 717 448 717 791 
C 717 921 774 1004 781 1010 
C 877 940 1075 832 1338 832 
C 1869 832 2310 1278 2310 1827 
C 2310 2132 2170 2355 2112 2432 
L 2131 2432 
C 2150 2432 2419 2432 2515 2432 
C 2720 2432 2739 2429 2918 2419 
L 2848 2808 
z
M 1338 1182 
C 1120 1182 813 1315 813 1823 
C 813 2375 1165 2464 1331 2464 
C 1549 2464 1856 2331 1856 1823 
C 1856 1271 1504 1182 1338 1182 
z
M 1581 -10 
C 1734 -10 2381 -10 2381 -442 
C 2381 -714 1984 -929 1504 -929 
C 1018 -929 621 -720 621 -435 
C 621 -403 621 -10 1062 -10 
L 1581 -10 
z
" transform="scale(0.015625)"/>
       <path id="CMR17-5b" d="M 1504 -1600 
L 1504 -1377 
L 902 -1377 
L 902 4544 
L 1504 4544 
L 1504 4767 
L 678 4767 
L 678 -1600 
L 1504 -1600 
z
" transform="scale(0.015625)"/>
       <path id="CMMI12-56" d="M 3962 3640 
C 4179 3984 4378 4136 4704 4162 
C 4768 4168 4819 4168 4819 4282 
C 4819 4308 4806 4346 4749 4346 
C 4634 4346 4358 4346 4243 4346 
C 4058 4346 3866 4346 3686 4346 
C 3635 4346 3571 4346 3571 4226 
C 3571 4168 3629 4162 3654 4162 
C 3891 4143 3917 4029 3917 3952 
C 3917 3857 3827 3710 3821 3704 
L 1811 540 
L 1363 3969 
C 1363 4160 1696 4160 1766 4160 
C 1862 4160 1920 4160 1920 4282 
C 1920 4346 1850 4346 1830 4346 
C 1722 4346 1594 4346 1485 4346 
L 1126 4346 
C 659 4346 467 4346 461 4346 
C 422 4346 346 4346 346 4230 
C 346 4160 390 4160 493 4160 
C 819 4160 838 4102 858 3944 
L 1370 24 
C 1389 -109 1389 -128 1478 -128 
C 1555 -128 1587 -109 1651 -8 
L 3962 3640 
z
" transform="scale(0.015625)"/>
       <path id="CMR17-5d" d="M 915 4767 
L 90 4767 
L 90 4544 
L 691 4544 
L 691 -1377 
L 90 -1377 
L 90 -1600 
L 915 -1600 
L 915 4767 
z
" transform="scale(0.015625)"/>
      </defs>
      <use xlink:href="#CMSS17-53" transform="scale(0.996264)"/>
      <use xlink:href="#CMSS17-70" transform="translate(52.048516 0) scale(0.996264)"/>
      <use xlink:href="#CMSS17-61" transform="translate(100.253459 0) scale(0.996264)"/>
      <use xlink:href="#CMSS17-6e" transform="translate(145.17538 0) scale(0.996264)"/>
      <use xlink:href="#CMSS17-6e" transform="translate(193.380323 0) scale(0.996264)"/>
      <use xlink:href="#CMSS17-75" transform="translate(241.585266 0) scale(0.996264)"/>
      <use xlink:href="#CMSS17-6e" transform="translate(289.790209 0) scale(0.996264)"/>
      <use xlink:href="#CMSS17-67" transform="translate(337.995152 0) scale(0.996264)"/>
      <use xlink:href="#CMR17-5b" transform="translate(416.067889 0) scale(0.996264)"/>
      <use xlink:href="#CMMI12-56" transform="translate(440.938947 0) scale(0.996264)"/>
      <use xlink:href="#CMR17-5d" transform="translate(519.486268 0) scale(0.996264)"/>
     </g>
    </g>
   </g>
   <g id="line2d_13">
    <path d="M 172.8 318.771818 
L 172.819053 95.408182 
L 221.498187 95.408182 
L 221.606483 318.771818 
L 270.196364 318.771818 
L 270.214998 95.408182 
L 318.89455 95.408182 
L 319.00433 318.771818 
L 367.592727 318.771818 
L 367.611361 95.408182 
L 416.290914 95.408182 
L 416.398124 318.771818 
L 464.989091 318.771818 
L 465.007725 95.408182 
L 513.687278 95.408182 
L 513.795108 318.771818 
L 562.385455 318.771818 
L 562.404089 95.408182 
L 611.083641 95.408182 
L 611.191109 318.771818 
L 659.781818 318.771818 
L 659.781818 318.771818 
" clip-path="url(#p8cd911a1e4)" style="fill: none; stroke: #0000ff; stroke-width: 1.5; stroke-linecap: square"/>
   </g>
   <g id="line2d_14">
    <path d="M 172.8 151.250123 
L 172.800005 140.612488 
L 172.809666 151.340425 
L 172.819053 151.290945 
L 221.498187 262.926825 
L 221.498192 273.564463 
L 221.606483 262.683221 
L 270.196364 151.253534 
L 270.196369 140.615883 
L 270.205913 151.346746 
L 270.214998 151.291501 
L 318.89455 262.928346 
L 318.894555 273.565981 
L 319.00433 262.681337 
L 367.592727 151.255049 
L 367.592732 140.617401 
L 367.602276 151.34826 
L 367.611361 151.293016 
L 416.290914 262.929861 
L 416.290919 273.567498 
L 416.398124 262.688746 
L 464.989091 151.256566 
L 464.989096 140.618919 
L 464.99864 151.349778 
L 465.007725 151.294533 
L 513.687278 262.931375 
L 513.687282 273.56901 
L 513.795108 262.68884 
L 562.385455 151.258081 
L 562.385459 140.62043 
L 562.395004 151.351292 
L 562.404089 151.296048 
L 611.083641 262.932893 
L 611.083646 273.570527 
L 611.191109 262.691186 
L 659.781818 151.259599 
L 659.781818 151.259599 
" clip-path="url(#p8cd911a1e4)" style="fill: none; stroke: #ffa500; stroke-width: 1.5; stroke-linecap: square"/>
   </g>
   <g id="line2d_15">
    <path d="M 172.8 262.930909 
L 659.781818 262.930909 
L 659.781818 262.930909 
" clip-path="url(#p8cd911a1e4)" style="fill: none; stroke: #008000; stroke-width: 1.5; stroke-linecap: square"/>
   </g>
   <g id="line2d_16">
    <path d="M 172.8 318.712693 
L 220.98738 318.64723 
L 221.284439 318.417166 
L 221.454882 317.92854 
L 221.499135 316.968903 
L 221.507922 306.943836 
L 221.606483 318.04781 
L 221.728229 318.406282 
L 221.937631 318.604467 
L 222.288258 318.697981 
L 222.668104 318.711322 
L 318.393041 318.643576 
L 318.68036 318.416847 
L 318.850804 317.927156 
L 318.895422 317.018895 
L 318.904258 306.910492 
L 319.00433 318.056497 
L 319.126075 318.407534 
L 319.413395 318.641392 
L 319.851678 318.707434 
L 335.727286 318.712693 
L 415.867321 318.607749 
L 416.144901 318.293876 
L 416.271516 317.723219 
L 416.292398 316.316581 
L 416.300527 306.879519 
L 416.398124 318.015105 
L 416.529609 318.4172 
L 416.821798 318.645673 
L 417.269822 318.708086 
L 474.076258 318.712693 
L 513.176028 318.646678 
L 513.473087 318.414923 
L 513.643531 317.918715 
L 513.688151 316.975666 
L 513.696836 306.84738 
L 513.795108 318.01362 
L 513.926593 318.41714 
L 514.218782 318.645659 
L 514.666805 318.708086 
L 567.922524 318.712693 
L 610.572392 318.646445 
L 610.864581 318.421014 
L 611.030155 317.973127 
L 611.084291 317.142644 
L 611.093239 306.817624 
L 611.191109 317.996659 
L 611.317724 318.408399 
L 611.605043 318.641612 
L 612.043327 318.707454 
L 617.341689 318.712693 
L 659.781818 318.712693 
L 659.781818 318.712693 
" clip-path="url(#p8cd911a1e4)" style="fill: none; stroke: #ff0000; stroke-width: 1.5; stroke-linecap: square"/>
   </g>
   <g id="patch_3">
    <path d="M 172.8 329.94 
L 172.8 84.24 
" style="fill: none; stroke: #000000; stroke-width: 0.8; stroke-linejoin: miter; stroke-linecap: square"/>
   </g>
   <g id="patch_4">
    <path d="M 659.781818 329.94 
L 659.781818 84.24 
" style="fill: none; stroke: #000000; stroke-width: 0.8; stroke-linejoin: miter; stroke-linecap: square"/>
   </g>
   <g id="patch_5">
    <path d="M 172.8 329.94 
L 659.781818 329.94 
" style="fill: none; stroke: #000000; stroke-width: 0.8; stroke-linejoin: miter; stroke-linecap: square"/>
   </g>
   <g id="patch_6">
    <path d="M 172.8 84.24 
L 659.781818 84.24 
" style="fill: none; stroke: #000000; stroke-width: 0.8; stroke-linejoin: miter; stroke-linecap: square"/>
   </g>
   <g id="text_8">
    <!-- $0\%$ Einschaltdauer -->
    <g transform="translate(362.100667 78.24) scale(0.144 -0.144)">
     <defs>
      <path id="CMR17-25" d="M 4640 959 
C 4640 1698 4275 2240 3846 2240 
C 3411 2240 2970 1736 2970 959 
C 2970 183 3405 -320 3846 -320 
C 4275 -320 4640 215 4640 959 
z
M 3853 -218 
C 3686 -218 3270 -66 3270 959 
C 3270 1991 3686 2138 3853 2138 
C 4205 2138 4525 1634 4525 959 
C 4525 285 4205 -218 3853 -218 
z
M 4083 4577 
C 4128 4647 4134 4653 4134 4685 
C 4134 4761 4077 4800 4026 4800 
C 3962 4800 3936 4756 3891 4706 
C 3520 4190 3008 4134 2746 4134 
C 2106 4134 1715 4494 1594 4607 
C 1510 4682 1389 4800 1171 4800 
C 736 4800 294 4296 294 3519 
C 294 2743 730 2240 1171 2240 
C 1600 2240 1965 2778 1965 3527 
C 1965 3969 1830 4270 1811 4308 
C 2202 4064 2586 4032 2752 4032 
C 3162 4032 3456 4183 3616 4289 
L 3622 4283 
L 858 -84 
C 800 -174 800 -187 800 -206 
C 800 -276 858 -320 915 -320 
C 973 -320 992 -289 1037 -218 
L 4083 4577 
z
M 1178 2342 
C 1011 2342 595 2494 595 3519 
C 595 4551 1011 4698 1178 4698 
C 1530 4698 1850 4194 1850 3519 
C 1850 2845 1530 2342 1178 2342 
z
" transform="scale(0.015625)"/>
      <path id="CMSS17-45" d="M 1958 433 
C 1446 433 1216 433 1101 433 
L 1101 2107 
L 3085 2107 
L 3085 2496 
L 1101 2496 
L 1101 4009 
L 1926 4009 
C 2003 4009 2080 4009 2157 4009 
L 3251 4009 
L 3251 4416 
L 563 4416 
L 563 0 
L 3334 0 
L 3334 433 
L 1958 433 
z
" transform="scale(0.015625)"/>
      <path id="CMSS17-69" d="M 979 4183 
L 442 4183 
L 442 3648 
L 979 3648 
L 979 4183 
z
M 947 2739 
L 474 2739 
L 474 0 
L 947 0 
L 947 2739 
z
" transform="scale(0.015625)"/>
      <path id="CMSS17-73" d="M 2061 2627 
C 1683 2807 1389 2807 1197 2807 
C 742 2807 198 2648 198 2003 
C 198 1359 902 1218 1094 1179 
C 1389 1122 1715 1058 1715 740 
C 1715 337 1254 337 1171 337 
C 915 337 563 407 243 638 
L 166 210 
C 531 0 883 -64 1178 -64 
C 1965 -64 2163 416 2163 781 
C 2163 1094 1984 1305 1862 1401 
C 1651 1568 1574 1587 1050 1696 
C 960 1709 646 1779 646 2066 
C 646 2432 1050 2432 1139 2432 
C 1555 2432 1811 2303 1984 2208 
L 2061 2627 
z
" transform="scale(0.015625)"/>
      <path id="CMSS17-63" d="M 2464 2541 
C 2464 2585 2170 2714 2093 2739 
C 1882 2816 1613 2816 1542 2816 
C 710 2816 211 2093 211 1363 
C 211 595 768 -64 1517 -64 
C 1946 -64 2253 76 2502 242 
L 2464 664 
C 2189 453 1869 337 1523 337 
C 1024 337 698 774 698 1369 
C 698 1831 909 2414 1549 2414 
C 1901 2414 2099 2343 2394 2145 
L 2464 2541 
z
" transform="scale(0.015625)"/>
      <path id="CMSS17-68" d="M 2618 1891 
C 2618 2292 2522 2820 1798 2820 
C 1395 2820 1133 2623 947 2407 
L 947 4448 
L 474 4448 
L 474 32 
L 960 32 
L 960 1573 
C 960 1973 1114 2432 1549 2432 
C 2112 2432 2131 2056 2131 1839 
L 2131 32 
L 2618 32 
L 2618 1891 
z
" transform="scale(0.015625)"/>
      <path id="CMSS17-6c" d="M 947 4416 
L 474 4416 
L 474 0 
L 947 0 
L 947 4416 
z
" transform="scale(0.015625)"/>
      <path id="CMSS17-74" d="M 1069 2368 
L 1901 2368 
L 1901 2737 
L 1069 2737 
L 1069 3520 
L 614 3520 
L 614 2737 
L 109 2737 
L 109 2368 
L 602 2368 
L 602 749 
C 602 384 685 -64 1107 -64 
C 1427 -64 1722 25 2003 172 
L 1901 548 
C 1747 414 1562 337 1363 337 
C 1082 337 1069 696 1069 856 
L 1069 2368 
z
" transform="scale(0.015625)"/>
      <path id="CMSS17-64" d="M 2611 4416 
L 2138 4416 
L 2138 2438 
C 1939 2603 1613 2756 1254 2756 
C 672 2756 211 2131 211 1347 
C 211 562 666 -64 1235 -64 
C 1677 -64 1971 172 2125 306 
L 2125 -13 
L 2611 -13 
L 2611 4416 
z
M 2125 836 
C 2125 747 2125 653 1926 482 
C 1798 375 1645 325 1498 325 
C 1152 325 698 576 698 1340 
C 698 2134 1210 2368 1562 2368 
C 1798 2368 1990 2254 2125 2065 
L 2125 836 
z
" transform="scale(0.015625)"/>
      <path id="CMSS17-65" d="M 2502 1377 
C 2502 1590 2490 2003 2285 2345 
C 2061 2713 1696 2816 1421 2816 
C 755 2816 192 2188 192 1375 
C 192 582 774 -64 1510 -64 
C 1798 -64 2150 19 2470 248 
C 2470 274 2458 414 2451 420 
C 2451 433 2432 630 2432 656 
C 2125 407 1773 325 1517 325 
C 1107 325 666 667 646 1377 
L 2502 1377 
z
M 698 1728 
C 781 2084 1062 2421 1421 2421 
C 1517 2421 1965 2421 2080 1728 
L 698 1728 
z
" transform="scale(0.015625)"/>
      <path id="CMSS17-72" d="M 954 1363 
C 954 1965 1395 2368 1958 2368 
L 1958 2789 
C 1549 2789 1165 2585 934 2253 
L 934 2758 
L 480 2758 
L 480 0 
L 954 0 
L 954 1363 
z
" transform="scale(0.015625)"/>
     </defs>
     <use xlink:href="#CMR17-30" transform="scale(0.996264)"/>
     <use xlink:href="#CMR17-25" transform="translate(45.690477 0) scale(0.996264)"/>
     <use xlink:href="#CMSS17-45" transform="translate(153.83918 0) scale(0.996264)"/>
     <use xlink:href="#CMSS17-69" transform="translate(209.731193 0) scale(0.996264)"/>
     <use xlink:href="#CMSS17-6e" transform="translate(231.911916 0) scale(0.996264)"/>
     <use xlink:href="#CMSS17-73" transform="translate(280.116859 0) scale(0.996264)"/>
     <use xlink:href="#CMSS17-63" transform="translate(316.030401 0) scale(0.996264)"/>
     <use xlink:href="#CMSS17-68" transform="translate(357.669223 0) scale(0.996264)"/>
     <use xlink:href="#CMSS17-61" transform="translate(405.874166 0) scale(0.996264)"/>
     <use xlink:href="#CMSS17-6c" transform="translate(450.796087 0) scale(0.996264)"/>
     <use xlink:href="#CMSS17-74" transform="translate(472.97681 0) scale(0.996264)"/>
     <use xlink:href="#CMSS17-64" transform="translate(506.808377 0) scale(0.996264)"/>
     <use xlink:href="#CMSS17-61" transform="translate(555.01332 0) scale(0.996264)"/>
     <use xlink:href="#CMSS17-75" transform="translate(599.93524 0) scale(0.996264)"/>
     <use xlink:href="#CMSS17-65" transform="translate(648.140184 0) scale(0.996264)"/>
     <use xlink:href="#CMSS17-72" transform="translate(689.779006 0) scale(0.996264)"/>
    </g>
   </g>
  </g>
  <g id="axes_2">
   <g id="patch_7">
    <path d="M 757.178182 329.94 
L 1244.16 329.94 
L 1244.16 84.24 
L 757.178182 84.24 
z
" style="fill: #ffffff"/>
   </g>
   <g id="matplotlib.axis_3">
    <g id="xtick_2">
     <g id="line2d_17">
      <path d="M 757.178182 329.94 
L 757.178182 84.24 
" clip-path="url(#pc4c878a487)" style="fill: none; stroke: #b0b0b0; stroke-width: 0.8; stroke-linecap: square"/>
     </g>
     <g id="line2d_18">
      <g>
       <use xlink:href="#m63f2068790" x="757.178182" y="329.94" style="stroke: #000000; stroke-width: 0.8"/>
      </g>
     </g>
     <g id="text_9">
      <!-- $\mathdefault{0}$ -->
      <g transform="translate(754.251687 345.24218) scale(0.12 -0.12)">
       <use xlink:href="#CMR17-30" transform="scale(0.996264)"/>
      </g>
     </g>
    </g>
   </g>
   <g id="matplotlib.axis_4">
    <g id="ytick_6">
     <g id="line2d_19">
      <path d="M 757.178182 318.771818 
L 1244.16 318.771818 
" clip-path="url(#pc4c878a487)" style="fill: none; stroke: #b0b0b0; stroke-width: 0.8; stroke-linecap: square"/>
     </g>
     <g id="line2d_20">
      <g>
       <use xlink:href="#m020bc8556d" x="757.178182" y="318.771818" style="stroke: #000000; stroke-width: 0.8"/>
      </g>
     </g>
     <g id="text_10">
      <!-- $\mathdefault{−8}$ -->
      <g transform="translate(735.026702 322.922908) scale(0.12 -0.12)">
       <use xlink:href="#CMSY10-0" transform="scale(0.996264)"/>
       <use xlink:href="#CMR17-38" transform="translate(77.487468 0) scale(0.996264)"/>
      </g>
     </g>
    </g>
    <g id="ytick_7">
     <g id="line2d_21">
      <path d="M 757.178182 262.930909 
L 1244.16 262.930909 
" clip-path="url(#pc4c878a487)" style="fill: none; stroke: #b0b0b0; stroke-width: 0.8; stroke-linecap: square"/>
     </g>
     <g id="line2d_22">
      <g>
       <use xlink:href="#m020bc8556d" x="757.178182" y="262.930909" style="stroke: #000000; stroke-width: 0.8"/>
      </g>
     </g>
     <g id="text_11">
      <!-- $\mathdefault{−4}$ -->
      <g transform="translate(735.026702 267.081999) scale(0.12 -0.12)">
       <use xlink:href="#CMSY10-0" transform="scale(0.996264)"/>
       <use xlink:href="#CMR17-34" transform="translate(77.487468 0) scale(0.996264)"/>
      </g>
     </g>
    </g>
    <g id="ytick_8">
     <g id="line2d_23">
      <path d="M 757.178182 207.09 
L 1244.16 207.09 
" clip-path="url(#pc4c878a487)" style="fill: none; stroke: #b0b0b0; stroke-width: 0.8; stroke-linecap: square"/>
     </g>
     <g id="line2d_24">
      <g>
       <use xlink:href="#m020bc8556d" x="757.178182" y="207.09" style="stroke: #000000; stroke-width: 0.8"/>
      </g>
     </g>
     <g id="text_12">
      <!-- $\mathdefault{0}$ -->
      <g transform="translate(744.325192 211.24109) scale(0.12 -0.12)">
       <use xlink:href="#CMR17-30" transform="scale(0.996264)"/>
      </g>
     </g>
    </g>
    <g id="ytick_9">
     <g id="line2d_25">
      <path d="M 757.178182 151.249091 
L 1244.16 151.249091 
" clip-path="url(#pc4c878a487)" style="fill: none; stroke: #b0b0b0; stroke-width: 0.8; stroke-linecap: square"/>
     </g>
     <g id="line2d_26">
      <g>
       <use xlink:href="#m020bc8556d" x="757.178182" y="151.249091" style="stroke: #000000; stroke-width: 0.8"/>
      </g>
     </g>
     <g id="text_13">
      <!-- $\mathdefault{4}$ -->
      <g transform="translate(744.325192 155.400181) scale(0.12 -0.12)">
       <use xlink:href="#CMR17-34" transform="scale(0.996264)"/>
      </g>
     </g>
    </g>
    <g id="ytick_10">
     <g id="line2d_27">
      <path d="M 757.178182 95.408182 
L 1244.16 95.408182 
" clip-path="url(#pc4c878a487)" style="fill: none; stroke: #b0b0b0; stroke-width: 0.8; stroke-linecap: square"/>
     </g>
     <g id="line2d_28">
      <g>
       <use xlink:href="#m020bc8556d" x="757.178182" y="95.408182" style="stroke: #000000; stroke-width: 0.8"/>
      </g>
     </g>
     <g id="text_14">
      <!-- $\mathdefault{8}$ -->
      <g transform="translate(744.325192 99.559272) scale(0.12 -0.12)">
       <use xlink:href="#CMR17-38" transform="scale(0.996264)"/>
      </g>
     </g>
    </g>
   </g>
   <g id="line2d_29">
    <path d="M 757.178182 318.771818 
L 757.197235 95.408182 
L 805.876369 95.408182 
L 805.895008 318.771818 
L 854.574545 318.771818 
L 854.593531 95.408182 
L 903.272732 95.408182 
L 903.291423 318.771818 
L 951.970909 318.771818 
L 951.989543 95.408182 
L 1000.669096 95.408182 
L 1000.690581 318.771818 
L 1049.367273 318.771818 
L 1049.385907 95.408182 
L 1098.065459 95.408182 
L 1098.086389 318.771818 
L 1146.763636 318.771818 
L 1146.77964 95.408182 
L 1195.461823 95.408182 
L 1195.480513 318.771818 
L 1244.16 318.771818 
L 1244.16 318.771818 
" clip-path="url(#pc4c878a487)" style="fill: none; stroke: #0000ff; stroke-width: 1.5; stroke-linecap: square"/>
   </g>
   <g id="line2d_30">
    <path d="M 757.178182 151.250123 
L 757.178187 140.612488 
L 757.187848 151.340425 
L 757.197235 151.290945 
L 805.876369 262.926825 
L 805.876373 273.564476 
L 805.885981 262.831437 
L 805.895008 262.888848 
L 854.574546 151.037346 
L 854.57455 140.615883 
L 854.584214 151.342615 
L 854.593531 151.29231 
L 903.272732 262.928343 
L 903.272737 273.565987 
L 903.282281 262.834862 
L 903.291423 262.890246 
L 951.970909 151.255049 
L 951.970914 140.617401 
L 951.980458 151.34826 
L 951.989543 151.293016 
L 1000.669096 262.929861 
L 1000.669101 273.567505 
L 1000.678736 262.840923 
L 1000.690581 262.88533 
L 1049.367273 151.256563 
L 1049.367278 140.618912 
L 1049.376822 151.349778 
L 1049.385907 151.29453 
L 1098.065459 262.931375 
L 1098.065464 273.569023 
L 1098.075076 262.835924 
L 1098.086389 262.888123 
L 1146.763636 151.258081 
L 1146.763641 140.62043 
L 1146.773186 151.351292 
L 1146.77964 151.290123 
L 1195.461823 262.932893 
L 1195.461828 273.570541 
L 1195.47137 262.839538 
L 1195.480513 262.894796 
L 1244.16 151.259599 
L 1244.16 151.259599 
" clip-path="url(#pc4c878a487)" style="fill: none; stroke: #ffa500; stroke-width: 1.5; stroke-linecap: square"/>
   </g>
   <g id="line2d_31">
    <path d="M 757.178182 235.010455 
L 1244.16 235.010455 
L 1244.16 235.010455 
" clip-path="url(#pc4c878a487)" style="fill: none; stroke: #008000; stroke-width: 1.5; stroke-linecap: square"/>
   </g>
   <g id="line2d_32">
    <path d="M 757.178182 318.709624 
L 793.220235 318.633477 
L 793.497815 318.400904 
L 793.663389 317.896967 
L 793.721826 316.82521 
L 793.790004 306.661317 
L 793.931229 245.375026 
L 794.131377 116.534825 
L 794.530703 116.421254 
L 816.243988 116.409379 
L 817.403004 116.439667 
L 817.748761 116.601286 
L 818.021471 117.289522 
L 818.084779 119.22255 
L 818.182175 140.49911 
L 818.366546 248.100537 
L 818.53212 318.623186 
L 818.941184 318.701756 
L 831.12547 318.709624 
L 890.679789 318.60289 
L 890.957368 318.282314 
L 891.083984 317.673966 
L 891.122942 316.506232 
L 891.210599 299.712823 
L 891.395652 197.559627 
L 891.521439 116.54714 
L 891.915894 116.422027 
L 914.731219 116.429602 
L 914.95036 116.479887 
L 915.315597 116.856114 
L 915.442212 117.550686 
L 915.510389 122.853424 
L 915.646744 169.644794 
L 915.920193 318.618906 
L 916.314649 318.700518 
L 924.84657 318.709624 
L 988.00278 318.637032 
L 988.294969 318.391984 
L 988.455673 317.890936 
L 988.514111 316.778819 
L 988.582289 306.443967 
L 988.742993 232.341312 
L 988.938613 116.516712 
L 989.152885 116.441724 
L 994.139579 116.408081 
L 1012.137807 116.43078 
L 1012.493304 116.559695 
L 1012.804973 117.212603 
L 1012.87802 119.152408 
L 1012.975416 140.220046 
L 1013.153493 242.399067 
L 1013.309327 318.614879 
L 1013.557688 318.686365 
L 1013.859617 318.70601 
L 1085.2287 318.681925 
L 1085.632895 318.470394 
L 1085.822818 318.049061 
L 1085.900735 317.168406 
L 1085.949433 312.370423 
L 1086.080919 266.656189 
L 1086.34515 116.50945 
L 1086.768824 116.418112 
L 1102.423712 116.407348 
L 1109.553126 116.433217 
L 1109.908623 116.57398 
L 1110.205682 117.237732 
L 1110.273859 119.05279 
L 1110.371256 139.813651 
L 1110.542833 236.349537 
L 1110.723016 318.623106 
L 1111.132081 318.701749 
L 1122.288834 318.709624 
L 1182.834466 318.619565 
L 1183.136395 318.300127 
L 1183.26788 317.710878 
L 1183.311708 316.391529 
L 1183.394495 300.70448 
L 1183.574679 203.732471 
L 1183.729943 116.516766 
L 1184.143878 116.419271 
L 1206.136271 116.409605 
L 1207.022577 116.445698 
L 1207.368335 116.633126 
L 1207.611825 117.308187 
L 1207.675133 119.427918 
L 1207.772529 141.286338 
L 1207.955328 248.65423 
L 1208.111162 318.618853 
L 1208.505618 318.700511 
L 1216.034357 318.709624 
L 1244.16 318.709624 
L 1244.16 318.709624 
" clip-path="url(#pc4c878a487)" style="fill: none; stroke: #ff0000; stroke-width: 1.5; stroke-linecap: square"/>
   </g>
   <g id="patch_8">
    <path d="M 757.178182 329.94 
L 757.178182 84.24 
" style="fill: none; stroke: #000000; stroke-width: 0.8; stroke-linejoin: miter; stroke-linecap: square"/>
   </g>
   <g id="patch_9">
    <path d="M 1244.16 329.94 
L 1244.16 84.24 
" style="fill: none; stroke: #000000; stroke-width: 0.8; stroke-linejoin: miter; stroke-linecap: square"/>
   </g>
   <g id="patch_10">
    <path d="M 757.178182 329.94 
L 1244.16 329.94 
" style="fill: none; stroke: #000000; stroke-width: 0.8; stroke-linejoin: miter; stroke-linecap: square"/>
   </g>
   <g id="patch_11">
    <path d="M 757.178182 84.24 
L 1244.16 84.24 
" style="fill: none; stroke: #000000; stroke-width: 0.8; stroke-linejoin: miter; stroke-linecap: square"/>
   </g>
   <g id="text_15">
    <!-- $25\%$ Einschaltdauer -->
    <g transform="translate(942.967062 78.24) scale(0.144 -0.144)">
     <defs>
      <path id="CMR17-32" d="M 2669 989 
L 2554 989 
C 2490 536 2438 459 2413 420 
C 2381 369 1920 369 1830 369 
L 602 369 
C 832 619 1280 1072 1824 1597 
C 2214 1967 2669 2402 2669 3035 
C 2669 3790 2067 4224 1395 4224 
C 691 4224 262 3604 262 3030 
C 262 2780 448 2748 525 2748 
C 589 2748 781 2787 781 3010 
C 781 3207 614 3264 525 3264 
C 486 3264 448 3258 422 3245 
C 544 3790 915 4058 1306 4058 
C 1862 4058 2227 3617 2227 3035 
C 2227 2479 1901 2000 1536 1584 
L 262 146 
L 262 0 
L 2515 0 
L 2669 989 
z
" transform="scale(0.015625)"/>
      <path id="CMR17-35" d="M 730 3692 
C 794 3666 1056 3584 1325 3584 
C 1920 3584 2246 3911 2432 4100 
C 2432 4157 2432 4192 2394 4192 
C 2387 4192 2374 4192 2323 4163 
C 2099 4058 1837 3973 1517 3973 
C 1325 3973 1037 3999 723 4139 
C 653 4171 640 4171 634 4171 
C 602 4171 595 4164 595 4037 
L 595 2203 
C 595 2089 595 2057 659 2057 
C 691 2057 704 2070 736 2114 
C 941 2401 1222 2522 1542 2522 
C 1766 2522 2246 2382 2246 1289 
C 2246 1085 2246 715 2054 421 
C 1894 159 1645 25 1370 25 
C 947 25 518 320 403 814 
C 429 807 480 795 506 795 
C 589 795 749 840 749 1038 
C 749 1210 627 1280 506 1280 
C 358 1280 262 1190 262 1011 
C 262 454 704 -128 1382 -128 
C 2042 -128 2669 440 2669 1264 
C 2669 2030 2170 2624 1549 2624 
C 1222 2624 947 2503 730 2274 
L 730 3692 
z
" transform="scale(0.015625)"/>
     </defs>
     <use xlink:href="#CMR17-32" transform="scale(0.996264)"/>
     <use xlink:href="#CMR17-35" transform="translate(45.690477 0) scale(0.996264)"/>
     <use xlink:href="#CMR17-25" transform="translate(91.380954 0) scale(0.996264)"/>
     <use xlink:href="#CMSS17-45" transform="translate(199.529657 0) scale(0.996264)"/>
     <use xlink:href="#CMSS17-69" transform="translate(255.42167 0) scale(0.996264)"/>
     <use xlink:href="#CMSS17-6e" transform="translate(277.602393 0) scale(0.996264)"/>
     <use xlink:href="#CMSS17-73" transform="translate(325.807336 0) scale(0.996264)"/>
     <use xlink:href="#CMSS17-63" transform="translate(361.720878 0) scale(0.996264)"/>
     <use xlink:href="#CMSS17-68" transform="translate(403.3597 0) scale(0.996264)"/>
     <use xlink:href="#CMSS17-61" transform="translate(451.564643 0) scale(0.996264)"/>
     <use xlink:href="#CMSS17-6c" transform="translate(496.486564 0) scale(0.996264)"/>
     <use xlink:href="#CMSS17-74" transform="translate(518.667287 0) scale(0.996264)"/>
     <use xlink:href="#CMSS17-64" transform="translate(552.498854 0) scale(0.996264)"/>
     <use xlink:href="#CMSS17-61" transform="translate(600.703797 0) scale(0.996264)"/>
     <use xlink:href="#CMSS17-75" transform="translate(645.625718 0) scale(0.996264)"/>
     <use xlink:href="#CMSS17-65" transform="translate(693.830661 0) scale(0.996264)"/>
     <use xlink:href="#CMSS17-72" transform="translate(735.469483 0) scale(0.996264)"/>
    </g>
   </g>
   <g id="legend_1">
    <g id="patch_12">
     <path d="M 1105.360288 160.738383 
L 1235.76 160.738383 
Q 1238.16 160.738383 1238.16 158.338383 
L 1238.16 92.64 
Q 1238.16 90.24 1235.76 90.24 
L 1105.360288 90.24 
Q 1102.960288 90.24 1102.960288 92.64 
L 1102.960288 158.338383 
Q 1102.960288 160.738383 1105.360288 160.738383 
z
" style="fill: #ffffff; opacity: 0.8; stroke: #cccccc; stroke-linejoin: miter"/>
    </g>
    <g id="line2d_33">
     <path d="M 1107.760288 99.24 
L 1119.760288 99.24 
L 1131.760288 99.24 
" style="fill: none; stroke: #0000ff; stroke-width: 1.5; stroke-linecap: square"/>
    </g>
    <g id="text_16">
     <!-- Rechteckspannung -->
     <g transform="translate(1141.360288 103.44) scale(0.12 -0.12)">
      <defs>
       <path id="CMSS17-52" d="M 2522 2109 
L 2534 2115 
C 3533 2459 3539 3147 3539 3268 
C 3539 3873 2925 4453 2003 4453 
L 570 4453 
L 570 32 
L 1094 32 
L 1094 2048 
L 2035 2048 
L 3168 32 
L 3706 32 
L 2522 2109 
z
M 1094 2437 
L 1094 4096 
L 1933 4096 
C 2746 4096 3034 3637 3034 3267 
C 3034 2922 2778 2437 1933 2437 
L 1094 2437 
z
" transform="scale(0.015625)"/>
       <path id="CMSS17-6b" d="M 1696 1688 
L 2688 2739 
L 2074 2739 
L 954 1554 
L 954 4416 
L 480 4416 
L 480 0 
L 947 0 
L 947 892 
L 1376 1344 
L 2278 0 
L 2822 0 
L 1696 1688 
z
" transform="scale(0.015625)"/>
      </defs>
      <use xlink:href="#CMSS17-52" transform="scale(0.996264)"/>
      <use xlink:href="#CMSS17-65" transform="translate(60.416155 0) scale(0.996264)"/>
      <use xlink:href="#CMSS17-63" transform="translate(102.054977 0) scale(0.996264)"/>
      <use xlink:href="#CMSS17-68" transform="translate(143.693799 0) scale(0.996264)"/>
      <use xlink:href="#CMSS17-74" transform="translate(191.898742 0) scale(0.996264)"/>
      <use xlink:href="#CMSS17-65" transform="translate(225.730309 0) scale(0.996264)"/>
      <use xlink:href="#CMSS17-63" transform="translate(267.369131 0) scale(0.996264)"/>
      <use xlink:href="#CMSS17-6b" transform="translate(309.007953 0) scale(0.996264)"/>
      <use xlink:href="#CMSS17-73" transform="translate(354.610442 0) scale(0.996264)"/>
      <use xlink:href="#CMSS17-70" transform="translate(390.523984 0) scale(0.996264)"/>
      <use xlink:href="#CMSS17-61" transform="translate(438.728927 0) scale(0.996264)"/>
      <use xlink:href="#CMSS17-6e" transform="translate(483.650848 0) scale(0.996264)"/>
      <use xlink:href="#CMSS17-6e" transform="translate(531.855791 0) scale(0.996264)"/>
      <use xlink:href="#CMSS17-75" transform="translate(580.060734 0) scale(0.996264)"/>
      <use xlink:href="#CMSS17-6e" transform="translate(628.265677 0) scale(0.996264)"/>
      <use xlink:href="#CMSS17-67" transform="translate(676.47062 0) scale(0.996264)"/>
     </g>
    </g>
    <g id="line2d_34">
     <path d="M 1107.760288 115.964596 
L 1119.760288 115.964596 
L 1131.760288 115.964596 
" style="fill: none; stroke: #ffa500; stroke-width: 1.5; stroke-linecap: square"/>
    </g>
    <g id="text_17">
     <!-- Dreieckspannung -->
     <g transform="translate(1141.360288 120.164596) scale(0.12 -0.12)">
      <defs>
       <path id="CMSS17-44" d="M 570 4416 
L 570 0 
L 2144 0 
C 3194 0 4000 980 4000 2170 
C 4000 3398 3194 4416 2144 4416 
L 570 4416 
z
M 1094 357 
L 1094 4059 
L 2003 4059 
C 2861 4059 3475 3277 3475 2170 
C 3475 1107 2867 357 2003 357 
L 1094 357 
z
" transform="scale(0.015625)"/>
      </defs>
      <use xlink:href="#CMSS17-44" transform="scale(0.996264)"/>
      <use xlink:href="#CMSS17-72" transform="translate(67.542842 0) scale(0.996264)"/>
      <use xlink:href="#CMSS17-65" transform="translate(99.452614 0) scale(0.996264)"/>
      <use xlink:href="#CMSS17-69" transform="translate(141.091436 0) scale(0.996264)"/>
      <use xlink:href="#CMSS17-65" transform="translate(163.272159 0) scale(0.996264)"/>
      <use xlink:href="#CMSS17-63" transform="translate(204.910981 0) scale(0.996264)"/>
      <use xlink:href="#CMSS17-6b" transform="translate(246.549803 0) scale(0.996264)"/>
      <use xlink:href="#CMSS17-73" transform="translate(292.152293 0) scale(0.996264)"/>
      <use xlink:href="#CMSS17-70" transform="translate(328.065835 0) scale(0.996264)"/>
      <use xlink:href="#CMSS17-61" transform="translate(376.270778 0) scale(0.996264)"/>
      <use xlink:href="#CMSS17-6e" transform="translate(421.192698 0) scale(0.996264)"/>
      <use xlink:href="#CMSS17-6e" transform="translate(469.397642 0) scale(0.996264)"/>
      <use xlink:href="#CMSS17-75" transform="translate(517.602585 0) scale(0.996264)"/>
      <use xlink:href="#CMSS17-6e" transform="translate(565.807528 0) scale(0.996264)"/>
      <use xlink:href="#CMSS17-67" transform="translate(614.012471 0) scale(0.996264)"/>
     </g>
    </g>
    <g id="line2d_35">
     <path d="M 1107.760288 132.689192 
L 1119.760288 132.689192 
L 1131.760288 132.689192 
" style="fill: none; stroke: #008000; stroke-width: 1.5; stroke-linecap: square"/>
    </g>
    <g id="text_18">
     <!-- Pegelspannung -->
     <g transform="translate(1141.360288 136.889192) scale(0.12 -0.12)">
      <defs>
       <path id="CMSS17-50" d="M 2106 1856 
C 2874 1856 3501 2453 3501 3158 
C 3501 3850 2899 4453 2067 4453 
L 570 4453 
L 570 0 
L 1107 0 
L 1107 1856 
L 2106 1856 
z
M 1926 4096 
C 2669 4096 2995 3627 2995 3157 
C 2995 2720 2694 2226 1926 2226 
L 1094 2226 
L 1094 4096 
L 1926 4096 
z
" transform="scale(0.015625)"/>
      </defs>
      <use xlink:href="#CMSS17-50" transform="scale(0.996264)"/>
      <use xlink:href="#CMSS17-65" transform="translate(57.133132 0) scale(0.996264)"/>
      <use xlink:href="#CMSS17-67" transform="translate(98.771954 0) scale(0.996264)"/>
      <use xlink:href="#CMSS17-65" transform="translate(145.615578 0) scale(0.996264)"/>
      <use xlink:href="#CMSS17-6c" transform="translate(187.2544 0) scale(0.996264)"/>
      <use xlink:href="#CMSS17-73" transform="translate(209.435123 0) scale(0.996264)"/>
      <use xlink:href="#CMSS17-70" transform="translate(245.348665 0) scale(0.996264)"/>
      <use xlink:href="#CMSS17-61" transform="translate(293.553608 0) scale(0.996264)"/>
      <use xlink:href="#CMSS17-6e" transform="translate(338.475529 0) scale(0.996264)"/>
      <use xlink:href="#CMSS17-6e" transform="translate(386.680472 0) scale(0.996264)"/>
      <use xlink:href="#CMSS17-75" transform="translate(434.885415 0) scale(0.996264)"/>
      <use xlink:href="#CMSS17-6e" transform="translate(483.090358 0) scale(0.996264)"/>
      <use xlink:href="#CMSS17-67" transform="translate(531.295301 0) scale(0.996264)"/>
     </g>
    </g>
    <g id="line2d_36">
     <path d="M 1107.760288 149.413787 
L 1119.760288 149.413787 
L 1131.760288 149.413787 
" style="fill: none; stroke: #ff0000; stroke-width: 1.5; stroke-linecap: square"/>
    </g>
    <g id="text_19">
     <!-- Ausgangsspannung -->
     <g transform="translate(1141.360288 153.613787) scale(0.12 -0.12)">
      <defs>
       <path id="CMSS17-41" d="M 2272 4416 
L 1722 4416 
L 166 0 
L 653 0 
L 1101 1280 
L 2816 1280 
L 3270 0 
L 3827 0 
L 2272 4416 
z
M 2694 1637 
L 1222 1637 
C 1530 2528 1914 3638 1958 3925 
L 1965 3925 
C 2010 3663 2138 3281 2246 2956 
L 2694 1637 
z
" transform="scale(0.015625)"/>
      </defs>
      <use xlink:href="#CMSS17-41" transform="scale(0.996264)"/>
      <use xlink:href="#CMSS17-75" transform="translate(62.217855 0) scale(0.996264)"/>
      <use xlink:href="#CMSS17-73" transform="translate(110.422798 0) scale(0.996264)"/>
      <use xlink:href="#CMSS17-67" transform="translate(146.33634 0) scale(0.996264)"/>
      <use xlink:href="#CMSS17-61" transform="translate(193.179964 0) scale(0.996264)"/>
      <use xlink:href="#CMSS17-6e" transform="translate(238.101884 0) scale(0.996264)"/>
      <use xlink:href="#CMSS17-67" transform="translate(286.306827 0) scale(0.996264)"/>
      <use xlink:href="#CMSS17-73" transform="translate(333.150451 0) scale(0.996264)"/>
      <use xlink:href="#CMSS17-73" transform="translate(369.063993 0) scale(0.996264)"/>
      <use xlink:href="#CMSS17-70" transform="translate(404.977535 0) scale(0.996264)"/>
      <use xlink:href="#CMSS17-61" transform="translate(453.182478 0) scale(0.996264)"/>
      <use xlink:href="#CMSS17-6e" transform="translate(498.104399 0) scale(0.996264)"/>
      <use xlink:href="#CMSS17-6e" transform="translate(546.309342 0) scale(0.996264)"/>
      <use xlink:href="#CMSS17-75" transform="translate(594.514285 0) scale(0.996264)"/>
      <use xlink:href="#CMSS17-6e" transform="translate(642.719228 0) scale(0.996264)"/>
      <use xlink:href="#CMSS17-67" transform="translate(690.924171 0) scale(0.996264)"/>
     </g>
    </g>
   </g>
  </g>
  <g id="axes_3">
   <g id="patch_13">
    <path d="M 172.8 624.78 
L 659.781818 624.78 
L 659.781818 379.08 
L 172.8 379.08 
z
" style="fill: #ffffff"/>
   </g>
   <g id="matplotlib.axis_5">
    <g id="xtick_3">
     <g id="line2d_37">
      <path d="M 172.8 624.78 
L 172.8 379.08 
" clip-path="url(#p5d9b4b5958)" style="fill: none; stroke: #b0b0b0; stroke-width: 0.8; stroke-linecap: square"/>
     </g>
     <g id="line2d_38">
      <g>
       <use xlink:href="#m63f2068790" x="172.8" y="624.78" style="stroke: #000000; stroke-width: 0.8"/>
      </g>
     </g>
     <g id="text_20">
      <!-- $\mathdefault{0}$ -->
      <g transform="translate(169.873505 640.08218) scale(0.12 -0.12)">
       <use xlink:href="#CMR17-30" transform="scale(0.996264)"/>
      </g>
     </g>
    </g>
    <g id="text_21">
     <!-- Zeit $[ ms ]$ -->
     <g transform="translate(393.543122 655.373152) scale(0.12 -0.12)">
      <defs>
       <path id="CMSS17-5a" d="M 3341 4155 
L 3341 4416 
L 416 4416 
L 416 4015 
L 1613 4015 
C 1690 4015 1766 4015 1843 4015 
L 2662 4015 
L 333 274 
L 333 0 
L 3373 0 
L 3373 414 
L 2803 414 
C 2272 414 1734 414 1203 414 
L 1011 414 
L 3341 4155 
z
" transform="scale(0.015625)"/>
       <path id="CMMI12-6d" d="M 1318 1871 
C 1331 1910 1491 2229 1728 2433 
C 1894 2586 2112 2689 2362 2689 
C 2618 2689 2707 2497 2707 2242 
C 2707 2203 2707 2076 2630 1775 
L 2470 1118 
C 2419 926 2298 453 2285 383 
C 2259 287 2221 121 2221 96 
C 2221 6 2291 -64 2387 -64 
C 2579 -64 2611 83 2669 313 
L 3053 1839 
C 3066 1890 3398 2689 4102 2689 
C 4358 2689 4448 2497 4448 2242 
C 4448 1884 4198 1188 4058 805 
C 4000 651 3968 568 3968 453 
C 3968 166 4166 -64 4474 -64 
C 5069 -64 5293 875 5293 913 
C 5293 945 5267 971 5229 971 
C 5171 971 5165 952 5133 843 
C 4986 332 4749 64 4493 64 
C 4429 64 4326 64 4326 269 
C 4326 436 4403 640 4429 710 
C 4544 1018 4832 1773 4832 2145 
C 4832 2528 4608 2816 4122 2816 
C 3693 2816 3347 2574 3091 2197 
C 3072 2542 2861 2816 2381 2816 
C 1811 2816 1510 2415 1395 2255 
C 1376 2618 1114 2816 832 2816 
C 646 2816 499 2727 378 2484 
C 262 2254 173 1865 173 1839 
C 173 1814 198 1782 243 1782 
C 294 1782 301 1788 339 1935 
C 435 2312 557 2689 813 2689 
C 960 2689 1011 2586 1011 2395 
C 1011 2254 947 2005 902 1807 
L 723 1118 
C 698 996 627 709 595 594 
C 550 428 480 128 480 96 
C 480 6 550 -64 646 -64 
C 723 -64 813 -26 864 70 
C 877 102 934 326 966 453 
L 1107 1028 
L 1318 1871 
z
" transform="scale(0.015625)"/>
       <path id="CMMI12-73" d="M 1459 1280 
C 1568 1261 1741 1223 1779 1216 
C 1862 1192 2150 1090 2150 783 
C 2150 586 1971 70 1229 70 
C 1094 70 614 70 486 436 
C 742 404 870 603 870 745 
C 870 880 781 950 653 950 
C 512 950 326 841 326 552 
C 326 173 710 -64 1222 -64 
C 2195 -64 2483 651 2483 984 
C 2483 1079 2483 1258 2278 1462 
C 2118 1616 1965 1648 1619 1718 
C 1446 1756 1171 1814 1171 2101 
C 1171 2229 1286 2689 1894 2689 
C 2163 2689 2426 2589 2490 2368 
C 2208 2368 2195 2125 2195 2119 
C 2195 1984 2317 1946 2374 1946 
C 2464 1946 2643 2015 2643 2281 
C 2643 2545 2400 2816 1901 2816 
C 1062 2816 838 2160 838 1899 
C 838 1414 1312 1312 1459 1280 
z
" transform="scale(0.015625)"/>
      </defs>
      <use xlink:href="#CMSS17-5a" transform="scale(0.996264)"/>
      <use xlink:href="#CMSS17-65" transform="translate(57.253333 0) scale(0.996264)"/>
      <use xlink:href="#CMSS17-69" transform="translate(98.892155 0) scale(0.996264)"/>
      <use xlink:href="#CMSS17-74" transform="translate(121.072878 0) scale(0.996264)"/>
      <use xlink:href="#CMR17-5b" transform="translate(186.133557 0) scale(0.996264)"/>
      <use xlink:href="#CMMI12-6d" transform="translate(211.004616 0) scale(0.996264)"/>
      <use xlink:href="#CMMI12-73" transform="translate(296.33184 0) scale(0.996264)"/>
      <use xlink:href="#CMR17-5d" transform="translate(342.281888 0) scale(0.996264)"/>
     </g>
    </g>
   </g>
   <g id="matplotlib.axis_6">
    <g id="ytick_11">
     <g id="line2d_39">
      <path d="M 172.8 613.611818 
L 659.781818 613.611818 
" clip-path="url(#p5d9b4b5958)" style="fill: none; stroke: #b0b0b0; stroke-width: 0.8; stroke-linecap: square"/>
     </g>
     <g id="line2d_40">
      <g>
       <use xlink:href="#m020bc8556d" x="172.8" y="613.611818" style="stroke: #000000; stroke-width: 0.8"/>
      </g>
     </g>
     <g id="text_22">
      <!-- $\mathdefault{−8}$ -->
      <g transform="translate(150.64852 617.762908) scale(0.12 -0.12)">
       <use xlink:href="#CMSY10-0" transform="scale(0.996264)"/>
       <use xlink:href="#CMR17-38" transform="translate(77.487468 0) scale(0.996264)"/>
      </g>
     </g>
    </g>
    <g id="ytick_12">
     <g id="line2d_41">
      <path d="M 172.8 557.770909 
L 659.781818 557.770909 
" clip-path="url(#p5d9b4b5958)" style="fill: none; stroke: #b0b0b0; stroke-width: 0.8; stroke-linecap: square"/>
     </g>
     <g id="line2d_42">
      <g>
       <use xlink:href="#m020bc8556d" x="172.8" y="557.770909" style="stroke: #000000; stroke-width: 0.8"/>
      </g>
     </g>
     <g id="text_23">
      <!-- $\mathdefault{−4}$ -->
      <g transform="translate(150.64852 561.921999) scale(0.12 -0.12)">
       <use xlink:href="#CMSY10-0" transform="scale(0.996264)"/>
       <use xlink:href="#CMR17-34" transform="translate(77.487468 0) scale(0.996264)"/>
      </g>
     </g>
    </g>
    <g id="ytick_13">
     <g id="line2d_43">
      <path d="M 172.8 501.93 
L 659.781818 501.93 
" clip-path="url(#p5d9b4b5958)" style="fill: none; stroke: #b0b0b0; stroke-width: 0.8; stroke-linecap: square"/>
     </g>
     <g id="line2d_44">
      <g>
       <use xlink:href="#m020bc8556d" x="172.8" y="501.93" style="stroke: #000000; stroke-width: 0.8"/>
      </g>
     </g>
     <g id="text_24">
      <!-- $\mathdefault{0}$ -->
      <g transform="translate(159.94701 506.08109) scale(0.12 -0.12)">
       <use xlink:href="#CMR17-30" transform="scale(0.996264)"/>
      </g>
     </g>
    </g>
    <g id="ytick_14">
     <g id="line2d_45">
      <path d="M 172.8 446.089091 
L 659.781818 446.089091 
" clip-path="url(#p5d9b4b5958)" style="fill: none; stroke: #b0b0b0; stroke-width: 0.8; stroke-linecap: square"/>
     </g>
     <g id="line2d_46">
      <g>
       <use xlink:href="#m020bc8556d" x="172.8" y="446.089091" style="stroke: #000000; stroke-width: 0.8"/>
      </g>
     </g>
     <g id="text_25">
      <!-- $\mathdefault{4}$ -->
      <g transform="translate(159.94701 450.240181) scale(0.12 -0.12)">
       <use xlink:href="#CMR17-34" transform="scale(0.996264)"/>
      </g>
     </g>
    </g>
    <g id="ytick_15">
     <g id="line2d_47">
      <path d="M 172.8 390.248182 
L 659.781818 390.248182 
" clip-path="url(#p5d9b4b5958)" style="fill: none; stroke: #b0b0b0; stroke-width: 0.8; stroke-linecap: square"/>
     </g>
     <g id="line2d_48">
      <g>
       <use xlink:href="#m020bc8556d" x="172.8" y="390.248182" style="stroke: #000000; stroke-width: 0.8"/>
      </g>
     </g>
     <g id="text_26">
      <!-- $\mathdefault{8}$ -->
      <g transform="translate(159.94701 394.399272) scale(0.12 -0.12)">
       <use xlink:href="#CMR17-38" transform="scale(0.996264)"/>
      </g>
     </g>
    </g>
    <g id="text_27">
     <!-- Spannung $[ V ]$ -->
     <g transform="translate(143.659728 535.838549) rotate(-90) scale(0.12 -0.12)">
      <use xlink:href="#CMSS17-53" transform="scale(0.996264)"/>
      <use xlink:href="#CMSS17-70" transform="translate(52.048516 0) scale(0.996264)"/>
      <use xlink:href="#CMSS17-61" transform="translate(100.253459 0) scale(0.996264)"/>
      <use xlink:href="#CMSS17-6e" transform="translate(145.17538 0) scale(0.996264)"/>
      <use xlink:href="#CMSS17-6e" transform="translate(193.380323 0) scale(0.996264)"/>
      <use xlink:href="#CMSS17-75" transform="translate(241.585266 0) scale(0.996264)"/>
      <use xlink:href="#CMSS17-6e" transform="translate(289.790209 0) scale(0.996264)"/>
      <use xlink:href="#CMSS17-67" transform="translate(337.995152 0) scale(0.996264)"/>
      <use xlink:href="#CMR17-5b" transform="translate(416.067889 0) scale(0.996264)"/>
      <use xlink:href="#CMMI12-56" transform="translate(440.938947 0) scale(0.996264)"/>
      <use xlink:href="#CMR17-5d" transform="translate(519.486268 0) scale(0.996264)"/>
     </g>
    </g>
   </g>
   <g id="line2d_49">
    <path d="M 172.8 613.611818 
L 172.819053 390.248182 
L 221.498187 390.248182 
L 221.516906 613.611818 
L 270.196364 613.611818 
L 270.214998 390.248182 
L 318.89455 390.248182 
L 318.91324 613.611818 
L 367.592727 613.611818 
L 367.611361 390.248182 
L 416.290914 390.248182 
L 416.309614 613.611818 
L 464.989091 613.611818 
L 465.007725 390.248182 
L 513.687278 390.248182 
L 513.705967 613.611818 
L 562.385455 613.611818 
L 562.487807 390.248182 
L 611.083641 390.248182 
L 611.102331 613.611818 
L 659.781818 613.611818 
L 659.781818 613.611818 
" clip-path="url(#p5d9b4b5958)" style="fill: none; stroke: #0000ff; stroke-width: 1.5; stroke-linecap: square"/>
   </g>
   <g id="line2d_50">
    <path d="M 172.8 446.090123 
L 172.800005 435.452488 
L 172.809666 446.180425 
L 172.819053 446.130945 
L 221.498187 557.766825 
L 221.498192 568.404476 
L 221.507867 557.672729 
L 221.516906 557.728665 
L 270.196364 446.093531 
L 270.196369 435.455883 
L 270.205913 446.186746 
L 270.214998 446.131501 
L 318.89455 557.768343 
L 318.894555 568.405994 
L 318.904097 557.674989 
L 318.91324 557.730246 
L 367.592727 446.095049 
L 367.592732 435.457401 
L 367.602276 446.18826 
L 367.611361 446.133016 
L 416.290914 557.769861 
L 416.290919 568.407512 
L 416.300467 557.67618 
L 416.309614 557.731741 
L 464.989091 446.096566 
L 464.989096 435.458919 
L 464.99864 446.189778 
L 465.007725 446.134533 
L 513.687278 557.771375 
L 513.687282 568.409023 
L 513.696824 557.678024 
L 513.705967 557.733282 
L 562.385455 446.098084 
L 562.38546 435.460436 
L 562.487807 446.328062 
L 611.083641 557.772893 
L 611.083646 568.410541 
L 611.093188 557.679538 
L 611.102331 557.7348 
L 659.781818 446.099599 
L 659.781818 446.099599 
" clip-path="url(#p5d9b4b5958)" style="fill: none; stroke: #ffa500; stroke-width: 1.5; stroke-linecap: square"/>
   </g>
   <g id="line2d_51">
    <path d="M 172.8 501.93 
L 659.781818 501.93 
L 659.781818 501.93 
" clip-path="url(#p5d9b4b5958)" style="fill: none; stroke: #008000; stroke-width: 1.5; stroke-linecap: square"/>
   </g>
   <g id="line2d_52">
    <path d="M 172.8 613.546529 
L 196.638289 613.482078 
L 196.935348 613.253638 
L 197.105791 612.769046 
L 197.169099 611.687224 
L 197.237277 601.670225 
L 197.373631 543.908623 
L 197.602108 411.355121 
L 198.025782 411.262306 
L 241.824912 411.25272 
L 245.146128 411.275433 
L 245.501624 411.407477 
L 245.808423 412.064419 
L 245.8766 413.709702 
L 245.973997 433.756334 
L 246.148913 531.237642 
L 246.309617 613.451251 
L 246.733291 613.538521 
L 256.706679 613.546529 
L 294.063429 613.470861 
L 294.350748 613.223603 
L 294.511452 612.701567 
L 294.56989 611.397369 
L 294.657547 594.897097 
L 294.8426 493.828301 
L 294.992396 411.358936 
L 295.411201 411.262872 
L 301.138107 411.251855 
L 342.566543 411.278682 
L 342.917169 411.422321 
L 343.209359 412.091844 
L 343.277536 414.025945 
L 343.374932 435.078838 
L 343.546592 531.7453 
L 343.726775 613.461236 
L 344.13584 613.538787 
L 355.506865 613.546529 
L 391.474402 613.464384 
L 391.747112 613.222538 
L 391.907816 612.696621 
L 391.966254 611.354339 
L 392.053911 594.692029 
L 392.238964 493.321877 
L 392.387918 411.359069 
L 392.806722 411.262879 
L 419.402536 411.246936 
L 440.060305 411.29752 
L 440.406062 411.518298 
L 440.620334 412.209616 
L 440.678772 414.414539 
L 440.790778 441.98845 
L 440.978046 559.741202 
L 441.114401 613.456776 
L 441.513726 613.537815 
L 449.242128 613.546529 
L 488.861026 613.468292 
L 489.138606 613.229254 
L 489.29931 612.727009 
L 489.357748 611.606804 
L 489.425925 601.292907 
L 489.586629 527.615803 
L 489.762221 411.389204 
L 490.161546 411.265501 
L 523.090703 411.249039 
L 537.330051 411.274528 
L 537.690417 411.405739 
L 537.997216 412.049294 
L 538.070263 413.914051 
L 538.16766 434.626991 
L 538.340773 531.847082 
L 538.520956 613.461296 
L 538.934891 613.539027 
L 547.948924 613.546529 
L 586.24278 613.47397 
L 586.534969 613.228209 
L 586.695673 612.722396 
L 586.754111 611.570404 
L 586.817419 602.304874 
L 586.973253 533.506364 
L 587.157957 411.389117 
L 587.333271 411.298253 
L 588.136791 411.253919 
L 634.736154 411.275686 
L 635.091651 411.408968 
L 635.398449 412.077679 
L 635.466627 413.860012 
L 635.564023 434.402805 
L 635.736948 531.186831 
L 635.897652 613.451217 
L 636.175232 613.526925 
L 636.710912 613.545836 
L 659.781818 613.546529 
L 659.781818 613.546529 
" clip-path="url(#p5d9b4b5958)" style="fill: none; stroke: #ff0000; stroke-width: 1.5; stroke-linecap: square"/>
   </g>
   <g id="patch_14">
    <path d="M 172.8 624.78 
L 172.8 379.08 
" style="fill: none; stroke: #000000; stroke-width: 0.8; stroke-linejoin: miter; stroke-linecap: square"/>
   </g>
   <g id="patch_15">
    <path d="M 659.781818 624.78 
L 659.781818 379.08 
" style="fill: none; stroke: #000000; stroke-width: 0.8; stroke-linejoin: miter; stroke-linecap: square"/>
   </g>
   <g id="patch_16">
    <path d="M 172.8 624.78 
L 659.781818 624.78 
" style="fill: none; stroke: #000000; stroke-width: 0.8; stroke-linejoin: miter; stroke-linecap: square"/>
   </g>
   <g id="patch_17">
    <path d="M 172.8 379.08 
L 659.781818 379.08 
" style="fill: none; stroke: #000000; stroke-width: 0.8; stroke-linejoin: miter; stroke-linecap: square"/>
   </g>
   <g id="text_28">
    <!-- $50\%$ Einschaltdauer -->
    <g transform="translate(358.58888 373.08) scale(0.144 -0.144)">
     <use xlink:href="#CMR17-35" transform="scale(0.996264)"/>
     <use xlink:href="#CMR17-30" transform="translate(45.690477 0) scale(0.996264)"/>
     <use xlink:href="#CMR17-25" transform="translate(91.380954 0) scale(0.996264)"/>
     <use xlink:href="#CMSS17-45" transform="translate(199.529657 0) scale(0.996264)"/>
     <use xlink:href="#CMSS17-69" transform="translate(255.42167 0) scale(0.996264)"/>
     <use xlink:href="#CMSS17-6e" transform="translate(277.602393 0) scale(0.996264)"/>
     <use xlink:href="#CMSS17-73" transform="translate(325.807336 0) scale(0.996264)"/>
     <use xlink:href="#CMSS17-63" transform="translate(361.720878 0) scale(0.996264)"/>
     <use xlink:href="#CMSS17-68" transform="translate(403.3597 0) scale(0.996264)"/>
     <use xlink:href="#CMSS17-61" transform="translate(451.564643 0) scale(0.996264)"/>
     <use xlink:href="#CMSS17-6c" transform="translate(496.486564 0) scale(0.996264)"/>
     <use xlink:href="#CMSS17-74" transform="translate(518.667287 0) scale(0.996264)"/>
     <use xlink:href="#CMSS17-64" transform="translate(552.498854 0) scale(0.996264)"/>
     <use xlink:href="#CMSS17-61" transform="translate(600.703797 0) scale(0.996264)"/>
     <use xlink:href="#CMSS17-75" transform="translate(645.625718 0) scale(0.996264)"/>
     <use xlink:href="#CMSS17-65" transform="translate(693.830661 0) scale(0.996264)"/>
     <use xlink:href="#CMSS17-72" transform="translate(735.469483 0) scale(0.996264)"/>
    </g>
   </g>
  </g>
  <g id="axes_4">
   <g id="patch_18">
    <path d="M 757.178182 624.78 
L 1244.16 624.78 
L 1244.16 379.08 
L 757.178182 379.08 
z
" style="fill: #ffffff"/>
   </g>
   <g id="matplotlib.axis_7">
    <g id="xtick_4">
     <g id="line2d_53">
      <path d="M 757.178182 624.78 
L 757.178182 379.08 
" clip-path="url(#pa2032a26a1)" style="fill: none; stroke: #b0b0b0; stroke-width: 0.8; stroke-linecap: square"/>
     </g>
     <g id="line2d_54">
      <g>
       <use xlink:href="#m63f2068790" x="757.178182" y="624.78" style="stroke: #000000; stroke-width: 0.8"/>
      </g>
     </g>
     <g id="text_29">
      <!-- $\mathdefault{0}$ -->
      <g transform="translate(754.251687 640.08218) scale(0.12 -0.12)">
       <use xlink:href="#CMR17-30" transform="scale(0.996264)"/>
      </g>
     </g>
    </g>
    <g id="text_30">
     <!-- Zeit $[ ms ]$ -->
     <g transform="translate(977.921303 655.373152) scale(0.12 -0.12)">
      <use xlink:href="#CMSS17-5a" transform="scale(0.996264)"/>
      <use xlink:href="#CMSS17-65" transform="translate(57.253333 0) scale(0.996264)"/>
      <use xlink:href="#CMSS17-69" transform="translate(98.892155 0) scale(0.996264)"/>
      <use xlink:href="#CMSS17-74" transform="translate(121.072878 0) scale(0.996264)"/>
      <use xlink:href="#CMR17-5b" transform="translate(186.133557 0) scale(0.996264)"/>
      <use xlink:href="#CMMI12-6d" transform="translate(211.004616 0) scale(0.996264)"/>
      <use xlink:href="#CMMI12-73" transform="translate(296.33184 0) scale(0.996264)"/>
      <use xlink:href="#CMR17-5d" transform="translate(342.281888 0) scale(0.996264)"/>
     </g>
    </g>
   </g>
   <g id="matplotlib.axis_8">
    <g id="ytick_16">
     <g id="line2d_55">
      <path d="M 757.178182 613.611818 
L 1244.16 613.611818 
" clip-path="url(#pa2032a26a1)" style="fill: none; stroke: #b0b0b0; stroke-width: 0.8; stroke-linecap: square"/>
     </g>
     <g id="line2d_56">
      <g>
       <use xlink:href="#m020bc8556d" x="757.178182" y="613.611818" style="stroke: #000000; stroke-width: 0.8"/>
      </g>
     </g>
     <g id="text_31">
      <!-- $\mathdefault{−8}$ -->
      <g transform="translate(735.026702 617.762908) scale(0.12 -0.12)">
       <use xlink:href="#CMSY10-0" transform="scale(0.996264)"/>
       <use xlink:href="#CMR17-38" transform="translate(77.487468 0) scale(0.996264)"/>
      </g>
     </g>
    </g>
    <g id="ytick_17">
     <g id="line2d_57">
      <path d="M 757.178182 557.770909 
L 1244.16 557.770909 
" clip-path="url(#pa2032a26a1)" style="fill: none; stroke: #b0b0b0; stroke-width: 0.8; stroke-linecap: square"/>
     </g>
     <g id="line2d_58">
      <g>
       <use xlink:href="#m020bc8556d" x="757.178182" y="557.770909" style="stroke: #000000; stroke-width: 0.8"/>
      </g>
     </g>
     <g id="text_32">
      <!-- $\mathdefault{−4}$ -->
      <g transform="translate(735.026702 561.921999) scale(0.12 -0.12)">
       <use xlink:href="#CMSY10-0" transform="scale(0.996264)"/>
       <use xlink:href="#CMR17-34" transform="translate(77.487468 0) scale(0.996264)"/>
      </g>
     </g>
    </g>
    <g id="ytick_18">
     <g id="line2d_59">
      <path d="M 757.178182 501.93 
L 1244.16 501.93 
" clip-path="url(#pa2032a26a1)" style="fill: none; stroke: #b0b0b0; stroke-width: 0.8; stroke-linecap: square"/>
     </g>
     <g id="line2d_60">
      <g>
       <use xlink:href="#m020bc8556d" x="757.178182" y="501.93" style="stroke: #000000; stroke-width: 0.8"/>
      </g>
     </g>
     <g id="text_33">
      <!-- $\mathdefault{0}$ -->
      <g transform="translate(744.325192 506.08109) scale(0.12 -0.12)">
       <use xlink:href="#CMR17-30" transform="scale(0.996264)"/>
      </g>
     </g>
    </g>
    <g id="ytick_19">
     <g id="line2d_61">
      <path d="M 757.178182 446.089091 
L 1244.16 446.089091 
" clip-path="url(#pa2032a26a1)" style="fill: none; stroke: #b0b0b0; stroke-width: 0.8; stroke-linecap: square"/>
     </g>
     <g id="line2d_62">
      <g>
       <use xlink:href="#m020bc8556d" x="757.178182" y="446.089091" style="stroke: #000000; stroke-width: 0.8"/>
      </g>
     </g>
     <g id="text_34">
      <!-- $\mathdefault{4}$ -->
      <g transform="translate(744.325192 450.240181) scale(0.12 -0.12)">
       <use xlink:href="#CMR17-34" transform="scale(0.996264)"/>
      </g>
     </g>
    </g>
    <g id="ytick_20">
     <g id="line2d_63">
      <path d="M 757.178182 390.248182 
L 1244.16 390.248182 
" clip-path="url(#pa2032a26a1)" style="fill: none; stroke: #b0b0b0; stroke-width: 0.8; stroke-linecap: square"/>
     </g>
     <g id="line2d_64">
      <g>
       <use xlink:href="#m020bc8556d" x="757.178182" y="390.248182" style="stroke: #000000; stroke-width: 0.8"/>
      </g>
     </g>
     <g id="text_35">
      <!-- $\mathdefault{8}$ -->
      <g transform="translate(744.325192 394.399272) scale(0.12 -0.12)">
       <use xlink:href="#CMR17-38" transform="scale(0.996264)"/>
      </g>
     </g>
    </g>
   </g>
   <g id="line2d_65">
    <path d="M 757.178182 613.611818 
L 757.285568 390.248182 
L 805.876369 390.248182 
L 805.89069 613.611818 
L 854.574545 613.611818 
L 854.671723 390.248182 
L 903.272732 390.248182 
L 903.291422 613.611818 
L 951.970909 613.611818 
L 952.06808 390.248182 
L 1000.669096 390.248182 
L 1000.687786 613.611818 
L 1049.367273 613.611818 
L 1049.469801 390.248182 
L 1098.065459 390.248182 
L 1098.084149 613.611818 
L 1146.763636 613.611818 
L 1146.856602 390.248182 
L 1195.461823 390.248182 
L 1195.480513 613.611818 
L 1244.16 613.611818 
L 1244.16 613.611818 
" clip-path="url(#pa2032a26a1)" style="fill: none; stroke: #0000ff; stroke-width: 1.5; stroke-linecap: square"/>
   </g>
   <g id="line2d_66">
    <path d="M 757.178182 446.090123 
L 757.178187 435.452502 
L 757.285568 446.333537 
L 805.876369 557.766829 
L 805.876373 568.404476 
L 805.886078 557.678027 
L 805.89069 557.738634 
L 854.574545 446.093534 
L 854.57455 435.455897 
L 854.671723 446.311643 
L 903.272732 557.768346 
L 903.272737 568.405994 
L 903.282279 557.674992 
L 903.291422 557.73025 
L 951.970909 446.095052 
L 951.970914 435.457414 
L 952.06808 446.313144 
L 1000.669096 557.769864 
L 1000.669101 568.407512 
L 1000.678642 557.67651 
L 1000.687786 557.731767 
L 1049.367273 446.09657 
L 1049.367278 435.458932 
L 1049.469801 446.32695 
L 1098.065459 557.771382 
L 1098.065464 568.409029 
L 1098.075006 557.678027 
L 1098.084149 557.733285 
L 1146.763636 446.098088 
L 1146.763641 435.46045 
L 1146.856602 446.306534 
L 1195.461823 557.772899 
L 1195.461828 568.410547 
L 1195.47137 557.679542 
L 1195.480513 557.7348 
L 1244.16 446.099602 
L 1244.16 446.099602 
" clip-path="url(#pa2032a26a1)" style="fill: none; stroke: #ffa500; stroke-width: 1.5; stroke-linecap: square"/>
   </g>
   <g id="line2d_67">
    <path d="M 757.178182 446.089091 
L 1244.16 446.089091 
L 1244.16 446.089091 
" clip-path="url(#pa2032a26a1)" style="fill: none; stroke: #008000; stroke-width: 1.5; stroke-linecap: square"/>
   </g>
   <g id="line2d_68">
    <path d="M 757.178182 611.197173 
L 757.186763 613.246762 
L 757.261219 604.66677 
L 757.397574 549.871048 
L 757.631057 411.363416 
L 758.06447 411.270015 
L 811.243788 411.247688 
L 853.888786 411.285392 
L 854.244282 411.426202 
L 854.536471 412.077918 
L 854.576042 413.548808 
L 854.584091 422.183865 
L 854.671723 412.165055 
L 854.735031 411.696939 
L 855.090527 411.332415 
L 855.670036 411.26419 
L 951.327904 411.291975 
L 951.678531 411.459519 
L 951.970914 412.491935 
L 951.980455 422.154928 
L 952.06808 412.138502 
L 952.145997 411.662404 
L 952.501494 411.32677 
L 953.066393 411.264183 
L 1019.013507 411.252048 
L 1048.93367 411.358057 
L 1049.313516 411.975684 
L 1049.368701 413.423728 
L 1049.376895 422.12 
L 1049.469801 411.987653 
L 1049.747381 411.404714 
L 1050.122357 411.2796 
L 1073.424437 411.254192 
L 1146.071933 411.284313 
L 1146.4323 411.423713 
L 1146.729359 412.090653 
L 1146.76517 413.520344 
L 1146.773299 422.091901 
L 1146.856602 412.257112 
L 1146.89556 411.771967 
L 1147.367933 411.304523 
L 1148.25424 411.262113 
L 1243.497516 411.288427 
L 1243.848143 411.439609 
L 1244.16 412.456162 
L 1244.16 412.456162 
" clip-path="url(#pa2032a26a1)" style="fill: none; stroke: #ff0000; stroke-width: 1.5; stroke-linecap: square"/>
   </g>
   <g id="patch_19">
    <path d="M 757.178182 624.78 
L 757.178182 379.08 
" style="fill: none; stroke: #000000; stroke-width: 0.8; stroke-linejoin: miter; stroke-linecap: square"/>
   </g>
   <g id="patch_20">
    <path d="M 1244.16 624.78 
L 1244.16 379.08 
" style="fill: none; stroke: #000000; stroke-width: 0.8; stroke-linejoin: miter; stroke-linecap: square"/>
   </g>
   <g id="patch_21">
    <path d="M 757.178182 624.78 
L 1244.16 624.78 
" style="fill: none; stroke: #000000; stroke-width: 0.8; stroke-linejoin: miter; stroke-linecap: square"/>
   </g>
   <g id="patch_22">
    <path d="M 757.178182 379.08 
L 1244.16 379.08 
" style="fill: none; stroke: #000000; stroke-width: 0.8; stroke-linejoin: miter; stroke-linecap: square"/>
   </g>
   <g id="text_36">
    <!-- $100\%$ Einschaltdauer -->
    <g transform="translate(939.455276 373.08) scale(0.144 -0.144)">
     <defs>
      <path id="CMR17-31" d="M 1702 4058 
C 1702 4192 1696 4192 1606 4192 
C 1357 3916 979 3827 621 3827 
C 602 3827 570 3827 563 3808 
C 557 3795 557 3782 557 3648 
C 755 3648 1088 3686 1344 3839 
L 1344 461 
C 1344 236 1331 160 781 160 
L 589 160 
L 589 0 
C 896 0 1216 0 1523 0 
C 1830 0 2150 0 2458 0 
L 2458 160 
L 2266 160 
C 1715 160 1702 230 1702 458 
L 1702 4058 
z
" transform="scale(0.015625)"/>
     </defs>
     <use xlink:href="#CMR17-31" transform="scale(0.996264)"/>
     <use xlink:href="#CMR17-30" transform="translate(45.690477 0) scale(0.996264)"/>
     <use xlink:href="#CMR17-30" transform="translate(91.380954 0) scale(0.996264)"/>
     <use xlink:href="#CMR17-25" transform="translate(137.071431 0) scale(0.996264)"/>
     <use xlink:href="#CMSS17-45" transform="translate(245.220134 0) scale(0.996264)"/>
     <use xlink:href="#CMSS17-69" transform="translate(301.112147 0) scale(0.996264)"/>
     <use xlink:href="#CMSS17-6e" transform="translate(323.29287 0) scale(0.996264)"/>
     <use xlink:href="#CMSS17-73" transform="translate(371.497813 0) scale(0.996264)"/>
     <use xlink:href="#CMSS17-63" transform="translate(407.411355 0) scale(0.996264)"/>
     <use xlink:href="#CMSS17-68" transform="translate(449.050177 0) scale(0.996264)"/>
     <use xlink:href="#CMSS17-61" transform="translate(497.255121 0) scale(0.996264)"/>
     <use xlink:href="#CMSS17-6c" transform="translate(542.177041 0) scale(0.996264)"/>
     <use xlink:href="#CMSS17-74" transform="translate(564.357764 0) scale(0.996264)"/>
     <use xlink:href="#CMSS17-64" transform="translate(598.189331 0) scale(0.996264)"/>
     <use xlink:href="#CMSS17-61" transform="translate(646.394274 0) scale(0.996264)"/>
     <use xlink:href="#CMSS17-75" transform="translate(691.316195 0) scale(0.996264)"/>
     <use xlink:href="#CMSS17-65" transform="translate(739.521138 0) scale(0.996264)"/>
     <use xlink:href="#CMSS17-72" transform="translate(781.15996 0) scale(0.996264)"/>
    </g>
   </g>
  </g>
  <g id="text_37">
   <!-- Leistungsregelung durch Operationsverstärker -->
   <g transform="translate(558.215446 24.002625) scale(0.144 -0.144)">
    <defs>
     <path id="CMSS17-4c" d="M 1670 414 
C 1594 414 1517 414 1440 414 
L 1101 414 
L 1101 4416 
L 563 4416 
L 563 0 
L 3002 0 
L 3002 414 
L 1670 414 
z
" transform="scale(0.015625)"/>
     <path id="CMSS17-4f" d="M 4096 2178 
C 4096 3503 3219 4497 2214 4497 
C 1210 4497 333 3497 333 2178 
C 333 847 1222 -128 2214 -128 
C 3206 -128 4096 847 4096 2178 
z
M 2214 273 
C 1510 273 870 1057 870 2261 
C 870 3433 1549 4096 2214 4096 
C 2880 4096 3558 3433 3558 2261 
C 3558 1051 2912 273 2214 273 
z
" transform="scale(0.015625)"/>
     <path id="CMSS17-6f" d="M 2829 1356 
C 2829 2176 2221 2816 1504 2816 
C 768 2816 173 2157 173 1356 
C 173 544 787 -64 1498 -64 
C 2227 -64 2829 563 2829 1356 
z
M 1504 337 
C 1050 337 659 709 659 1408 
C 659 2151 1114 2427 1498 2427 
C 1914 2427 2342 2126 2342 1408 
C 2342 683 1926 337 1504 337 
z
" transform="scale(0.015625)"/>
     <path id="CMSS17-76" d="M 2675 2752 
L 2176 2752 
L 1747 1556 
C 1613 1165 1421 627 1389 352 
L 1382 352 
C 1370 468 1318 634 1286 749 
C 1248 890 1197 1056 1158 1172 
L 595 2752 
L 83 2752 
L 1094 0 
L 1664 0 
L 2675 2752 
z
" transform="scale(0.015625)"/>
     <path id="CMSS17-7f" d="M 1178 4164 
L 659 4164 
L 659 3648 
L 1178 3648 
L 1178 4164 
z
M 2342 4164 
L 1824 4164 
L 1824 3648 
L 2342 3648 
L 2342 4164 
z
" transform="scale(0.015625)"/>
    </defs>
    <use xlink:href="#CMSS17-4c" transform="scale(0.996264)"/>
    <use xlink:href="#CMSS17-65" transform="translate(50.687105 0) scale(0.996264)"/>
    <use xlink:href="#CMSS17-69" transform="translate(92.325927 0) scale(0.996264)"/>
    <use xlink:href="#CMSS17-73" transform="translate(114.50665 0) scale(0.996264)"/>
    <use xlink:href="#CMSS17-74" transform="translate(150.420192 0) scale(0.996264)"/>
    <use xlink:href="#CMSS17-75" transform="translate(184.251759 0) scale(0.996264)"/>
    <use xlink:href="#CMSS17-6e" transform="translate(232.456702 0) scale(0.996264)"/>
    <use xlink:href="#CMSS17-67" transform="translate(280.661645 0) scale(0.996264)"/>
    <use xlink:href="#CMSS17-73" transform="translate(327.505269 0) scale(0.996264)"/>
    <use xlink:href="#CMSS17-72" transform="translate(363.418811 0) scale(0.996264)"/>
    <use xlink:href="#CMSS17-65" transform="translate(395.328583 0) scale(0.996264)"/>
    <use xlink:href="#CMSS17-67" transform="translate(436.967406 0) scale(0.996264)"/>
    <use xlink:href="#CMSS17-65" transform="translate(483.811029 0) scale(0.996264)"/>
    <use xlink:href="#CMSS17-6c" transform="translate(525.449851 0) scale(0.996264)"/>
    <use xlink:href="#CMSS17-75" transform="translate(547.630574 0) scale(0.996264)"/>
    <use xlink:href="#CMSS17-6e" transform="translate(595.835517 0) scale(0.996264)"/>
    <use xlink:href="#CMSS17-67" transform="translate(644.04046 0) scale(0.996264)"/>
    <use xlink:href="#CMSS17-64" transform="translate(722.113197 0) scale(0.996264)"/>
    <use xlink:href="#CMSS17-75" transform="translate(770.31814 0) scale(0.996264)"/>
    <use xlink:href="#CMSS17-72" transform="translate(818.523083 0) scale(0.996264)"/>
    <use xlink:href="#CMSS17-63" transform="translate(850.432856 0) scale(0.996264)"/>
    <use xlink:href="#CMSS17-68" transform="translate(892.071678 0) scale(0.996264)"/>
    <use xlink:href="#CMSS17-4f" transform="translate(971.505734 0) scale(0.996264)"/>
    <use xlink:href="#CMSS17-70" transform="translate(1040.529989 0) scale(0.996264)"/>
    <use xlink:href="#CMSS17-65" transform="translate(1091.337371 0) scale(0.996264)"/>
    <use xlink:href="#CMSS17-72" transform="translate(1132.976193 0) scale(0.996264)"/>
    <use xlink:href="#CMSS17-61" transform="translate(1164.885965 0) scale(0.996264)"/>
    <use xlink:href="#CMSS17-74" transform="translate(1209.807886 0) scale(0.996264)"/>
    <use xlink:href="#CMSS17-69" transform="translate(1243.639453 0) scale(0.996264)"/>
    <use xlink:href="#CMSS17-6f" transform="translate(1265.820176 0) scale(0.996264)"/>
    <use xlink:href="#CMSS17-6e" transform="translate(1312.663799 0) scale(0.996264)"/>
    <use xlink:href="#CMSS17-73" transform="translate(1360.868742 0) scale(0.996264)"/>
    <use xlink:href="#CMSS17-76" transform="translate(1396.782284 0) scale(0.996264)"/>
    <use xlink:href="#CMSS17-65" transform="translate(1439.782426 0) scale(0.996264)"/>
    <use xlink:href="#CMSS17-72" transform="translate(1481.421248 0) scale(0.996264)"/>
    <use xlink:href="#CMSS17-73" transform="translate(1513.331021 0) scale(0.996264)"/>
    <use xlink:href="#CMSS17-74" transform="translate(1549.244563 0) scale(0.996264)"/>
    <use xlink:href="#CMSS17-7f" transform="translate(1582.11527 0) scale(0.996264)"/>
    <use xlink:href="#CMSS17-61" transform="translate(1583.076129 0) scale(0.996264)"/>
    <use xlink:href="#CMSS17-72" transform="translate(1627.99805 0) scale(0.996264)"/>
    <use xlink:href="#CMSS17-6b" transform="translate(1659.907822 0) scale(0.996264)"/>
    <use xlink:href="#CMSS17-65" transform="translate(1702.907858 0) scale(0.996264)"/>
    <use xlink:href="#CMSS17-72" transform="translate(1744.54668 0) scale(0.996264)"/>
   </g>
  </g>
 </g>
 <defs>
  <clipPath id="p8cd911a1e4">
   <rect x="172.8" y="84.24" width="486.981818" height="245.7"/>
  </clipPath>
  <clipPath id="pc4c878a487">
   <rect x="757.178182" y="84.24" width="486.981818" height="245.7"/>
  </clipPath>
  <clipPath id="p5d9b4b5958">
   <rect x="172.8" y="379.08" width="486.981818" height="245.7"/>
  </clipPath>
  <clipPath id="pa2032a26a1">
   <rect x="757.178182" y="379.08" width="486.981818" height="245.7"/>
  </clipPath>
 </defs>
</svg>
