<?xml version="1.0" encoding="utf-8" standalone="no"?>
<!DOCTYPE svg PUBLIC "-//W3C//DTD SVG 1.1//EN"
  "http://www.w3.org/Graphics/SVG/1.1/DTD/svg11.dtd">
<svg xmlns:xlink="http://www.w3.org/1999/xlink" width="1382.4pt" height="702pt" viewBox="0 0 1382.4 702" xmlns="http://www.w3.org/2000/svg" version="1.1">
 <metadata>
  <rdf:RDF xmlns:dc="http://purl.org/dc/elements/1.1/" xmlns:cc="http://creativecommons.org/ns#" xmlns:rdf="http://www.w3.org/1999/02/22-rdf-syntax-ns#">
   <cc:Work>
    <dc:type rdf:resource="http://purl.org/dc/dcmitype/StillImage"/>
    <dc:date>2023-02-02T20:17:55.121404</dc:date>
    <dc:format>image/svg+xml</dc:format>
    <dc:creator>
     <cc:Agent>
      <dc:title>Matplotlib v3.6.3, https://matplotlib.org/</dc:title>
     </cc:Agent>
    </dc:creator>
   </cc:Work>
  </rdf:RDF>
 </metadata>
 <defs>
  <style type="text/css">*{stroke-linejoin: round; stroke-linecap: butt}</style>
 </defs>
 <g id="figure_1">
  <g id="patch_1">
   <path d="M 0 702 
L 1382.4 702 
L 1382.4 0 
L 0 0 
z
" style="fill: #ffffff"/>
  </g>
  <g id="axes_1">
   <g id="patch_2">
    <path d="M 43.514379 665.417816 
L 1379.39976 665.417816 
L 1379.39976 21.752872 
L 43.514379 21.752872 
z
" style="fill: #ffffff"/>
   </g>
   <g id="matplotlib.axis_1">
    <g id="xtick_1">
     <g id="line2d_1">
      <path d="M 57.286393 665.417816 
L 57.286393 21.752872 
" clip-path="url(#p1748eff5ba)" style="fill: none; stroke: #b0b0b0; stroke-width: 0.8; stroke-linecap: square"/>
     </g>
     <g id="line2d_2">
      <defs>
       <path id="m891b564a3d" d="M 0 0 
L 0 3.5 
" style="stroke: #000000; stroke-width: 0.8"/>
      </defs>
      <g>
       <use xlink:href="#m891b564a3d" x="57.286393" y="665.417816" style="stroke: #000000; stroke-width: 0.8"/>
      </g>
     </g>
     <g id="text_1">
      <!-- $\mathdefault{0}$ -->
      <g transform="translate(54.359898 680.719996) scale(0.12 -0.12)">
       <defs>
        <path id="CMR17-30" d="M 2688 2025 
C 2688 2416 2682 3080 2413 3591 
C 2176 4039 1798 4198 1466 4198 
C 1158 4198 768 4058 525 3597 
C 269 3118 243 2524 243 2025 
C 243 1661 250 1106 448 619 
C 723 -39 1216 -128 1466 -128 
C 1760 -128 2208 -7 2470 600 
C 2662 1042 2688 1559 2688 2025 
z
M 1466 -26 
C 1056 -26 813 325 723 812 
C 653 1188 653 1738 653 2096 
C 653 2588 653 2997 736 3387 
C 858 3929 1216 4096 1466 4096 
C 1728 4096 2067 3923 2189 3400 
C 2272 3036 2278 2607 2278 2096 
C 2278 1680 2278 1169 2202 792 
C 2067 95 1690 -26 1466 -26 
z
" transform="scale(0.015625)"/>
       </defs>
       <use xlink:href="#CMR17-30" transform="scale(0.996264)"/>
      </g>
     </g>
    </g>
    <g id="xtick_2">
     <g id="line2d_3">
      <path d="M 332.726678 665.417816 
L 332.726678 21.752872 
" clip-path="url(#p1748eff5ba)" style="fill: none; stroke: #b0b0b0; stroke-width: 0.8; stroke-linecap: square"/>
     </g>
     <g id="line2d_4">
      <g>
       <use xlink:href="#m891b564a3d" x="332.726678" y="665.417816" style="stroke: #000000; stroke-width: 0.8"/>
      </g>
     </g>
     <g id="text_2">
      <!-- $\mathdefault{5}$ -->
      <g transform="translate(329.800183 680.719996) scale(0.12 -0.12)">
       <defs>
        <path id="CMR17-35" d="M 730 3692 
C 794 3666 1056 3584 1325 3584 
C 1920 3584 2246 3911 2432 4100 
C 2432 4157 2432 4192 2394 4192 
C 2387 4192 2374 4192 2323 4163 
C 2099 4058 1837 3973 1517 3973 
C 1325 3973 1037 3999 723 4139 
C 653 4171 640 4171 634 4171 
C 602 4171 595 4164 595 4037 
L 595 2203 
C 595 2089 595 2057 659 2057 
C 691 2057 704 2070 736 2114 
C 941 2401 1222 2522 1542 2522 
C 1766 2522 2246 2382 2246 1289 
C 2246 1085 2246 715 2054 421 
C 1894 159 1645 25 1370 25 
C 947 25 518 320 403 814 
C 429 807 480 795 506 795 
C 589 795 749 840 749 1038 
C 749 1210 627 1280 506 1280 
C 358 1280 262 1190 262 1011 
C 262 454 704 -128 1382 -128 
C 2042 -128 2669 440 2669 1264 
C 2669 2030 2170 2624 1549 2624 
C 1222 2624 947 2503 730 2274 
L 730 3692 
z
" transform="scale(0.015625)"/>
       </defs>
       <use xlink:href="#CMR17-35" transform="scale(0.996264)"/>
      </g>
     </g>
    </g>
    <g id="xtick_3">
     <g id="line2d_5">
      <path d="M 608.166963 665.417816 
L 608.166963 21.752872 
" clip-path="url(#p1748eff5ba)" style="fill: none; stroke: #b0b0b0; stroke-width: 0.8; stroke-linecap: square"/>
     </g>
     <g id="line2d_6">
      <g>
       <use xlink:href="#m891b564a3d" x="608.166963" y="665.417816" style="stroke: #000000; stroke-width: 0.8"/>
      </g>
     </g>
     <g id="text_3">
      <!-- $\mathdefault{10}$ -->
      <g transform="translate(602.313972 680.719996) scale(0.12 -0.12)">
       <defs>
        <path id="CMR17-31" d="M 1702 4058 
C 1702 4192 1696 4192 1606 4192 
C 1357 3916 979 3827 621 3827 
C 602 3827 570 3827 563 3808 
C 557 3795 557 3782 557 3648 
C 755 3648 1088 3686 1344 3839 
L 1344 461 
C 1344 236 1331 160 781 160 
L 589 160 
L 589 0 
C 896 0 1216 0 1523 0 
C 1830 0 2150 0 2458 0 
L 2458 160 
L 2266 160 
C 1715 160 1702 230 1702 458 
L 1702 4058 
z
" transform="scale(0.015625)"/>
       </defs>
       <use xlink:href="#CMR17-31" transform="scale(0.996264)"/>
       <use xlink:href="#CMR17-30" transform="translate(45.690477 0) scale(0.996264)"/>
      </g>
     </g>
    </g>
    <g id="xtick_4">
     <g id="line2d_7">
      <path d="M 883.607247 665.417816 
L 883.607247 21.752872 
" clip-path="url(#p1748eff5ba)" style="fill: none; stroke: #b0b0b0; stroke-width: 0.8; stroke-linecap: square"/>
     </g>
     <g id="line2d_8">
      <g>
       <use xlink:href="#m891b564a3d" x="883.607247" y="665.417816" style="stroke: #000000; stroke-width: 0.8"/>
      </g>
     </g>
     <g id="text_4">
      <!-- $\mathdefault{15}$ -->
      <g transform="translate(877.754257 680.719996) scale(0.12 -0.12)">
       <use xlink:href="#CMR17-31" transform="scale(0.996264)"/>
       <use xlink:href="#CMR17-35" transform="translate(45.690477 0) scale(0.996264)"/>
      </g>
     </g>
    </g>
    <g id="xtick_5">
     <g id="line2d_9">
      <path d="M 1159.047532 665.417816 
L 1159.047532 21.752872 
" clip-path="url(#p1748eff5ba)" style="fill: none; stroke: #b0b0b0; stroke-width: 0.8; stroke-linecap: square"/>
     </g>
     <g id="line2d_10">
      <g>
       <use xlink:href="#m891b564a3d" x="1159.047532" y="665.417816" style="stroke: #000000; stroke-width: 0.8"/>
      </g>
     </g>
     <g id="text_5">
      <!-- $\mathdefault{20}$ -->
      <g transform="translate(1153.194542 680.719996) scale(0.12 -0.12)">
       <defs>
        <path id="CMR17-32" d="M 2669 989 
L 2554 989 
C 2490 536 2438 459 2413 420 
C 2381 369 1920 369 1830 369 
L 602 369 
C 832 619 1280 1072 1824 1597 
C 2214 1967 2669 2402 2669 3035 
C 2669 3790 2067 4224 1395 4224 
C 691 4224 262 3604 262 3030 
C 262 2780 448 2748 525 2748 
C 589 2748 781 2787 781 3010 
C 781 3207 614 3264 525 3264 
C 486 3264 448 3258 422 3245 
C 544 3790 915 4058 1306 4058 
C 1862 4058 2227 3617 2227 3035 
C 2227 2479 1901 2000 1536 1584 
L 262 146 
L 262 0 
L 2515 0 
L 2669 989 
z
" transform="scale(0.015625)"/>
       </defs>
       <use xlink:href="#CMR17-32" transform="scale(0.996264)"/>
       <use xlink:href="#CMR17-30" transform="translate(45.690477 0) scale(0.996264)"/>
      </g>
     </g>
    </g>
    <g id="text_6">
     <!-- Nutzleistung $[ W ]$ -->
     <g transform="translate(669.514159 696.010968) scale(0.12 -0.12)">
      <defs>
       <path id="CMSS17-4e" d="M 1466 4180 
L 1350 4416 
L 563 4416 
L 563 0 
L 1062 0 
L 1062 3926 
L 1069 3932 
C 1114 3817 1139 3760 1402 3194 
L 2771 236 
L 2886 0 
L 3674 0 
L 3674 4416 
L 3174 4416 
L 3174 490 
L 3168 483 
C 3123 598 3098 655 2835 1221 
L 1466 4180 
z
" transform="scale(0.015625)"/>
       <path id="CMSS17-75" d="M 2618 2739 
L 2131 2739 
L 2131 972 
C 2131 498 1786 306 1421 306 
C 998 306 960 447 960 709 
L 960 2739 
L 474 2739 
L 474 678 
C 474 179 646 -64 1088 -64 
C 1306 -64 1798 -13 2144 306 
L 2144 0 
L 2618 0 
L 2618 2739 
z
" transform="scale(0.015625)"/>
       <path id="CMSS17-74" d="M 1069 2368 
L 1901 2368 
L 1901 2737 
L 1069 2737 
L 1069 3520 
L 614 3520 
L 614 2737 
L 109 2737 
L 109 2368 
L 602 2368 
L 602 749 
C 602 384 685 -64 1107 -64 
C 1427 -64 1722 25 2003 172 
L 1901 548 
C 1747 414 1562 337 1363 337 
C 1082 337 1069 696 1069 856 
L 1069 2368 
z
" transform="scale(0.015625)"/>
       <path id="CMSS17-7a" d="M 2400 2502 
L 2400 2750 
L 250 2750 
L 250 2368 
L 1069 2368 
C 1146 2368 1222 2368 1299 2368 
L 1747 2368 
L 166 261 
L 166 0 
L 2419 0 
L 2419 395 
L 1549 395 
C 1472 395 1395 395 1318 395 
L 826 395 
L 2400 2502 
z
" transform="scale(0.015625)"/>
       <path id="CMSS17-6c" d="M 947 4416 
L 474 4416 
L 474 0 
L 947 0 
L 947 4416 
z
" transform="scale(0.015625)"/>
       <path id="CMSS17-65" d="M 2502 1377 
C 2502 1590 2490 2003 2285 2345 
C 2061 2713 1696 2816 1421 2816 
C 755 2816 192 2188 192 1375 
C 192 582 774 -64 1510 -64 
C 1798 -64 2150 19 2470 248 
C 2470 274 2458 414 2451 420 
C 2451 433 2432 630 2432 656 
C 2125 407 1773 325 1517 325 
C 1107 325 666 667 646 1377 
L 2502 1377 
z
M 698 1728 
C 781 2084 1062 2421 1421 2421 
C 1517 2421 1965 2421 2080 1728 
L 698 1728 
z
" transform="scale(0.015625)"/>
       <path id="CMSS17-69" d="M 979 4183 
L 442 4183 
L 442 3648 
L 979 3648 
L 979 4183 
z
M 947 2739 
L 474 2739 
L 474 0 
L 947 0 
L 947 2739 
z
" transform="scale(0.015625)"/>
       <path id="CMSS17-73" d="M 2061 2627 
C 1683 2807 1389 2807 1197 2807 
C 742 2807 198 2648 198 2003 
C 198 1359 902 1218 1094 1179 
C 1389 1122 1715 1058 1715 740 
C 1715 337 1254 337 1171 337 
C 915 337 563 407 243 638 
L 166 210 
C 531 0 883 -64 1178 -64 
C 1965 -64 2163 416 2163 781 
C 2163 1094 1984 1305 1862 1401 
C 1651 1568 1574 1587 1050 1696 
C 960 1709 646 1779 646 2066 
C 646 2432 1050 2432 1139 2432 
C 1555 2432 1811 2303 1984 2208 
L 2061 2627 
z
" transform="scale(0.015625)"/>
       <path id="CMSS17-6e" d="M 2618 1877 
C 2618 2283 2522 2816 1798 2816 
C 1389 2816 1120 2606 941 2389 
L 941 2758 
L 474 2758 
L 474 0 
L 960 0 
L 960 1559 
C 960 1964 1114 2428 1549 2428 
C 2112 2428 2131 2048 2131 1829 
L 2131 0 
L 2618 0 
L 2618 1877 
z
" transform="scale(0.015625)"/>
       <path id="CMSS17-67" d="M 2848 2808 
C 2483 2808 2170 2738 1914 2617 
C 1702 2777 1485 2808 1338 2808 
C 781 2808 358 2349 358 1814 
C 358 1468 550 1207 563 1195 
C 448 1035 384 863 384 672 
C 384 448 474 289 544 200 
C 211 -3 166 -314 166 -435 
C 166 -898 749 -1280 1498 -1280 
C 2253 -1280 2835 -898 2835 -428 
C 2835 448 1856 448 1587 448 
L 1069 448 
C 973 448 717 448 717 791 
C 717 921 774 1004 781 1010 
C 877 940 1075 832 1338 832 
C 1869 832 2310 1278 2310 1827 
C 2310 2132 2170 2355 2112 2432 
L 2131 2432 
C 2150 2432 2419 2432 2515 2432 
C 2720 2432 2739 2429 2918 2419 
L 2848 2808 
z
M 1338 1182 
C 1120 1182 813 1315 813 1823 
C 813 2375 1165 2464 1331 2464 
C 1549 2464 1856 2331 1856 1823 
C 1856 1271 1504 1182 1338 1182 
z
M 1581 -10 
C 1734 -10 2381 -10 2381 -442 
C 2381 -714 1984 -929 1504 -929 
C 1018 -929 621 -720 621 -435 
C 621 -403 621 -10 1062 -10 
L 1581 -10 
z
" transform="scale(0.015625)"/>
       <path id="CMR17-5b" d="M 1504 -1600 
L 1504 -1377 
L 902 -1377 
L 902 4544 
L 1504 4544 
L 1504 4767 
L 678 4767 
L 678 -1600 
L 1504 -1600 
z
" transform="scale(0.015625)"/>
       <path id="CMMI12-57" d="M 5779 3646 
C 5926 3894 6067 4129 6451 4168 
C 6509 4174 6566 4180 6566 4282 
C 6566 4352 6509 4352 6490 4352 
C 6477 4352 6432 4352 6010 4352 
C 5818 4352 5619 4352 5434 4352 
C 5395 4352 5318 4352 5318 4226 
C 5318 4166 5370 4160 5408 4160 
C 5536 4160 5741 4122 5741 3925 
C 5741 3842 5715 3797 5651 3690 
L 3904 648 
L 3674 3963 
C 3674 4039 3744 4160 4102 4160 
C 4186 4160 4250 4160 4250 4286 
C 4250 4352 4186 4352 4154 4352 
C 3930 4352 3693 4352 3462 4352 
L 3130 4352 
C 3034 4352 2918 4352 2822 4352 
C 2784 4352 2707 4352 2707 4226 
C 2707 4160 2752 4160 2861 4160 
C 3155 4160 3155 4153 3181 3772 
L 3200 3543 
L 1542 648 
L 1306 3931 
C 1306 4002 1306 4160 1741 4160 
C 1811 4160 1882 4160 1882 4279 
C 1882 4352 1824 4352 1786 4352 
C 1562 4352 1325 4352 1094 4352 
L 762 4352 
C 666 4352 550 4352 454 4352 
C 416 4352 339 4352 339 4226 
C 339 4160 390 4160 480 4160 
C 781 4160 787 4121 800 3918 
L 1082 18 
C 1088 -90 1094 -128 1171 -128 
C 1235 -128 1248 -103 1306 -7 
L 3213 3307 
L 3450 18 
C 3456 -90 3462 -128 3539 -128 
C 3603 -128 3622 -96 3674 -7 
L 5779 3646 
z
" transform="scale(0.015625)"/>
       <path id="CMR17-5d" d="M 915 4767 
L 90 4767 
L 90 4544 
L 691 4544 
L 691 -1377 
L 90 -1377 
L 90 -1600 
L 915 -1600 
L 915 4767 
z
" transform="scale(0.015625)"/>
      </defs>
      <use xlink:href="#CMSS17-4e" transform="scale(0.996264)"/>
      <use xlink:href="#CMSS17-75" transform="translate(66.061519 0) scale(0.996264)"/>
      <use xlink:href="#CMSS17-74" transform="translate(114.266462 0) scale(0.996264)"/>
      <use xlink:href="#CMSS17-7a" transform="translate(148.098029 0) scale(0.996264)"/>
      <use xlink:href="#CMSS17-6c" transform="translate(188.775901 0) scale(0.996264)"/>
      <use xlink:href="#CMSS17-65" transform="translate(210.956624 0) scale(0.996264)"/>
      <use xlink:href="#CMSS17-69" transform="translate(252.595446 0) scale(0.996264)"/>
      <use xlink:href="#CMSS17-73" transform="translate(274.776169 0) scale(0.996264)"/>
      <use xlink:href="#CMSS17-74" transform="translate(310.689711 0) scale(0.996264)"/>
      <use xlink:href="#CMSS17-75" transform="translate(344.521278 0) scale(0.996264)"/>
      <use xlink:href="#CMSS17-6e" transform="translate(392.726221 0) scale(0.996264)"/>
      <use xlink:href="#CMSS17-67" transform="translate(440.931164 0) scale(0.996264)"/>
      <use xlink:href="#CMR17-5b" transform="translate(519.0039 0) scale(0.996264)"/>
      <use xlink:href="#CMMI12-57" transform="translate(543.874959 0) scale(0.996264)"/>
      <use xlink:href="#CMR17-5d" transform="translate(649.519456 0) scale(0.996264)"/>
     </g>
    </g>
   </g>
   <g id="matplotlib.axis_2">
    <g id="ytick_1">
     <g id="line2d_11">
      <path d="M 43.514379 665.417816 
L 1379.39976 665.417816 
" clip-path="url(#p1748eff5ba)" style="fill: none; stroke: #b0b0b0; stroke-width: 0.8; stroke-linecap: square"/>
     </g>
     <g id="line2d_12">
      <defs>
       <path id="m0c6de0f727" d="M 0 0 
L -3.5 0 
" style="stroke: #000000; stroke-width: 0.8"/>
      </defs>
      <g>
       <use xlink:href="#m0c6de0f727" x="43.514379" y="665.417816" style="stroke: #000000; stroke-width: 0.8"/>
      </g>
     </g>
     <g id="text_7">
      <!-- $\mathdefault{0}$ -->
      <g transform="translate(30.661389 669.568906) scale(0.12 -0.12)">
       <use xlink:href="#CMR17-30" transform="scale(0.996264)"/>
      </g>
     </g>
    </g>
    <g id="ytick_2">
     <g id="line2d_13">
      <path d="M 43.514379 542.81497 
L 1379.39976 542.81497 
" clip-path="url(#p1748eff5ba)" style="fill: none; stroke: #b0b0b0; stroke-width: 0.8; stroke-linecap: square"/>
     </g>
     <g id="line2d_14">
      <g>
       <use xlink:href="#m0c6de0f727" x="43.514379" y="542.81497" style="stroke: #000000; stroke-width: 0.8"/>
      </g>
     </g>
     <g id="text_8">
      <!-- $\mathdefault{20}$ -->
      <g transform="translate(24.808398 546.96606) scale(0.12 -0.12)">
       <use xlink:href="#CMR17-32" transform="scale(0.996264)"/>
       <use xlink:href="#CMR17-30" transform="translate(45.690477 0) scale(0.996264)"/>
      </g>
     </g>
    </g>
    <g id="ytick_3">
     <g id="line2d_15">
      <path d="M 43.514379 420.212123 
L 1379.39976 420.212123 
" clip-path="url(#p1748eff5ba)" style="fill: none; stroke: #b0b0b0; stroke-width: 0.8; stroke-linecap: square"/>
     </g>
     <g id="line2d_16">
      <g>
       <use xlink:href="#m0c6de0f727" x="43.514379" y="420.212123" style="stroke: #000000; stroke-width: 0.8"/>
      </g>
     </g>
     <g id="text_9">
      <!-- $\mathdefault{40}$ -->
      <g transform="translate(24.808398 424.363213) scale(0.12 -0.12)">
       <defs>
        <path id="CMR17-34" d="M 2150 4122 
C 2150 4256 2144 4256 2029 4256 
L 128 1254 
L 128 1088 
L 1779 1088 
L 1779 457 
C 1779 224 1766 160 1318 160 
L 1197 160 
L 1197 0 
C 1402 0 1747 0 1965 0 
C 2182 0 2528 0 2733 0 
L 2733 160 
L 2611 160 
C 2163 160 2150 224 2150 457 
L 2150 1088 
L 2803 1088 
L 2803 1254 
L 2150 1254 
L 2150 4122 
z
M 1798 3703 
L 1798 1254 
L 256 1254 
L 1798 3703 
z
" transform="scale(0.015625)"/>
       </defs>
       <use xlink:href="#CMR17-34" transform="scale(0.996264)"/>
       <use xlink:href="#CMR17-30" transform="translate(45.690477 0) scale(0.996264)"/>
      </g>
     </g>
    </g>
    <g id="ytick_4">
     <g id="line2d_17">
      <path d="M 43.514379 297.609277 
L 1379.39976 297.609277 
" clip-path="url(#p1748eff5ba)" style="fill: none; stroke: #b0b0b0; stroke-width: 0.8; stroke-linecap: square"/>
     </g>
     <g id="line2d_18">
      <g>
       <use xlink:href="#m0c6de0f727" x="43.514379" y="297.609277" style="stroke: #000000; stroke-width: 0.8"/>
      </g>
     </g>
     <g id="text_10">
      <!-- $\mathdefault{60}$ -->
      <g transform="translate(24.808398 301.760367) scale(0.12 -0.12)">
       <defs>
        <path id="CMR17-36" d="M 678 2176 
C 678 3690 1395 4032 1811 4032 
C 1946 4032 2272 4009 2400 3776 
C 2298 3776 2106 3776 2106 3553 
C 2106 3381 2246 3323 2336 3323 
C 2394 3323 2566 3348 2566 3560 
C 2566 3954 2246 4179 1805 4179 
C 1043 4179 243 3390 243 1984 
C 243 253 966 -128 1478 -128 
C 2099 -128 2688 427 2688 1283 
C 2688 2081 2170 2662 1517 2662 
C 1126 2662 838 2407 678 1960 
L 678 2176 
z
M 1478 25 
C 691 25 691 1200 691 1436 
C 691 1896 909 2560 1504 2560 
C 1613 2560 1926 2560 2138 2120 
C 2253 1870 2253 1609 2253 1289 
C 2253 944 2253 690 2118 434 
C 1978 171 1773 25 1478 25 
z
" transform="scale(0.015625)"/>
       </defs>
       <use xlink:href="#CMR17-36" transform="scale(0.996264)"/>
       <use xlink:href="#CMR17-30" transform="translate(45.690477 0) scale(0.996264)"/>
      </g>
     </g>
    </g>
    <g id="ytick_5">
     <g id="line2d_19">
      <path d="M 43.514379 175.00643 
L 1379.39976 175.00643 
" clip-path="url(#p1748eff5ba)" style="fill: none; stroke: #b0b0b0; stroke-width: 0.8; stroke-linecap: square"/>
     </g>
     <g id="line2d_20">
      <g>
       <use xlink:href="#m0c6de0f727" x="43.514379" y="175.00643" style="stroke: #000000; stroke-width: 0.8"/>
      </g>
     </g>
     <g id="text_11">
      <!-- $\mathdefault{80}$ -->
      <g transform="translate(24.808398 179.15752) scale(0.12 -0.12)">
       <defs>
        <path id="CMR17-38" d="M 1741 2264 
C 2144 2467 2554 2773 2554 3263 
C 2554 3841 1990 4179 1472 4179 
C 890 4179 378 3759 378 3180 
C 378 3021 416 2747 666 2505 
C 730 2442 998 2251 1171 2130 
C 883 1983 211 1634 211 934 
C 211 279 838 -128 1459 -128 
C 2144 -128 2720 362 2720 1010 
C 2720 1590 2330 1857 2074 2029 
L 1741 2264 
z
M 902 2822 
C 851 2854 595 3051 595 3351 
C 595 3739 998 4032 1459 4032 
C 1965 4032 2336 3676 2336 3262 
C 2336 2669 1670 2331 1638 2331 
C 1632 2331 1626 2331 1574 2370 
L 902 2822 
z
M 2080 1519 
C 2176 1449 2483 1240 2483 851 
C 2483 381 2010 25 1472 25 
C 890 25 448 438 448 940 
C 448 1443 838 1862 1280 2060 
L 2080 1519 
z
" transform="scale(0.015625)"/>
       </defs>
       <use xlink:href="#CMR17-38" transform="scale(0.996264)"/>
       <use xlink:href="#CMR17-30" transform="translate(45.690477 0) scale(0.996264)"/>
      </g>
     </g>
    </g>
    <g id="ytick_6">
     <g id="line2d_21">
      <path d="M 43.514379 52.403584 
L 1379.39976 52.403584 
" clip-path="url(#p1748eff5ba)" style="fill: none; stroke: #b0b0b0; stroke-width: 0.8; stroke-linecap: square"/>
     </g>
     <g id="line2d_22">
      <g>
       <use xlink:href="#m0c6de0f727" x="43.514379" y="52.403584" style="stroke: #000000; stroke-width: 0.8"/>
      </g>
     </g>
     <g id="text_12">
      <!-- $\mathdefault{100}$ -->
      <g transform="translate(18.955408 56.554674) scale(0.12 -0.12)">
       <use xlink:href="#CMR17-31" transform="scale(0.996264)"/>
       <use xlink:href="#CMR17-30" transform="translate(45.690477 0) scale(0.996264)"/>
       <use xlink:href="#CMR17-30" transform="translate(91.380954 0) scale(0.996264)"/>
      </g>
     </g>
    </g>
    <g id="text_13">
     <!-- Wirkungsgrad $[ \% ]$ -->
     <g transform="translate(11.966616 387.259936) rotate(-90) scale(0.12 -0.12)">
      <defs>
       <path id="CMSS17-57" d="M 5581 4416 
L 5094 4416 
L 4557 2437 
C 4474 2118 4397 1801 4320 1482 
C 4205 1011 4122 681 4109 515 
L 4102 515 
C 4090 687 4006 1049 3904 1457 
C 3827 1795 3744 2131 3654 2462 
L 3123 4416 
L 2586 4416 
L 2080 2562 
L 1824 1549 
C 1632 747 1626 632 1613 505 
L 1606 505 
C 1606 543 1581 753 1402 1498 
C 1312 1868 1222 2244 1126 2601 
L 634 4416 
L 83 4416 
L 1299 0 
L 1830 0 
L 2336 1839 
L 2592 2851 
C 2765 3564 2803 3742 2816 3901 
L 2822 3901 
C 2822 3876 2880 3474 3130 2545 
L 3808 0 
L 4365 0 
L 5581 4416 
z
" transform="scale(0.015625)"/>
       <path id="CMSS17-72" d="M 954 1363 
C 954 1965 1395 2368 1958 2368 
L 1958 2789 
C 1549 2789 1165 2585 934 2253 
L 934 2758 
L 480 2758 
L 480 0 
L 954 0 
L 954 1363 
z
" transform="scale(0.015625)"/>
       <path id="CMSS17-6b" d="M 1696 1688 
L 2688 2739 
L 2074 2739 
L 954 1554 
L 954 4416 
L 480 4416 
L 480 0 
L 947 0 
L 947 892 
L 1376 1344 
L 2278 0 
L 2822 0 
L 1696 1688 
z
" transform="scale(0.015625)"/>
       <path id="CMSS17-61" d="M 2406 1791 
C 2406 2392 1978 2808 1402 2808 
C 1120 2808 813 2757 461 2553 
L 499 2135 
C 659 2248 934 2432 1395 2432 
C 1722 2432 1920 2180 1920 1782 
L 1920 1536 
C 896 1536 256 1238 256 726 
C 256 461 416 -64 947 -64 
C 1043 -64 1562 -64 1933 217 
L 1933 -19 
L 2406 -19 
L 2406 1791 
z
M 1920 816 
C 1920 701 1920 548 1728 434 
C 1562 325 1350 325 1261 325 
C 941 325 723 511 723 744 
C 723 1211 1722 1211 1920 1211 
L 1920 816 
z
" transform="scale(0.015625)"/>
       <path id="CMSS17-64" d="M 2611 4416 
L 2138 4416 
L 2138 2438 
C 1939 2603 1613 2756 1254 2756 
C 672 2756 211 2131 211 1347 
C 211 562 666 -64 1235 -64 
C 1677 -64 1971 172 2125 306 
L 2125 -13 
L 2611 -13 
L 2611 4416 
z
M 2125 836 
C 2125 747 2125 653 1926 482 
C 1798 375 1645 325 1498 325 
C 1152 325 698 576 698 1340 
C 698 2134 1210 2368 1562 2368 
C 1798 2368 1990 2254 2125 2065 
L 2125 836 
z
" transform="scale(0.015625)"/>
       <path id="CMR17-25" d="M 4640 959 
C 4640 1698 4275 2240 3846 2240 
C 3411 2240 2970 1736 2970 959 
C 2970 183 3405 -320 3846 -320 
C 4275 -320 4640 215 4640 959 
z
M 3853 -218 
C 3686 -218 3270 -66 3270 959 
C 3270 1991 3686 2138 3853 2138 
C 4205 2138 4525 1634 4525 959 
C 4525 285 4205 -218 3853 -218 
z
M 4083 4577 
C 4128 4647 4134 4653 4134 4685 
C 4134 4761 4077 4800 4026 4800 
C 3962 4800 3936 4756 3891 4706 
C 3520 4190 3008 4134 2746 4134 
C 2106 4134 1715 4494 1594 4607 
C 1510 4682 1389 4800 1171 4800 
C 736 4800 294 4296 294 3519 
C 294 2743 730 2240 1171 2240 
C 1600 2240 1965 2778 1965 3527 
C 1965 3969 1830 4270 1811 4308 
C 2202 4064 2586 4032 2752 4032 
C 3162 4032 3456 4183 3616 4289 
L 3622 4283 
L 858 -84 
C 800 -174 800 -187 800 -206 
C 800 -276 858 -320 915 -320 
C 973 -320 992 -289 1037 -218 
L 4083 4577 
z
M 1178 2342 
C 1011 2342 595 2494 595 3519 
C 595 4551 1011 4698 1178 4698 
C 1530 4698 1850 4194 1850 3519 
C 1850 2845 1530 2342 1178 2342 
z
" transform="scale(0.015625)"/>
      </defs>
      <use xlink:href="#CMSS17-57" transform="scale(0.996264)"/>
      <use xlink:href="#CMSS17-69" transform="translate(88.242166 0) scale(0.996264)"/>
      <use xlink:href="#CMSS17-72" transform="translate(110.422889 0) scale(0.996264)"/>
      <use xlink:href="#CMSS17-6b" transform="translate(142.332662 0) scale(0.996264)"/>
      <use xlink:href="#CMSS17-75" transform="translate(187.935151 0) scale(0.996264)"/>
      <use xlink:href="#CMSS17-6e" transform="translate(236.140094 0) scale(0.996264)"/>
      <use xlink:href="#CMSS17-67" transform="translate(284.345037 0) scale(0.996264)"/>
      <use xlink:href="#CMSS17-73" transform="translate(331.188661 0) scale(0.996264)"/>
      <use xlink:href="#CMSS17-67" transform="translate(367.102203 0) scale(0.996264)"/>
      <use xlink:href="#CMSS17-72" transform="translate(413.945826 0) scale(0.996264)"/>
      <use xlink:href="#CMSS17-61" transform="translate(445.855599 0) scale(0.996264)"/>
      <use xlink:href="#CMSS17-64" transform="translate(490.777519 0) scale(0.996264)"/>
      <use xlink:href="#CMR17-5b" transform="translate(570.211575 0) scale(0.996264)"/>
      <use xlink:href="#CMR17-25" transform="translate(595.082634 0) scale(0.996264)"/>
      <use xlink:href="#CMR17-5d" transform="translate(672.002224 0) scale(0.996264)"/>
     </g>
    </g>
   </g>
   <g id="line2d_23">
    <path d="M 1379.39976 52.403584 
L 1336.407186 62.452949 
L 1295.477914 72.178181 
L 1256.482179 81.594699 
L 1219.300094 90.716973 
L 1183.820914 99.558522 
L 1149.942086 108.132134 
L 1117.568838 116.449866 
L 1056.994019 132.361943 
L 1001.465815 147.377584 
L 950.438586 161.570524 
L 903.438982 175.006423 
L 860.053753 187.7444 
L 819.921874 199.8374 
L 782.725814 211.333178 
L 748.186136 222.274996 
L 716.055709 232.701877 
L 686.115563 242.649372 
L 658.171157 252.149783 
L 632.048912 261.232595 
L 607.593689 269.924775 
L 584.666793 278.250911 
L 563.143345 286.233769 
L 533.247224 297.609262 
L 505.925108 308.322166 
L 480.889808 318.428641 
L 457.893091 327.978817 
L 436.719402 337.017345 
L 417.181134 345.584307 
L 399.11406 353.715657 
L 382.374021 361.443804 
L 361.901321 371.170991 
L 343.303344 380.294909 
L 326.35802 388.870074 
L 310.875195 396.944424 
L 296.691245 404.560727 
L 280.574441 413.49417 
L 266.031973 421.836 
L 252.865292 429.643107 
L 240.906166 436.965312 
L 227.948947 445.17321 
L 216.316359 452.811729 
L 205.833824 459.938179 
L 194.863217 467.671296 
L 185.064545 474.843455 
L 175.095564 482.428481 
L 166.249285 489.432874 
L 157.438068 496.698299 
L 149.653956 503.387638 
L 142.023671 510.224338 
L 134.673363 517.107907 
L 127.694801 523.952993 
L 121.148892 530.689412 
L 115.070371 537.261528 
L 109.472788 543.626908 
L 104.058815 550.117332 
L 98.948169 556.598723 
L 94.21665 562.964167 
L 89.903426 569.132861 
L 85.878812 575.268661 
L 82.096177 581.443255 
L 78.650622 587.492267 
L 75.513989 593.439629 
L 72.627645 599.383967 
L 69.994135 605.318372 
L 67.64048 611.168769 
L 65.54844 616.958194 
L 63.691946 622.748609 
L 62.084308 628.489247 
L 60.710471 634.221164 
L 59.575366 639.910982 
L 58.671081 645.579169 
L 57.99483 651.227671 
L 57.543808 656.864129 
L 57.418165 659.297874 
L 57.418165 659.297874 
" clip-path="url(#p1748eff5ba)" style="fill: none; stroke: #0000ff; stroke-width: 1.5; stroke-linecap: square"/>
   </g>
   <g id="line2d_24">
    <path d="M 57.286393 665.417817 
L 57.286468 672.692579 
L 59.03464 128.467616 
L 60.297484 108.474156 
L 61.187305 105.665938 
L 61.868034 109.211 
L 62.697566 99.586063 
L 63.02409 99.435262 
L 63.343325 98.252144 
L 63.560207 99.521084 
L 63.892828 98.247853 
L 64.828389 97.801579 
L 66.081256 97.312393 
L 70.884715 96.296629 
L 73.840409 95.977248 
L 81.696517 95.497258 
L 89.980329 95.231823 
L 110.403399 94.937576 
L 131.096126 94.805165 
L 145.03065 94.753059 
L 185.684534 94.661107 
L 219.631999 94.620648 
L 437.425386 94.532987 
L 702.108626 94.505401 
L 1194.816208 94.479655 
L 1194.816208 94.479655 
" clip-path="url(#p1748eff5ba)" style="fill: none; stroke: #ffa500; stroke-width: 1.5; stroke-linecap: square"/>
   </g>
   <g id="line2d_25">
    <path d="M 59.420014 62.265144 
L 59.425319 61.463321 
L 60.749047 127.161895 
L 63.245158 75.486635 
L 64.004657 73.501694 
L 64.499954 68.950064 
L 64.945231 68.32908 
L 65.355251 67.114086 
L 65.696301 68.407546 
L 66.163668 68.266553 
L 66.546034 65.570516 
L 66.861579 67.177227 
L 67.22852 67.819666 
L 67.660741 64.712909 
L 67.988515 65.393968 
L 68.414015 62.667281 
L 68.773189 62.846894 
L 69.016018 64.771146 
L 69.49005 61.938407 
L 69.885913 61.268382 
L 70.237265 61.482324 
L 70.630483 60.871762 
L 71.001446 60.76755 
L 71.733952 60.317597 
L 72.12034 61.236506 
L 72.498299 59.922203 
L 72.854443 59.764045 
L 73.236314 60.382577 
L 73.606891 59.644508 
L 74.374488 60.213385 
L 74.733827 59.835155 
L 75.107324 58.977548 
L 75.879053 58.555181 
L 76.250457 59.382751 
L 76.632162 58.95548 
L 77.007477 58.29465 
L 77.398822 59.053562 
L 77.773531 58.018181 
L 78.164822 57.921938 
L 78.550053 58.530661 
L 78.935449 57.738646 
L 79.335223 57.720256 
L 79.722271 58.240705 
L 80.099349 58.210667 
L 80.487059 57.395972 
L 80.894545 58.116876 
L 81.277242 58.002243 
L 81.660655 57.231684 
L 82.45508 56.995673 
L 82.851934 57.544934 
L 83.251322 57.681636 
L 83.648838 57.46892 
L 84.430758 56.691618 
L 84.8448 57.189999 
L 85.232179 56.564111 
L 85.641263 57.064944 
L 86.050953 56.448252 
L 87.251597 56.311549 
L 87.664647 56.75905 
L 88.069434 56.197529 
L 88.882919 56.110481 
L 89.293436 56.333618 
L 89.710342 56.013624 
L 90.107251 56.313388 
L 90.527959 56.39308 
L 90.939301 55.915542 
L 91.359678 56.223275 
L 91.771517 56.206724 
L 92.18958 55.786809 
L 92.603677 55.735929 
L 93.019702 56.279673 
L 93.433248 55.666045 
L 93.858969 55.616391 
L 94.286948 56.051631 
L 94.696417 55.568576 
L 95.556397 55.997073 
L 96.388612 55.47785 
L 96.83152 55.840141 
L 97.263025 55.364442 
L 97.686487 55.359538 
L 98.12047 55.779453 
L 98.549496 55.28475 
L 98.966954 55.259617 
L 99.413828 55.591871 
L 99.847426 55.614552 
L 100.285486 55.165826 
L 100.717542 55.502371 
L 101.149818 55.466816 
L 101.586721 55.086747 
L 102.034918 55.420227 
L 102.473529 55.495627 
L 102.903601 55.013185 
L 103.346068 55.092877 
L 103.791566 55.326435 
L 104.230452 54.951884 
L 105.116709 54.933493 
L 105.567549 54.905908 
L 106.032327 55.275555 
L 106.47171 55.155404 
L 106.923156 54.844606 
L 107.379451 55.063452 
L 107.816519 55.089199 
L 108.260364 54.777788 
L 108.738363 55.100846 
L 109.187551 54.719551 
L 110.099258 55.018702 
L 110.563595 54.663767 
L 111.024848 54.652733 
L 111.485494 55.08123 
L 111.937106 54.615952 
L 113.328024 54.734877 
L 113.797925 54.547294 
L 114.273886 54.97763 
L 114.728363 54.6135 
L 115.211485 54.772271 
L 115.665961 54.755719 
L 116.138066 54.470668 
L 116.626697 54.775949 
L 117.094395 54.487219 
L 118.04246 54.399558 
L 118.518972 54.686449 
L 118.998238 54.633729 
L 119.466487 54.362777 
L 120.441545 54.340096 
L 120.921362 54.544229 
L 121.397323 54.311897 
L 122.374034 54.526452 
L 122.856055 54.361551 
L 123.827257 54.477411 
L 124.813884 54.233431 
L 125.306371 54.21075 
L 125.807122 54.422239 
L 126.297406 54.410592 
L 126.804767 54.17213 
L 127.284584 54.321092 
L 128.290491 54.250595 
L 128.785182 54.299024 
L 129.294747 54.115119 
L 129.797701 54.109602 
L 130.292391 54.310058 
L 130.800303 54.084469 
L 131.311521 54.264695 
L 131.809517 54.063626 
L 132.329548 54.264082 
L 132.846825 54.299024 
L 133.335456 54.175195 
L 133.864301 54.356647 
L 134.37056 54.246917 
L 134.887286 54.006616 
L 135.396851 53.994356 
L 136.444075 54.221171 
L 136.953088 54.161708 
L 137.475874 53.953897 
L 137.997558 54.014585 
L 138.519242 53.942249 
L 139.051393 54.1519 
L 139.574178 54.11328 
L 140.096413 53.916503 
L 141.146391 53.90179 
L 141.688458 54.075273 
L 142.2151 53.880948 
L 142.754963 53.875431 
L 143.290419 54.051979 
L 143.811552 53.856427 
L 144.357474 53.912825 
L 144.89293 53.836811 
L 145.432242 53.926924 
L 146.49434 53.825777 
L 147.602712 53.800643 
L 148.151389 53.995582 
L 149.79136 54.040332 
L 150.33563 53.803708 
L 150.885409 53.925698 
L 151.442349 53.755893 
L 152.545763 53.880335 
L 153.106008 53.73689 
L 153.666254 53.893208 
L 154.222643 53.872366 
L 154.791152 53.709917 
L 158.177415 53.670071 
L 158.738762 53.819646 
L 159.886247 53.669458 
L 160.461366 53.795126 
L 161.019408 53.64555 
L 161.612706 53.819646 
L 163.933566 53.609996 
L 164.511991 53.771831 
L 165.079949 53.698883 
L 165.68151 53.802482 
L 166.258282 53.58854 
L 166.853784 53.724629 
L 167.442124 53.73689 
L 168.024405 53.597735 
L 168.626518 53.668845 
L 169.225876 53.56402 
L 169.815869 53.694592 
L 170.412472 53.579958 
L 171.592459 53.638194 
L 173.414221 53.66578 
L 174.009172 53.524787 
L 174.633319 53.514365 
L 175.229923 53.665167 
L 175.84746 53.50517 
L 177.063254 53.502718 
L 177.675833 53.644324 
L 178.291717 53.484328 
L 178.907051 53.629612 
L 182.007958 53.457355 
L 182.632105 53.581797 
L 183.254049 53.456742 
L 184.510057 53.480037 
L 185.144121 53.559115 
L 185.771023 53.434674 
L 188.944646 53.408314 
L 189.599643 53.601413 
L 190.228197 53.400958 
L 190.887051 53.590992 
L 194.103642 53.396054 
L 194.776267 53.526013 
L 198.058965 53.356208 
L 198.714513 53.482489 
L 199.367306 53.350691 
L 200.720269 53.339043 
L 201.381325 53.443256 
L 202.714456 53.3323 
L 204.072377 53.497201 
L 204.740044 53.350078 
L 205.41928 53.423026 
L 206.089702 53.309619 
L 207.459742 53.429156 
L 208.14063 53.301649 
L 210.195965 53.369694 
L 212.958081 53.35253 
L 213.652741 53.277742 
L 214.36503 53.372759 
L 215.049774 53.285098 
L 216.458376 53.339043 
L 217.166808 53.361725 
L 217.862019 53.255673 
L 218.584224 53.363564 
L 219.279435 53.24893 
L 220.002741 53.351304 
L 222.145116 53.240961 
L 222.86071 53.388697 
L 227.195038 53.221958 
L 227.923853 53.313297 
L 228.658728 53.211536 
L 229.37983 53.298584 
L 233.814419 53.191307 
L 236.04824 53.285711 
L 237.539473 53.179047 
L 239.054946 53.175369 
L 239.803042 53.182725 
L 240.573724 53.312071 
L 241.333939 53.166173 
L 311.794318 53.001272 
L 324.939981 52.979204 
L 325.896861 53.065639 
L 329.729337 53.001272 
L 331.654113 52.967557 
L 338.501008 53.002499 
L 340.481424 52.952231 
L 342.464594 53.016598 
L 344.454374 52.946714 
L 346.448562 53.009242 
L 348.457623 52.981656 
L 354.546506 52.98656 
L 356.586417 52.92955 
L 358.656626 52.979204 
L 359.684019 52.930163 
L 360.719674 53.005564 
L 362.787129 52.922807 
L 363.846472 53.004338 
L 365.930453 52.919742 
L 397.338358 52.8848 
L 399.594765 52.928324 
L 402.967807 52.880509 
L 490.377679 52.851084 
L 701.695466 52.749937 
L 712.718586 52.749324 
L 722.01745 52.722964 
L 731.409964 52.746872 
L 739.001098 52.737063 
L 772.070459 52.732772 
L 784.05762 52.708865 
L 794.166278 52.727255 
L 806.467441 52.707026 
L 951.128679 52.698443 
L 968.046221 52.678214 
L 1217.622663 52.660437 
L 1276.093127 52.656145 
L 1314.384835 52.643885 
L 1340.480048 52.65308 
L 1378.512842 52.552546 
L 1378.512842 52.552546 
" clip-path="url(#p1748eff5ba)" style="fill: none; stroke: #008000; stroke-width: 1.5; stroke-linecap: square"/>
   </g>
   <g id="patch_3">
    <path d="M 43.514379 665.417816 
L 43.514379 21.752872 
" style="fill: none; stroke: #000000; stroke-width: 0.8; stroke-linejoin: miter; stroke-linecap: square"/>
   </g>
   <g id="patch_4">
    <path d="M 1379.39976 665.417816 
L 1379.39976 21.752872 
" style="fill: none; stroke: #000000; stroke-width: 0.8; stroke-linejoin: miter; stroke-linecap: square"/>
   </g>
   <g id="patch_5">
    <path d="M 43.514379 665.417816 
L 1379.39976 665.417816 
" style="fill: none; stroke: #000000; stroke-width: 0.8; stroke-linejoin: miter; stroke-linecap: square"/>
   </g>
   <g id="patch_6">
    <path d="M 43.514379 21.752872 
L 1379.39976 21.752872 
" style="fill: none; stroke: #000000; stroke-width: 0.8; stroke-linejoin: miter; stroke-linecap: square"/>
   </g>
   <g id="legend_1">
    <g id="patch_7">
     <path d="M 1232.004595 659.417816 
L 1370.99976 659.417816 
Q 1373.39976 659.417816 1373.39976 657.017816 
L 1373.39976 608.044029 
Q 1373.39976 605.644029 1370.99976 605.644029 
L 1232.004595 605.644029 
Q 1229.604595 605.644029 1229.604595 608.044029 
L 1229.604595 657.017816 
Q 1229.604595 659.417816 1232.004595 659.417816 
z
" style="fill: #ffffff; opacity: 0.8; stroke: #cccccc; stroke-linejoin: miter"/>
    </g>
    <g id="line2d_26">
     <path d="M 1234.404595 614.644029 
L 1246.404595 614.644029 
L 1258.404595 614.644029 
" style="fill: none; stroke: #0000ff; stroke-width: 1.5; stroke-linecap: square"/>
    </g>
    <g id="text_14">
     <!-- Widerstandsregelung -->
     <g transform="translate(1268.004595 618.844029) scale(0.12 -0.12)">
      <use xlink:href="#CMSS17-57" transform="scale(0.996264)"/>
      <use xlink:href="#CMSS17-69" transform="translate(88.242166 0) scale(0.996264)"/>
      <use xlink:href="#CMSS17-64" transform="translate(110.422889 0) scale(0.996264)"/>
      <use xlink:href="#CMSS17-65" transform="translate(158.627832 0) scale(0.996264)"/>
      <use xlink:href="#CMSS17-72" transform="translate(200.266654 0) scale(0.996264)"/>
      <use xlink:href="#CMSS17-73" transform="translate(232.176427 0) scale(0.996264)"/>
      <use xlink:href="#CMSS17-74" transform="translate(268.089969 0) scale(0.996264)"/>
      <use xlink:href="#CMSS17-61" transform="translate(301.921536 0) scale(0.996264)"/>
      <use xlink:href="#CMSS17-6e" transform="translate(346.843456 0) scale(0.996264)"/>
      <use xlink:href="#CMSS17-64" transform="translate(395.048399 0) scale(0.996264)"/>
      <use xlink:href="#CMSS17-73" transform="translate(443.253343 0) scale(0.996264)"/>
      <use xlink:href="#CMSS17-72" transform="translate(479.166885 0) scale(0.996264)"/>
      <use xlink:href="#CMSS17-65" transform="translate(511.076657 0) scale(0.996264)"/>
      <use xlink:href="#CMSS17-67" transform="translate(552.715479 0) scale(0.996264)"/>
      <use xlink:href="#CMSS17-65" transform="translate(599.559103 0) scale(0.996264)"/>
      <use xlink:href="#CMSS17-6c" transform="translate(641.197925 0) scale(0.996264)"/>
      <use xlink:href="#CMSS17-75" transform="translate(663.378648 0) scale(0.996264)"/>
      <use xlink:href="#CMSS17-6e" transform="translate(711.583591 0) scale(0.996264)"/>
      <use xlink:href="#CMSS17-67" transform="translate(759.788534 0) scale(0.996264)"/>
     </g>
    </g>
    <g id="line2d_27">
     <path d="M 1234.404595 631.368625 
L 1246.404595 631.368625 
L 1258.404595 631.368625 
" style="fill: none; stroke: #ffa500; stroke-width: 1.5; stroke-linecap: square"/>
    </g>
    <g id="text_15">
     <!-- Operationsverstärker -->
     <g transform="translate(1268.004595 635.568625) scale(0.12 -0.12)">
      <defs>
       <path id="CMSS17-4f" d="M 4096 2178 
C 4096 3503 3219 4497 2214 4497 
C 1210 4497 333 3497 333 2178 
C 333 847 1222 -128 2214 -128 
C 3206 -128 4096 847 4096 2178 
z
M 2214 273 
C 1510 273 870 1057 870 2261 
C 870 3433 1549 4096 2214 4096 
C 2880 4096 3558 3433 3558 2261 
C 3558 1051 2912 273 2214 273 
z
" transform="scale(0.015625)"/>
       <path id="CMSS17-70" d="M 966 333 
C 1178 129 1466 -5 1773 -5 
C 2368 -5 2880 603 2880 1412 
C 2880 2159 2496 2816 1946 2816 
C 1626 2816 1242 2702 954 2472 
L 954 2765 
L 480 2765 
L 480 -1216 
L 966 -1216 
L 966 333 
z
M 966 2100 
C 1018 2176 1235 2415 1587 2415 
C 2035 2415 2394 1960 2394 1412 
C 2394 787 1958 384 1530 384 
C 1402 384 1267 415 1139 523 
C 966 674 966 768 966 857 
L 966 2100 
z
" transform="scale(0.015625)"/>
       <path id="CMSS17-6f" d="M 2829 1356 
C 2829 2176 2221 2816 1504 2816 
C 768 2816 173 2157 173 1356 
C 173 544 787 -64 1498 -64 
C 2227 -64 2829 563 2829 1356 
z
M 1504 337 
C 1050 337 659 709 659 1408 
C 659 2151 1114 2427 1498 2427 
C 1914 2427 2342 2126 2342 1408 
C 2342 683 1926 337 1504 337 
z
" transform="scale(0.015625)"/>
       <path id="CMSS17-76" d="M 2675 2752 
L 2176 2752 
L 1747 1556 
C 1613 1165 1421 627 1389 352 
L 1382 352 
C 1370 468 1318 634 1286 749 
C 1248 890 1197 1056 1158 1172 
L 595 2752 
L 83 2752 
L 1094 0 
L 1664 0 
L 2675 2752 
z
" transform="scale(0.015625)"/>
       <path id="CMSS17-7f" d="M 1178 4164 
L 659 4164 
L 659 3648 
L 1178 3648 
L 1178 4164 
z
M 2342 4164 
L 1824 4164 
L 1824 3648 
L 2342 3648 
L 2342 4164 
z
" transform="scale(0.015625)"/>
      </defs>
      <use xlink:href="#CMSS17-4f" transform="scale(0.996264)"/>
      <use xlink:href="#CMSS17-70" transform="translate(69.024255 0) scale(0.996264)"/>
      <use xlink:href="#CMSS17-65" transform="translate(119.831637 0) scale(0.996264)"/>
      <use xlink:href="#CMSS17-72" transform="translate(161.470459 0) scale(0.996264)"/>
      <use xlink:href="#CMSS17-61" transform="translate(193.380232 0) scale(0.996264)"/>
      <use xlink:href="#CMSS17-74" transform="translate(238.302152 0) scale(0.996264)"/>
      <use xlink:href="#CMSS17-69" transform="translate(272.133719 0) scale(0.996264)"/>
      <use xlink:href="#CMSS17-6f" transform="translate(294.314442 0) scale(0.996264)"/>
      <use xlink:href="#CMSS17-6e" transform="translate(341.158066 0) scale(0.996264)"/>
      <use xlink:href="#CMSS17-73" transform="translate(389.363009 0) scale(0.996264)"/>
      <use xlink:href="#CMSS17-76" transform="translate(425.276551 0) scale(0.996264)"/>
      <use xlink:href="#CMSS17-65" transform="translate(468.276693 0) scale(0.996264)"/>
      <use xlink:href="#CMSS17-72" transform="translate(509.915515 0) scale(0.996264)"/>
      <use xlink:href="#CMSS17-73" transform="translate(541.825287 0) scale(0.996264)"/>
      <use xlink:href="#CMSS17-74" transform="translate(577.738829 0) scale(0.996264)"/>
      <use xlink:href="#CMSS17-7f" transform="translate(610.609537 0) scale(0.996264)"/>
      <use xlink:href="#CMSS17-61" transform="translate(611.570396 0) scale(0.996264)"/>
      <use xlink:href="#CMSS17-72" transform="translate(656.492316 0) scale(0.996264)"/>
      <use xlink:href="#CMSS17-6b" transform="translate(688.402089 0) scale(0.996264)"/>
      <use xlink:href="#CMSS17-65" transform="translate(731.402124 0) scale(0.996264)"/>
      <use xlink:href="#CMSS17-72" transform="translate(773.040946 0) scale(0.996264)"/>
     </g>
    </g>
    <g id="line2d_28">
     <path d="M 1234.404595 648.093221 
L 1246.404595 648.093221 
L 1258.404595 648.093221 
" style="fill: none; stroke: #008000; stroke-width: 1.5; stroke-linecap: square"/>
    </g>
    <g id="text_16">
     <!-- OPV - Verbessert -->
     <g transform="translate(1268.004595 652.293221) scale(0.12 -0.12)">
      <defs>
       <path id="CMSS17-50" d="M 2106 1856 
C 2874 1856 3501 2453 3501 3158 
C 3501 3850 2899 4453 2067 4453 
L 570 4453 
L 570 0 
L 1107 0 
L 1107 1856 
L 2106 1856 
z
M 1926 4096 
C 2669 4096 2995 3627 2995 3157 
C 2995 2720 2694 2226 1926 2226 
L 1094 2226 
L 1094 4096 
L 1926 4096 
z
" transform="scale(0.015625)"/>
       <path id="CMSS17-56" d="M 3910 4416 
L 3411 4416 
L 2304 1362 
C 2272 1273 2074 688 2035 484 
L 2029 484 
C 1978 726 1773 1292 1664 1604 
L 922 3672 
L 646 4416 
L 83 4416 
L 1715 0 
L 2278 0 
L 3910 4416 
z
" transform="scale(0.015625)"/>
       <path id="CMSS17-2d" d="M 1664 1216 
L 1664 1585 
L 64 1585 
L 64 1216 
L 1664 1216 
z
" transform="scale(0.015625)"/>
       <path id="CMSS17-62" d="M 954 4416 
L 480 4416 
L 480 -13 
L 966 -13 
L 966 274 
C 1210 38 1504 -64 1766 -64 
C 2381 -64 2880 549 2880 1352 
C 2880 2086 2496 2756 1926 2756 
C 1523 2756 1165 2591 954 2419 
L 954 4416 
z
M 966 2046 
C 1107 2222 1306 2368 1587 2368 
C 1965 2368 2394 2097 2394 1352 
C 2394 558 1882 325 1530 325 
C 1402 325 1267 356 1139 464 
C 966 615 966 709 966 797 
L 966 2046 
z
" transform="scale(0.015625)"/>
      </defs>
      <use xlink:href="#CMSS17-4f" transform="scale(0.996264)"/>
      <use xlink:href="#CMSS17-50" transform="translate(69.024255 0) scale(0.996264)"/>
      <use xlink:href="#CMSS17-56" transform="translate(128.759842 0) scale(0.996264)"/>
      <use xlink:href="#CMSS17-2d" transform="translate(222.206809 0) scale(0.996264)"/>
      <use xlink:href="#CMSS17-56" transform="translate(284.665035 0) scale(0.996264)"/>
      <use xlink:href="#CMSS17-65" transform="translate(344.280436 0) scale(0.996264)"/>
      <use xlink:href="#CMSS17-72" transform="translate(385.919258 0) scale(0.996264)"/>
      <use xlink:href="#CMSS17-62" transform="translate(417.82903 0) scale(0.996264)"/>
      <use xlink:href="#CMSS17-65" transform="translate(468.636412 0) scale(0.996264)"/>
      <use xlink:href="#CMSS17-73" transform="translate(510.275234 0) scale(0.996264)"/>
      <use xlink:href="#CMSS17-73" transform="translate(546.188776 0) scale(0.996264)"/>
      <use xlink:href="#CMSS17-65" transform="translate(582.102318 0) scale(0.996264)"/>
      <use xlink:href="#CMSS17-72" transform="translate(623.74114 0) scale(0.996264)"/>
      <use xlink:href="#CMSS17-74" transform="translate(655.650913 0) scale(0.996264)"/>
     </g>
    </g>
   </g>
  </g>
  <g id="text_17">
   <!-- Vergleich des Wirkungsgrades -->
   <g transform="translate(604.356793 12.962865) scale(0.144 -0.144)">
    <defs>
     <path id="CMSS17-63" d="M 2464 2541 
C 2464 2585 2170 2714 2093 2739 
C 1882 2816 1613 2816 1542 2816 
C 710 2816 211 2093 211 1363 
C 211 595 768 -64 1517 -64 
C 1946 -64 2253 76 2502 242 
L 2464 664 
C 2189 453 1869 337 1523 337 
C 1024 337 698 774 698 1369 
C 698 1831 909 2414 1549 2414 
C 1901 2414 2099 2343 2394 2145 
L 2464 2541 
z
" transform="scale(0.015625)"/>
     <path id="CMSS17-68" d="M 2618 1891 
C 2618 2292 2522 2820 1798 2820 
C 1395 2820 1133 2623 947 2407 
L 947 4448 
L 474 4448 
L 474 32 
L 960 32 
L 960 1573 
C 960 1973 1114 2432 1549 2432 
C 2112 2432 2131 2056 2131 1839 
L 2131 32 
L 2618 32 
L 2618 1891 
z
" transform="scale(0.015625)"/>
    </defs>
    <use xlink:href="#CMSS17-56" transform="scale(0.996264)"/>
    <use xlink:href="#CMSS17-65" transform="translate(59.615401 0) scale(0.996264)"/>
    <use xlink:href="#CMSS17-72" transform="translate(101.254223 0) scale(0.996264)"/>
    <use xlink:href="#CMSS17-67" transform="translate(133.163996 0) scale(0.996264)"/>
    <use xlink:href="#CMSS17-6c" transform="translate(180.007619 0) scale(0.996264)"/>
    <use xlink:href="#CMSS17-65" transform="translate(202.188342 0) scale(0.996264)"/>
    <use xlink:href="#CMSS17-69" transform="translate(243.827164 0) scale(0.996264)"/>
    <use xlink:href="#CMSS17-63" transform="translate(266.007887 0) scale(0.996264)"/>
    <use xlink:href="#CMSS17-68" transform="translate(307.646709 0) scale(0.996264)"/>
    <use xlink:href="#CMSS17-64" transform="translate(387.080765 0) scale(0.996264)"/>
    <use xlink:href="#CMSS17-65" transform="translate(435.285708 0) scale(0.996264)"/>
    <use xlink:href="#CMSS17-73" transform="translate(476.92453 0) scale(0.996264)"/>
    <use xlink:href="#CMSS17-57" transform="translate(544.067185 0) scale(0.996264)"/>
    <use xlink:href="#CMSS17-69" transform="translate(632.309351 0) scale(0.996264)"/>
    <use xlink:href="#CMSS17-72" transform="translate(654.490074 0) scale(0.996264)"/>
    <use xlink:href="#CMSS17-6b" transform="translate(686.399847 0) scale(0.996264)"/>
    <use xlink:href="#CMSS17-75" transform="translate(732.002336 0) scale(0.996264)"/>
    <use xlink:href="#CMSS17-6e" transform="translate(780.207279 0) scale(0.996264)"/>
    <use xlink:href="#CMSS17-67" transform="translate(828.412222 0) scale(0.996264)"/>
    <use xlink:href="#CMSS17-73" transform="translate(875.255846 0) scale(0.996264)"/>
    <use xlink:href="#CMSS17-67" transform="translate(911.169388 0) scale(0.996264)"/>
    <use xlink:href="#CMSS17-72" transform="translate(958.013012 0) scale(0.996264)"/>
    <use xlink:href="#CMSS17-61" transform="translate(989.922784 0) scale(0.996264)"/>
    <use xlink:href="#CMSS17-64" transform="translate(1034.844705 0) scale(0.996264)"/>
    <use xlink:href="#CMSS17-65" transform="translate(1083.049648 0) scale(0.996264)"/>
    <use xlink:href="#CMSS17-73" transform="translate(1124.68847 0) scale(0.996264)"/>
   </g>
  </g>
 </g>
 <defs>
  <clipPath id="p1748eff5ba">
   <rect x="43.514379" y="21.752872" width="1335.885381" height="643.664944"/>
  </clipPath>
 </defs>
</svg>
